<?xml version="1.0" encoding="utf-8"?>
<svg xmlns="http://www.w3.org/2000/svg" xmlns:xlink="http://www.w3.org/1999/xlink" width="800" height="600" viewBox="0 0 3200 2400">
<defs>
  <clipPath id="clip460">
    <rect x="0" y="0" width="3200" height="2400"/>
  </clipPath>
</defs>
<path clip-path="url(#clip460)" d="M0 2400 L3200 2400 L3200 0 L0 0  Z" fill="#ffffff" fill-rule="evenodd" fill-opacity="1"/>
<defs>
  <clipPath id="clip461">
    <rect x="640" y="0" width="2241" height="2241"/>
  </clipPath>
</defs>
<path clip-path="url(#clip460)" d="M225.415 2204.92 L3152.76 2204.92 L3152.76 131.032 L225.415 131.032  Z" fill="#ffffff" fill-rule="evenodd" fill-opacity="1"/>
<defs>
  <clipPath id="clip462">
    <rect x="225" y="131" width="2928" height="2075"/>
  </clipPath>
</defs>
<polyline clip-path="url(#clip462)" style="stroke:#000000; stroke-linecap:round; stroke-linejoin:round; stroke-width:2; stroke-opacity:0.1; fill:none" points="653.47,2204.92 653.47,131.032 "/>
<polyline clip-path="url(#clip462)" style="stroke:#000000; stroke-linecap:round; stroke-linejoin:round; stroke-width:2; stroke-opacity:0.1; fill:none" points="1343.88,2204.92 1343.88,131.032 "/>
<polyline clip-path="url(#clip462)" style="stroke:#000000; stroke-linecap:round; stroke-linejoin:round; stroke-width:2; stroke-opacity:0.1; fill:none" points="2034.29,2204.92 2034.29,131.032 "/>
<polyline clip-path="url(#clip462)" style="stroke:#000000; stroke-linecap:round; stroke-linejoin:round; stroke-width:2; stroke-opacity:0.1; fill:none" points="2724.7,2204.92 2724.7,131.032 "/>
<polyline clip-path="url(#clip462)" style="stroke:#000000; stroke-linecap:round; stroke-linejoin:round; stroke-width:2; stroke-opacity:0.1; fill:none" points="225.415,2152.98 3152.76,2152.98 "/>
<polyline clip-path="url(#clip462)" style="stroke:#000000; stroke-linecap:round; stroke-linejoin:round; stroke-width:2; stroke-opacity:0.1; fill:none" points="225.415,1716.7 3152.76,1716.7 "/>
<polyline clip-path="url(#clip462)" style="stroke:#000000; stroke-linecap:round; stroke-linejoin:round; stroke-width:2; stroke-opacity:0.1; fill:none" points="225.415,1280.42 3152.76,1280.42 "/>
<polyline clip-path="url(#clip462)" style="stroke:#000000; stroke-linecap:round; stroke-linejoin:round; stroke-width:2; stroke-opacity:0.1; fill:none" points="225.415,844.144 3152.76,844.144 "/>
<polyline clip-path="url(#clip462)" style="stroke:#000000; stroke-linecap:round; stroke-linejoin:round; stroke-width:2; stroke-opacity:0.1; fill:none" points="225.415,407.866 3152.76,407.866 "/>
<polyline clip-path="url(#clip460)" style="stroke:#000000; stroke-linecap:round; stroke-linejoin:round; stroke-width:4; stroke-opacity:1; fill:none" points="225.415,2204.92 3152.76,2204.92 "/>
<polyline clip-path="url(#clip460)" style="stroke:#000000; stroke-linecap:round; stroke-linejoin:round; stroke-width:4; stroke-opacity:1; fill:none" points="653.47,2204.92 653.47,2186.02 "/>
<polyline clip-path="url(#clip460)" style="stroke:#000000; stroke-linecap:round; stroke-linejoin:round; stroke-width:4; stroke-opacity:1; fill:none" points="1343.88,2204.92 1343.88,2186.02 "/>
<polyline clip-path="url(#clip460)" style="stroke:#000000; stroke-linecap:round; stroke-linejoin:round; stroke-width:4; stroke-opacity:1; fill:none" points="2034.29,2204.92 2034.29,2186.02 "/>
<polyline clip-path="url(#clip460)" style="stroke:#000000; stroke-linecap:round; stroke-linejoin:round; stroke-width:4; stroke-opacity:1; fill:none" points="2724.7,2204.92 2724.7,2186.02 "/>
<path clip-path="url(#clip460)" d="M623.418 2257.54 Q623.418 2250.1 625.295 2246.05 Q627.914 2240.02 634.09 2240.02 Q635.399 2240.02 636.758 2240.4 Q638.141 2240.74 639.87 2242.1 Q641.624 2243.46 642.687 2245.68 Q644.712 2249.98 644.712 2257.54 Q644.712 2264.93 642.835 2268.95 Q640.093 2274.83 634.04 2274.83 Q631.768 2274.83 629.446 2273.67 Q627.148 2272.51 625.691 2269.72 Q623.418 2265.54 623.418 2257.54 M627.618 2256.92 Q627.618 2264.55 628.161 2267.59 Q628.779 2270.88 630.458 2272.31 Q632.163 2273.72 634.04 2273.72 Q636.066 2273.72 637.746 2272.21 Q639.45 2270.68 639.969 2267.4 Q640.537 2264.16 640.513 2256.92 Q640.513 2249.88 640.019 2247.06 Q639.352 2243.78 637.573 2242.47 Q635.819 2241.14 634.04 2241.14 Q633.373 2241.14 632.657 2241.33 Q631.965 2241.53 630.953 2242.1 Q629.94 2242.67 629.149 2244.08 Q628.383 2245.48 628.013 2247.61 Q627.618 2250.35 627.618 2256.92 Z" fill="#000000" fill-rule="nonzero" fill-opacity="1" /><path clip-path="url(#clip460)" d="M651.802 2272.9 Q651.036 2272.09 651.036 2271.03 Q651.036 2269.96 651.802 2269.2 Q652.568 2268.41 653.729 2268.41 Q654.841 2268.41 655.582 2269.15 Q656.348 2269.87 656.348 2271.05 Q656.348 2272.21 655.532 2272.98 Q654.742 2273.72 653.729 2273.72 Q652.568 2273.72 651.802 2272.9 Z" fill="#000000" fill-rule="nonzero" fill-opacity="1" /><path clip-path="url(#clip460)" d="M663.314 2273.72 Q663.314 2272.81 663.388 2272.53 Q663.487 2272.26 663.882 2271.84 L673.591 2261.02 Q678.902 2255.04 678.902 2249.83 Q678.902 2246.45 677.123 2244.03 Q675.369 2241.61 672.133 2241.61 Q669.91 2241.61 668.032 2242.96 Q666.155 2244.32 665.29 2246.74 Q665.438 2246.69 665.957 2246.69 Q667.217 2246.69 667.909 2247.48 Q668.625 2248.28 668.625 2249.34 Q668.625 2250.7 667.736 2251.36 Q666.871 2252.01 666.007 2252.01 Q665.661 2252.01 665.191 2251.93 Q664.747 2251.86 664.03 2251.17 Q663.314 2250.45 663.314 2249.19 Q663.314 2245.66 665.982 2242.84 Q668.675 2240.02 672.775 2240.02 Q677.42 2240.02 680.458 2242.79 Q683.521 2245.53 683.521 2249.83 Q683.521 2251.34 683.052 2252.72 Q682.607 2254.08 681.99 2255.14 Q681.397 2256.21 679.766 2257.91 Q678.136 2259.61 676.827 2260.82 Q675.517 2262.04 672.578 2264.6 L667.217 2269.82 L676.333 2269.82 Q680.779 2269.82 681.125 2269.42 Q681.619 2268.71 682.237 2264.93 L683.521 2264.93 L682.088 2273.72 L663.314 2273.72 Z" fill="#000000" fill-rule="nonzero" fill-opacity="1" /><path clip-path="url(#clip460)" d="M1313.27 2257.54 Q1313.27 2250.1 1315.15 2246.05 Q1317.77 2240.02 1323.94 2240.02 Q1325.25 2240.02 1326.61 2240.4 Q1328 2240.74 1329.73 2242.1 Q1331.48 2243.46 1332.54 2245.68 Q1334.57 2249.98 1334.57 2257.54 Q1334.57 2264.93 1332.69 2268.95 Q1329.95 2274.83 1323.9 2274.83 Q1321.62 2274.83 1319.3 2273.67 Q1317 2272.51 1315.55 2269.72 Q1313.27 2265.54 1313.27 2257.54 M1317.47 2256.92 Q1317.47 2264.55 1318.02 2267.59 Q1318.63 2270.88 1320.31 2272.31 Q1322.02 2273.72 1323.9 2273.72 Q1325.92 2273.72 1327.6 2272.21 Q1329.31 2270.68 1329.82 2267.4 Q1330.39 2264.16 1330.37 2256.92 Q1330.37 2249.88 1329.87 2247.06 Q1329.21 2243.78 1327.43 2242.47 Q1325.67 2241.14 1323.9 2241.14 Q1323.23 2241.14 1322.51 2241.33 Q1321.82 2241.53 1320.81 2242.1 Q1319.79 2242.67 1319 2244.08 Q1318.24 2245.48 1317.87 2247.61 Q1317.47 2250.35 1317.47 2256.92 Z" fill="#000000" fill-rule="nonzero" fill-opacity="1" /><path clip-path="url(#clip460)" d="M1341.66 2272.9 Q1340.89 2272.09 1340.89 2271.03 Q1340.89 2269.96 1341.66 2269.2 Q1342.42 2268.41 1343.58 2268.41 Q1344.7 2268.41 1345.44 2269.15 Q1346.2 2269.87 1346.2 2271.05 Q1346.2 2272.21 1345.39 2272.98 Q1344.6 2273.72 1343.58 2273.72 Q1342.42 2273.72 1341.66 2272.9 Z" fill="#000000" fill-rule="nonzero" fill-opacity="1" /><path clip-path="url(#clip460)" d="M1352.06 2265.37 L1352.06 2263.81 L1367.6 2240.07 Q1367.99 2239.46 1368.61 2239.48 Q1369.18 2239.48 1369.3 2239.7 Q1369.42 2239.93 1369.42 2240.79 L1369.42 2263.81 L1374.49 2263.81 L1374.49 2265.37 L1369.42 2265.37 L1369.42 2269.77 Q1369.42 2271.22 1370.02 2271.69 Q1370.63 2272.16 1373.25 2272.16 L1374.31 2272.16 L1374.31 2273.72 Q1372.24 2273.57 1367.45 2273.57 Q1362.68 2273.57 1360.6 2273.72 L1360.6 2272.16 L1361.67 2272.16 Q1364.29 2272.16 1364.9 2271.72 Q1365.52 2271.25 1365.52 2269.77 L1365.52 2265.37 L1352.06 2265.37 M1353.49 2263.81 L1365.82 2263.81 L1365.82 2244.94 L1353.49 2263.81 Z" fill="#000000" fill-rule="nonzero" fill-opacity="1" /><path clip-path="url(#clip460)" d="M2004.04 2257.54 Q2004.04 2250.1 2005.92 2246.05 Q2008.54 2240.02 2014.71 2240.02 Q2016.02 2240.02 2017.38 2240.4 Q2018.76 2240.74 2020.49 2242.1 Q2022.25 2243.46 2023.31 2245.68 Q2025.34 2249.98 2025.34 2257.54 Q2025.34 2264.93 2023.46 2268.95 Q2020.72 2274.83 2014.66 2274.83 Q2012.39 2274.83 2010.07 2273.67 Q2007.77 2272.51 2006.31 2269.72 Q2004.04 2265.54 2004.04 2257.54 M2008.24 2256.92 Q2008.24 2264.55 2008.78 2267.59 Q2009.4 2270.88 2011.08 2272.31 Q2012.79 2273.72 2014.66 2273.72 Q2016.69 2273.72 2018.37 2272.21 Q2020.07 2270.68 2020.59 2267.4 Q2021.16 2264.16 2021.14 2256.92 Q2021.14 2249.88 2020.64 2247.06 Q2019.98 2243.78 2018.2 2242.47 Q2016.44 2241.14 2014.66 2241.14 Q2014 2241.14 2013.28 2241.33 Q2012.59 2241.53 2011.58 2242.1 Q2010.56 2242.67 2009.77 2244.08 Q2009.01 2245.48 2008.64 2247.61 Q2008.24 2250.35 2008.24 2256.92 Z" fill="#000000" fill-rule="nonzero" fill-opacity="1" /><path clip-path="url(#clip460)" d="M2032.43 2272.9 Q2031.66 2272.09 2031.66 2271.03 Q2031.66 2269.96 2032.43 2269.2 Q2033.19 2268.41 2034.35 2268.41 Q2035.46 2268.41 2036.21 2269.15 Q2036.97 2269.87 2036.97 2271.05 Q2036.97 2272.21 2036.16 2272.98 Q2035.37 2273.72 2034.35 2273.72 Q2033.19 2273.72 2032.43 2272.9 Z" fill="#000000" fill-rule="nonzero" fill-opacity="1" /><path clip-path="url(#clip460)" d="M2043.54 2257.74 Q2043.54 2249.78 2047.59 2244.92 Q2051.64 2240.02 2056.86 2240.02 Q2059.9 2240.02 2061.58 2241.58 Q2063.28 2243.11 2063.28 2245.48 Q2063.28 2246.79 2062.51 2247.36 Q2061.75 2247.93 2060.96 2247.93 Q2060.04 2247.93 2059.33 2247.31 Q2058.61 2246.69 2058.61 2245.58 Q2058.61 2243.31 2061.4 2243.31 Q2060.09 2241.28 2056.96 2241.28 Q2055.99 2241.28 2055 2241.58 Q2054.02 2241.85 2052.73 2242.79 Q2051.45 2243.73 2050.46 2245.21 Q2049.47 2246.69 2048.78 2249.49 Q2048.09 2252.28 2048.09 2255.91 L2048.09 2257.12 Q2050.16 2252.1 2054.41 2252.13 Q2058.66 2252.13 2061.6 2255.37 Q2064.54 2258.6 2064.54 2263.39 Q2064.54 2268.31 2061.48 2271.57 Q2058.41 2274.83 2054.12 2274.83 Q2052.19 2274.83 2050.43 2274.02 Q2048.71 2273.23 2047.07 2271.4 Q2045.47 2269.57 2044.51 2266.06 Q2043.54 2262.55 2043.54 2257.74 M2048.19 2262.28 Q2048.19 2267.25 2049.1 2269.62 Q2049.25 2270.01 2049.57 2270.56 Q2049.92 2271.1 2050.48 2271.82 Q2051.08 2272.51 2052.04 2272.98 Q2053 2273.42 2054.12 2273.42 Q2057.5 2273.42 2059.13 2270.14 Q2059.99 2268.31 2059.99 2263.34 Q2059.99 2258.28 2059.08 2256.43 Q2057.52 2253.29 2054.36 2253.29 Q2052.24 2253.29 2050.76 2254.75 Q2049.3 2256.21 2048.73 2258.16 Q2048.19 2260.11 2048.19 2262.28 Z" fill="#000000" fill-rule="nonzero" fill-opacity="1" /><path clip-path="url(#clip460)" d="M2694.45 2257.54 Q2694.45 2250.1 2696.33 2246.05 Q2698.95 2240.02 2705.12 2240.02 Q2706.43 2240.02 2707.79 2240.4 Q2709.18 2240.74 2710.9 2242.1 Q2712.66 2243.46 2713.72 2245.68 Q2715.75 2249.98 2715.75 2257.54 Q2715.75 2264.93 2713.87 2268.95 Q2711.13 2274.83 2705.07 2274.83 Q2702.8 2274.83 2700.48 2273.67 Q2698.18 2272.51 2696.72 2269.72 Q2694.45 2265.54 2694.45 2257.54 M2698.65 2256.92 Q2698.65 2264.55 2699.2 2267.59 Q2699.81 2270.88 2701.49 2272.31 Q2703.2 2273.72 2705.07 2273.72 Q2707.1 2273.72 2708.78 2272.21 Q2710.48 2270.68 2711 2267.4 Q2711.57 2264.16 2711.55 2256.92 Q2711.55 2249.88 2711.05 2247.06 Q2710.39 2243.78 2708.61 2242.47 Q2706.85 2241.14 2705.07 2241.14 Q2704.41 2241.14 2703.69 2241.33 Q2703 2241.53 2701.99 2242.1 Q2700.97 2242.67 2700.18 2244.08 Q2699.42 2245.48 2699.05 2247.61 Q2698.65 2250.35 2698.65 2256.92 Z" fill="#000000" fill-rule="nonzero" fill-opacity="1" /><path clip-path="url(#clip460)" d="M2722.84 2272.9 Q2722.07 2272.09 2722.07 2271.03 Q2722.07 2269.96 2722.84 2269.2 Q2723.6 2268.41 2724.76 2268.41 Q2725.87 2268.41 2726.62 2269.15 Q2727.38 2269.87 2727.38 2271.05 Q2727.38 2272.21 2726.57 2272.98 Q2725.78 2273.72 2724.76 2273.72 Q2723.6 2273.72 2722.84 2272.9 Z" fill="#000000" fill-rule="nonzero" fill-opacity="1" /><path clip-path="url(#clip460)" d="M2733.95 2266.09 Q2733.95 2260.43 2741.24 2256.77 Q2738.1 2254.65 2737.53 2254.03 Q2735.31 2251.56 2735.31 2248.47 Q2735.31 2244.94 2737.98 2242.49 Q2740.67 2240.02 2744.48 2240.02 Q2748.11 2240.02 2750.85 2242.12 Q2753.59 2244.22 2753.59 2247.56 Q2753.59 2252.25 2747.47 2255.41 Q2751.52 2257.93 2752.48 2259 Q2754.95 2261.74 2754.95 2265.22 Q2754.95 2269.27 2751.84 2272.06 Q2748.73 2274.83 2744.43 2274.83 Q2740.23 2274.83 2737.09 2272.39 Q2733.95 2269.94 2733.95 2266.09 M2736.47 2266.09 Q2736.47 2269.22 2738.82 2271.32 Q2741.19 2273.42 2744.48 2273.42 Q2747.66 2273.42 2750.03 2271.6 Q2752.43 2269.77 2752.43 2267.05 Q2752.43 2265.99 2752.06 2265.07 Q2751.71 2264.16 2751 2263.44 Q2750.31 2262.7 2749.86 2262.38 Q2749.44 2262.04 2748.63 2261.47 L2742.4 2257.54 Q2736.47 2260.82 2736.47 2266.09 M2737.53 2246.5 Q2737.53 2248.92 2740.08 2250.6 L2746.35 2254.65 Q2751.37 2251.71 2751.37 2247.56 Q2751.37 2244.87 2749.32 2243.09 Q2747.27 2241.28 2744.43 2241.28 Q2741.64 2241.28 2739.59 2242.77 Q2737.53 2244.22 2737.53 2246.5 Z" fill="#000000" fill-rule="nonzero" fill-opacity="1" /><path clip-path="url(#clip460)" d="M1422.83 2361.78 L1422.83 2359.64 Q1425.35 2359.64 1426.94 2359.17 Q1428.54 2358.66 1429.12 2357.74 Q1429.7 2356.79 1429.83 2356.18 Q1430 2355.53 1430 2354.48 L1430 2318.17 Q1430 2317.19 1429.73 2316.95 Q1429.49 2316.71 1428.3 2316.57 Q1426.23 2316.44 1424.84 2316.44 L1422.83 2316.44 L1422.83 2314.26 L1434.65 2314.26 Q1435.64 2314.26 1435.91 2314.4 Q1436.18 2314.54 1436.66 2315.18 L1461.22 2351.29 L1461.22 2321.57 Q1461.22 2320.51 1461.08 2319.9 Q1460.95 2319.29 1460.33 2318.34 Q1459.76 2317.39 1458.16 2316.91 Q1456.56 2316.44 1454.05 2316.44 L1454.05 2314.26 Q1461.35 2314.47 1462.17 2314.47 Q1463.02 2314.47 1470.32 2314.26 L1470.32 2316.44 Q1467.81 2316.44 1466.21 2316.91 Q1464.61 2317.39 1464.04 2318.34 Q1463.46 2319.29 1463.29 2319.94 Q1463.15 2320.55 1463.15 2321.57 L1463.15 2359.98 Q1463.15 2361.1 1463.02 2361.44 Q1462.88 2361.78 1462.2 2361.78 Q1461.73 2361.78 1461.01 2360.87 L1432.62 2319.16 Q1432.35 2318.75 1431.94 2318.31 L1431.94 2354.48 Q1431.94 2355.53 1432.07 2356.18 Q1432.21 2356.79 1432.79 2357.74 Q1433.4 2358.66 1434.99 2359.17 Q1436.59 2359.64 1439.1 2359.64 L1439.1 2361.78 Q1431.8 2361.58 1430.95 2361.58 Q1430.14 2361.58 1422.83 2361.78 Z" fill="#000000" fill-rule="nonzero" fill-opacity="1" /><path clip-path="url(#clip460)" d="M1479.22 2358.05 Q1474.63 2353.5 1474.63 2346.91 Q1474.63 2340.28 1479.12 2335.46 Q1483.64 2330.6 1490.09 2330.6 Q1496.41 2330.6 1500.92 2335.43 Q1505.48 2340.21 1505.48 2346.91 Q1505.48 2353.46 1500.89 2358.01 Q1496.34 2362.57 1490.02 2362.57 Q1483.84 2362.57 1479.22 2358.05 M1480.41 2346.33 Q1480.41 2353.09 1482.17 2356.15 Q1484.89 2360.8 1490.09 2360.8 Q1492.67 2360.8 1494.81 2359.41 Q1496.98 2358.01 1498.17 2355.67 Q1499.7 2352.61 1499.7 2346.33 Q1499.7 2339.64 1497.87 2336.68 Q1495.15 2332.16 1490.02 2332.16 Q1487.78 2332.16 1485.57 2333.35 Q1483.4 2334.51 1482.07 2336.82 Q1480.41 2339.88 1480.41 2346.33 Z" fill="#000000" fill-rule="nonzero" fill-opacity="1" /><path clip-path="url(#clip460)" d="M1509.72 2361.78 L1509.72 2359.64 Q1513.42 2359.64 1514.27 2359.2 Q1515.12 2358.73 1515.12 2356.48 L1515.12 2337.84 Q1515.12 2335.26 1514.21 2334.61 Q1513.32 2333.96 1509.72 2333.96 L1509.72 2331.79 L1519.5 2331.04 L1519.5 2338.35 Q1522.77 2331.04 1529.8 2331.04 Q1537.95 2331.04 1539.07 2337.84 Q1540.26 2335.19 1542.74 2333.12 Q1545.25 2331.04 1549.16 2331.04 Q1554.39 2331.04 1556.46 2333.63 Q1557.99 2335.36 1558.3 2337.29 Q1558.6 2339.23 1558.6 2344.26 L1558.6 2357.54 Q1558.67 2359 1559.79 2359.34 Q1560.91 2359.64 1564.04 2359.64 L1564.04 2361.78 Q1556.94 2361.58 1556.26 2361.58 Q1555.71 2361.58 1548.38 2361.78 L1548.38 2359.64 Q1552.08 2359.64 1552.93 2359.2 Q1553.81 2358.73 1553.81 2356.48 L1553.81 2340.28 Q1553.81 2336.75 1552.72 2334.68 Q1551.64 2332.57 1548.65 2332.57 Q1545.05 2332.57 1542.16 2335.6 Q1539.27 2338.62 1539.27 2343.71 L1539.27 2356.48 Q1539.27 2358.73 1540.12 2359.2 Q1541.01 2359.64 1544.71 2359.64 L1544.71 2361.78 Q1537.61 2361.58 1536.9 2361.58 Q1536.35 2361.58 1529.05 2361.78 L1529.05 2359.64 Q1532.75 2359.64 1533.6 2359.2 Q1534.48 2358.73 1534.48 2356.48 L1534.48 2340.28 Q1534.48 2336.75 1533.4 2334.68 Q1532.31 2332.57 1529.32 2332.57 Q1525.72 2332.57 1522.83 2335.6 Q1519.95 2338.62 1519.95 2343.71 L1519.95 2356.48 Q1519.95 2358.73 1520.8 2359.2 Q1521.68 2359.64 1525.35 2359.64 L1525.35 2361.78 Q1518.25 2361.58 1517.57 2361.58 Q1517.03 2361.58 1509.72 2361.78 Z" fill="#000000" fill-rule="nonzero" fill-opacity="1" /><path clip-path="url(#clip460)" d="M1567.7 2361.78 L1567.7 2359.64 Q1571.41 2359.64 1572.26 2359.2 Q1573.1 2358.73 1573.1 2356.48 L1573.1 2337.77 Q1573.1 2335.19 1572.22 2334.58 Q1571.37 2333.96 1567.98 2333.96 L1567.98 2331.79 L1577.69 2331.04 L1577.69 2356.55 Q1577.69 2358.62 1578.44 2359.13 Q1579.18 2359.64 1582.58 2359.64 L1582.58 2361.78 Q1575.48 2361.58 1575.35 2361.58 Q1574.4 2361.58 1567.7 2361.78 M1570.63 2318.92 Q1570.63 2317.52 1571.68 2316.4 Q1572.77 2315.25 1574.29 2315.25 Q1575.82 2315.25 1576.91 2316.3 Q1578 2317.32 1578 2318.95 Q1578 2320.55 1576.91 2321.6 Q1575.82 2322.62 1574.29 2322.62 Q1572.7 2322.62 1571.64 2321.5 Q1570.63 2320.38 1570.63 2318.92 Z" fill="#000000" fill-rule="nonzero" fill-opacity="1" /><path clip-path="url(#clip460)" d="M1586.9 2361.78 L1586.9 2359.64 Q1590.6 2359.64 1591.45 2359.2 Q1592.3 2358.73 1592.3 2356.48 L1592.3 2337.84 Q1592.3 2335.26 1591.38 2334.61 Q1590.5 2333.96 1586.9 2333.96 L1586.9 2331.79 L1596.68 2331.04 L1596.68 2338.35 Q1599.94 2331.04 1606.97 2331.04 Q1612.2 2331.04 1614.27 2333.63 Q1615.8 2335.36 1616.11 2337.29 Q1616.45 2339.23 1616.45 2344.26 L1616.45 2357.54 Q1616.51 2359 1617.64 2359.34 Q1618.76 2359.64 1621.88 2359.64 L1621.88 2361.78 Q1614.78 2361.58 1614.07 2361.58 Q1613.53 2361.58 1606.22 2361.78 L1606.22 2359.64 Q1609.93 2359.64 1610.77 2359.2 Q1611.66 2358.73 1611.66 2356.48 L1611.66 2340.28 Q1611.66 2336.75 1610.57 2334.68 Q1609.48 2332.57 1606.49 2332.57 Q1602.89 2332.57 1600.01 2335.6 Q1597.12 2338.62 1597.12 2343.71 L1597.12 2356.48 Q1597.12 2358.73 1597.97 2359.2 Q1598.85 2359.64 1602.52 2359.64 L1602.52 2361.78 Q1595.42 2361.58 1594.74 2361.58 Q1594.2 2361.58 1586.9 2361.78 Z" fill="#000000" fill-rule="nonzero" fill-opacity="1" /><path clip-path="url(#clip460)" d="M1626.16 2355.16 Q1626.16 2349.25 1633.12 2346.13 Q1637.3 2344.12 1645.93 2343.61 L1645.93 2341.06 Q1645.93 2336.75 1643.65 2334.47 Q1641.41 2332.16 1638.56 2332.16 Q1633.46 2332.16 1631.02 2335.36 Q1633.09 2335.43 1633.84 2336.48 Q1634.59 2337.5 1634.59 2338.55 Q1634.59 2339.94 1633.7 2340.86 Q1632.85 2341.74 1631.39 2341.74 Q1630 2341.74 1629.08 2340.89 Q1628.17 2340.01 1628.17 2338.48 Q1628.17 2335.09 1631.22 2332.84 Q1634.31 2330.6 1638.7 2330.6 Q1644.4 2330.6 1648.21 2334.44 Q1649.39 2335.63 1649.97 2337.16 Q1650.58 2338.69 1650.65 2339.71 Q1650.72 2340.69 1650.72 2342.66 L1650.72 2356.55 Q1650.72 2356.96 1650.86 2357.64 Q1650.99 2358.32 1651.6 2359.2 Q1652.25 2360.05 1653.3 2360.05 Q1655.81 2360.05 1655.78 2355.6 L1655.78 2351.7 L1657.55 2351.7 L1657.55 2355.6 Q1657.55 2359.3 1655.58 2360.76 Q1653.64 2362.19 1651.84 2362.19 Q1649.53 2362.19 1648.07 2360.49 Q1646.61 2358.79 1646.41 2356.48 Q1645.35 2359.13 1642.94 2360.87 Q1640.56 2362.57 1637.3 2362.57 Q1634.79 2362.57 1632.41 2361.92 Q1630.07 2361.31 1628.1 2359.58 Q1626.16 2357.81 1626.16 2355.16 M1631.53 2355.09 Q1631.53 2357.67 1633.36 2359.34 Q1635.2 2361 1637.78 2361 Q1640.7 2361 1643.31 2358.76 Q1645.93 2356.48 1645.93 2352.04 L1645.93 2345.07 Q1638.22 2345.34 1634.86 2348.43 Q1631.53 2351.49 1631.53 2355.09 Z" fill="#000000" fill-rule="nonzero" fill-opacity="1" /><path clip-path="url(#clip460)" d="M1660.33 2361.78 L1660.33 2359.64 Q1664.03 2359.64 1664.88 2359.2 Q1665.73 2358.73 1665.73 2356.48 L1665.73 2320.31 Q1665.73 2317.73 1664.82 2317.08 Q1663.93 2316.44 1660.33 2316.44 L1660.33 2314.26 L1670.32 2313.52 L1670.32 2356.48 Q1670.32 2358.73 1671.2 2359.2 Q1672.08 2359.64 1675.75 2359.64 L1675.75 2361.78 Q1674.9 2361.78 1673.14 2361.72 Q1671.37 2361.65 1670.08 2361.61 Q1668.79 2361.58 1668.04 2361.58 Q1667.23 2361.58 1660.33 2361.78 Z" fill="#000000" fill-rule="nonzero" fill-opacity="1" /><path clip-path="url(#clip460)" d="M1707.21 2357.98 Q1702.79 2353.36 1702.79 2346.77 Q1702.79 2340.15 1707.14 2335.39 Q1711.49 2330.6 1717.87 2330.6 Q1722.12 2330.6 1725.31 2332.64 Q1728.5 2334.64 1728.5 2338.07 Q1728.5 2339.6 1727.59 2340.49 Q1726.7 2341.34 1725.31 2341.34 Q1723.85 2341.34 1722.97 2340.45 Q1722.12 2339.54 1722.12 2338.14 Q1722.12 2337.53 1722.32 2336.92 Q1722.53 2336.31 1723.27 2335.66 Q1724.05 2335.02 1725.38 2334.92 Q1722.9 2332.37 1718.08 2332.37 Q1718.01 2332.37 1717.94 2332.37 Q1714.41 2332.37 1711.49 2335.7 Q1708.57 2339.03 1708.57 2346.63 Q1708.57 2350.61 1709.52 2353.53 Q1710.5 2356.42 1712.1 2357.91 Q1713.69 2359.41 1715.26 2360.12 Q1716.82 2360.8 1718.35 2360.8 Q1725.18 2360.8 1727.49 2353.5 Q1727.69 2352.82 1728.37 2352.82 Q1729.29 2352.82 1729.29 2353.5 Q1729.29 2353.84 1729.01 2354.72 Q1728.74 2355.6 1727.89 2356.99 Q1727.04 2358.39 1725.82 2359.61 Q1724.63 2360.8 1722.49 2361.68 Q1720.39 2362.57 1717.74 2362.57 Q1711.62 2362.57 1707.21 2357.98 Z" fill="#000000" fill-rule="nonzero" fill-opacity="1" /><path clip-path="url(#clip460)" d="M1737.81 2358.05 Q1733.23 2353.5 1733.23 2346.91 Q1733.23 2340.28 1737.71 2335.46 Q1742.23 2330.6 1748.68 2330.6 Q1755 2330.6 1759.52 2335.43 Q1764.07 2340.21 1764.07 2346.91 Q1764.07 2353.46 1759.48 2358.01 Q1754.93 2362.57 1748.61 2362.57 Q1742.43 2362.57 1737.81 2358.05 M1739 2346.33 Q1739 2353.09 1740.77 2356.15 Q1743.48 2360.8 1748.68 2360.8 Q1751.26 2360.8 1753.4 2359.41 Q1755.58 2358.01 1756.76 2355.67 Q1758.29 2352.61 1758.29 2346.33 Q1758.29 2339.64 1756.46 2336.68 Q1753.74 2332.16 1748.61 2332.16 Q1746.37 2332.16 1744.16 2333.35 Q1741.99 2334.51 1740.66 2336.82 Q1739 2339.88 1739 2346.33 Z" fill="#000000" fill-rule="nonzero" fill-opacity="1" /><path clip-path="url(#clip460)" d="M1765.46 2333.96 L1765.46 2331.79 Q1768.59 2331.99 1772.22 2331.99 Q1773.54 2331.99 1779.79 2331.79 L1779.79 2333.96 Q1775.82 2333.96 1775.82 2335.77 Q1775.82 2336.04 1776.23 2336.95 L1784.04 2356.35 L1791.14 2338.62 Q1791.55 2337.43 1791.55 2336.95 Q1791.55 2335.77 1790.73 2334.92 Q1789.95 2334.03 1788.22 2333.96 L1788.22 2331.79 Q1791.75 2331.99 1794.26 2331.99 Q1797.12 2331.99 1799.46 2331.79 L1799.46 2333.96 Q1797.39 2333.96 1795.93 2334.92 Q1794.47 2335.83 1793.99 2336.65 Q1793.55 2337.43 1793.08 2338.62 L1783.97 2361.24 Q1783.43 2362.57 1782.51 2362.57 Q1781.9 2362.57 1781.63 2362.29 Q1781.39 2362.06 1781.05 2361.24 L1771.03 2336.55 Q1770.35 2334.81 1769.47 2334.41 Q1768.59 2333.96 1765.46 2333.96 Z" fill="#000000" fill-rule="nonzero" fill-opacity="1" /><path clip-path="url(#clip460)" d="M1800.79 2346.46 Q1800.79 2339.91 1805 2335.26 Q1809.21 2330.6 1815.26 2330.6 Q1821.37 2330.6 1824.53 2334.58 Q1827.72 2338.55 1827.72 2344.26 Q1827.72 2345.31 1827.45 2345.51 Q1827.18 2345.72 1825.99 2345.72 L1806.56 2345.72 Q1806.56 2352.82 1808.67 2356.15 Q1811.59 2360.8 1816.51 2360.8 Q1817.19 2360.8 1818.01 2360.66 Q1818.82 2360.53 1820.49 2359.95 Q1822.15 2359.34 1823.61 2357.74 Q1825.07 2356.15 1825.92 2353.63 Q1826.13 2352.65 1826.81 2352.68 Q1827.72 2352.68 1827.72 2353.5 Q1827.72 2354.11 1827.04 2355.5 Q1826.4 2356.86 1825.14 2358.49 Q1823.88 2360.12 1821.44 2361.34 Q1819.03 2362.57 1816.11 2362.57 Q1809.99 2362.57 1805.37 2357.95 Q1800.79 2353.29 1800.79 2346.46 M1806.63 2344.26 L1823.14 2344.26 Q1823.14 2342.8 1822.86 2341.17 Q1822.63 2339.54 1821.88 2337.29 Q1821.17 2335.02 1819.47 2333.59 Q1817.77 2332.16 1815.26 2332.16 Q1814.14 2332.16 1812.91 2332.64 Q1811.72 2333.12 1810.26 2334.27 Q1808.8 2335.43 1807.78 2338.04 Q1806.76 2340.66 1806.63 2344.26 Z" fill="#000000" fill-rule="nonzero" fill-opacity="1" /><path clip-path="url(#clip460)" d="M1831.66 2361.78 L1831.66 2359.64 Q1835.36 2359.64 1836.21 2359.2 Q1837.1 2358.73 1837.1 2356.48 L1837.1 2337.84 Q1837.1 2335.26 1836.18 2334.61 Q1835.3 2333.96 1831.66 2333.96 L1831.66 2331.79 L1841.34 2331.04 L1841.34 2338.69 Q1842.33 2335.7 1844.4 2333.39 Q1846.51 2331.04 1849.9 2331.04 Q1852.14 2331.04 1853.57 2332.3 Q1855.03 2333.56 1855.03 2335.29 Q1855.03 2336.82 1854.08 2337.6 Q1853.16 2338.35 1852.04 2338.35 Q1850.79 2338.35 1849.9 2337.57 Q1849.05 2336.75 1849.05 2335.36 Q1849.05 2334.51 1849.43 2333.86 Q1849.83 2333.18 1850.14 2332.95 Q1850.45 2332.71 1850.65 2332.64 Q1850.51 2332.57 1849.9 2332.57 Q1846.06 2332.57 1843.86 2336.41 Q1841.68 2340.21 1841.68 2345.65 L1841.68 2356.35 Q1841.68 2358.35 1842.5 2359 Q1843.35 2359.64 1846.98 2359.64 L1848.44 2359.64 L1848.44 2361.78 Q1845.66 2361.58 1839.61 2361.58 Q1838.76 2361.58 1837.44 2361.61 Q1836.11 2361.65 1834.38 2361.72 Q1832.65 2361.78 1831.66 2361.78 Z" fill="#000000" fill-rule="nonzero" fill-opacity="1" /><path clip-path="url(#clip460)" d="M1859.82 2355.16 Q1859.82 2349.25 1866.78 2346.13 Q1870.96 2344.12 1879.59 2343.61 L1879.59 2341.06 Q1879.59 2336.75 1877.31 2334.47 Q1875.07 2332.16 1872.22 2332.16 Q1867.12 2332.16 1864.68 2335.36 Q1866.75 2335.43 1867.5 2336.48 Q1868.25 2337.5 1868.25 2338.55 Q1868.25 2339.94 1867.36 2340.86 Q1866.51 2341.74 1865.05 2341.74 Q1863.66 2341.74 1862.74 2340.89 Q1861.83 2340.01 1861.83 2338.48 Q1861.83 2335.09 1864.88 2332.84 Q1867.97 2330.6 1872.36 2330.6 Q1878.06 2330.6 1881.87 2334.44 Q1883.05 2335.63 1883.63 2337.16 Q1884.24 2338.69 1884.31 2339.71 Q1884.38 2340.69 1884.38 2342.66 L1884.38 2356.55 Q1884.38 2356.96 1884.52 2357.64 Q1884.65 2358.32 1885.26 2359.2 Q1885.91 2360.05 1886.96 2360.05 Q1889.47 2360.05 1889.44 2355.6 L1889.44 2351.7 L1891.21 2351.7 L1891.21 2355.6 Q1891.21 2359.3 1889.24 2360.76 Q1887.3 2362.19 1885.5 2362.19 Q1883.19 2362.19 1881.73 2360.49 Q1880.27 2358.79 1880.07 2356.48 Q1879.01 2359.13 1876.6 2360.87 Q1874.22 2362.57 1870.96 2362.57 Q1868.45 2362.57 1866.07 2361.92 Q1863.73 2361.31 1861.76 2359.58 Q1859.82 2357.81 1859.82 2355.16 M1865.19 2355.09 Q1865.19 2357.67 1867.02 2359.34 Q1868.86 2361 1871.44 2361 Q1874.36 2361 1876.97 2358.76 Q1879.59 2356.48 1879.59 2352.04 L1879.59 2345.07 Q1871.88 2345.34 1868.52 2348.43 Q1865.19 2351.49 1865.19 2355.09 Z" fill="#000000" fill-rule="nonzero" fill-opacity="1" /><path clip-path="url(#clip460)" d="M1893.62 2367.29 Q1893.62 2365.04 1895.32 2363.11 Q1897.05 2361.17 1900.04 2360.32 Q1896.98 2358.39 1896.98 2354.14 Q1896.98 2350.88 1899.12 2348.37 Q1895.86 2345.65 1895.86 2341.2 Q1895.86 2337.09 1899.12 2334.07 Q1902.38 2331.04 1907.14 2331.04 Q1911.32 2331.04 1914.51 2333.56 Q1917.84 2330.3 1921.88 2330.26 Q1923.68 2330.26 1924.53 2331.38 Q1925.41 2332.5 1925.41 2333.69 Q1925.41 2334.75 1924.73 2335.26 Q1924.09 2335.77 1923.41 2335.77 Q1922.56 2335.77 1921.95 2335.22 Q1921.37 2334.64 1921.37 2333.76 Q1921.37 2332.3 1922.49 2331.86 Q1922.29 2331.79 1921.81 2331.79 Q1918.41 2331.79 1915.53 2334.51 Q1918.38 2337.16 1918.38 2341.27 Q1918.38 2345.38 1915.12 2348.4 Q1911.86 2351.42 1907.14 2351.42 Q1903.23 2351.42 1900.24 2349.25 Q1899.05 2350.64 1899.05 2352.54 Q1899.05 2354.28 1900.11 2355.64 Q1901.16 2356.99 1902.76 2357.2 Q1903.23 2357.27 1907.95 2357.27 Q1910.74 2357.27 1912.27 2357.33 Q1913.79 2357.4 1915.97 2357.88 Q1918.18 2358.32 1919.91 2359.2 Q1924.43 2361.72 1924.46 2367.15 Q1924.46 2371.12 1919.88 2373.6 Q1915.32 2376.12 1909.01 2376.12 Q1902.62 2376.12 1898.1 2373.57 Q1893.62 2371.06 1893.62 2367.29 M1897.25 2367.29 Q1897.25 2370.14 1900.62 2372.31 Q1903.98 2374.52 1909.07 2374.52 Q1914.07 2374.52 1917.43 2372.35 Q1920.83 2370.21 1920.83 2367.29 Q1920.83 2365.21 1919.64 2363.89 Q1918.45 2362.57 1916 2362.02 Q1913.59 2361.51 1911.89 2361.41 Q1910.19 2361.31 1907.07 2361.31 L1902.96 2361.31 Q1900.58 2361.44 1898.92 2363.18 Q1897.25 2364.91 1897.25 2367.29 M1901.06 2341.27 Q1901.06 2349.83 1907.14 2349.83 Q1910.19 2349.83 1912.06 2347.04 Q1913.18 2345.17 1913.18 2341.2 Q1913.18 2332.64 1907.14 2332.64 Q1904.08 2332.64 1902.18 2335.43 Q1901.06 2337.29 1901.06 2341.27 Z" fill="#000000" fill-rule="nonzero" fill-opacity="1" /><path clip-path="url(#clip460)" d="M1928.4 2346.46 Q1928.4 2339.91 1932.61 2335.26 Q1936.82 2330.6 1942.87 2330.6 Q1948.98 2330.6 1952.14 2334.58 Q1955.34 2338.55 1955.34 2344.26 Q1955.34 2345.31 1955.07 2345.51 Q1954.79 2345.72 1953.6 2345.72 L1934.18 2345.72 Q1934.18 2352.82 1936.28 2356.15 Q1939.2 2360.8 1944.13 2360.8 Q1944.81 2360.8 1945.62 2360.66 Q1946.44 2360.53 1948.1 2359.95 Q1949.77 2359.34 1951.23 2357.74 Q1952.69 2356.15 1953.54 2353.63 Q1953.74 2352.65 1954.42 2352.68 Q1955.34 2352.68 1955.34 2353.5 Q1955.34 2354.11 1954.66 2355.5 Q1954.01 2356.86 1952.76 2358.49 Q1951.5 2360.12 1949.05 2361.34 Q1946.64 2362.57 1943.72 2362.57 Q1937.61 2362.57 1932.99 2357.95 Q1928.4 2353.29 1928.4 2346.46 M1934.24 2344.26 L1950.75 2344.26 Q1950.75 2342.8 1950.48 2341.17 Q1950.24 2339.54 1949.49 2337.29 Q1948.78 2335.02 1947.08 2333.59 Q1945.38 2332.16 1942.87 2332.16 Q1941.75 2332.16 1940.53 2332.64 Q1939.34 2333.12 1937.88 2334.27 Q1936.42 2335.43 1935.4 2338.04 Q1934.38 2340.66 1934.24 2344.26 Z" fill="#000000" fill-rule="nonzero" fill-opacity="1" /><polyline clip-path="url(#clip460)" style="stroke:#000000; stroke-linecap:round; stroke-linejoin:round; stroke-width:4; stroke-opacity:1; fill:none" points="225.415,2204.92 225.415,131.032 "/>
<polyline clip-path="url(#clip460)" style="stroke:#000000; stroke-linecap:round; stroke-linejoin:round; stroke-width:4; stroke-opacity:1; fill:none" points="225.415,2152.98 244.313,2152.98 "/>
<polyline clip-path="url(#clip460)" style="stroke:#000000; stroke-linecap:round; stroke-linejoin:round; stroke-width:4; stroke-opacity:1; fill:none" points="225.415,1716.7 244.313,1716.7 "/>
<polyline clip-path="url(#clip460)" style="stroke:#000000; stroke-linecap:round; stroke-linejoin:round; stroke-width:4; stroke-opacity:1; fill:none" points="225.415,1280.42 244.313,1280.42 "/>
<polyline clip-path="url(#clip460)" style="stroke:#000000; stroke-linecap:round; stroke-linejoin:round; stroke-width:4; stroke-opacity:1; fill:none" points="225.415,844.144 244.313,844.144 "/>
<polyline clip-path="url(#clip460)" style="stroke:#000000; stroke-linecap:round; stroke-linejoin:round; stroke-width:4; stroke-opacity:1; fill:none" points="225.415,407.866 244.313,407.866 "/>
<path clip-path="url(#clip460)" d="M116.768 2154.08 Q116.768 2146.64 118.646 2142.59 Q121.264 2136.56 127.44 2136.56 Q128.749 2136.56 130.108 2136.93 Q131.492 2137.28 133.221 2138.64 Q134.975 2140 136.037 2142.22 Q138.063 2146.52 138.063 2154.08 Q138.063 2161.46 136.185 2165.49 Q133.443 2171.37 127.391 2171.37 Q125.118 2171.37 122.796 2170.21 Q120.499 2169.05 119.041 2166.26 Q116.768 2162.08 116.768 2154.08 M120.968 2153.46 Q120.968 2161.09 121.511 2164.13 Q122.129 2167.42 123.809 2168.85 Q125.513 2170.26 127.391 2170.26 Q129.416 2170.26 131.096 2168.75 Q132.801 2167.22 133.32 2163.93 Q133.888 2160.7 133.863 2153.46 Q133.863 2146.42 133.369 2143.6 Q132.702 2140.32 130.923 2139.01 Q129.169 2137.67 127.391 2137.67 Q126.724 2137.67 126.007 2137.87 Q125.316 2138.07 124.303 2138.64 Q123.29 2139.21 122.5 2140.61 Q121.734 2142.02 121.363 2144.15 Q120.968 2146.89 120.968 2153.46 Z" fill="#000000" fill-rule="nonzero" fill-opacity="1" /><path clip-path="url(#clip460)" d="M145.152 2169.44 Q144.387 2168.63 144.387 2167.57 Q144.387 2166.5 145.152 2165.74 Q145.918 2164.95 147.079 2164.95 Q148.191 2164.95 148.932 2165.69 Q149.698 2166.4 149.698 2167.59 Q149.698 2168.75 148.883 2169.52 Q148.092 2170.26 147.079 2170.26 Q145.918 2170.26 145.152 2169.44 Z" fill="#000000" fill-rule="nonzero" fill-opacity="1" /><path clip-path="url(#clip460)" d="M156.121 2154.08 Q156.121 2146.64 157.998 2142.59 Q160.617 2136.56 166.793 2136.56 Q168.102 2136.56 169.461 2136.93 Q170.844 2137.28 172.573 2138.64 Q174.327 2140 175.389 2142.22 Q177.415 2146.52 177.415 2154.08 Q177.415 2161.46 175.538 2165.49 Q172.796 2171.37 166.743 2171.37 Q164.471 2171.37 162.148 2170.21 Q159.851 2169.05 158.393 2166.26 Q156.121 2162.08 156.121 2154.08 M160.32 2153.46 Q160.32 2161.09 160.864 2164.13 Q161.481 2167.42 163.161 2168.85 Q164.866 2170.26 166.743 2170.26 Q168.769 2170.26 170.449 2168.75 Q172.153 2167.22 172.672 2163.93 Q173.24 2160.7 173.216 2153.46 Q173.216 2146.42 172.721 2143.6 Q172.054 2140.32 170.276 2139.01 Q168.522 2137.67 166.743 2137.67 Q166.076 2137.67 165.36 2137.87 Q164.668 2138.07 163.655 2138.64 Q162.642 2139.21 161.852 2140.61 Q161.086 2142.02 160.716 2144.15 Q160.32 2146.89 160.32 2153.46 Z" fill="#000000" fill-rule="nonzero" fill-opacity="1" /><path clip-path="url(#clip460)" d="M117.312 1717.8 Q117.312 1710.36 119.189 1706.31 Q121.808 1700.28 127.984 1700.28 Q129.293 1700.28 130.652 1700.66 Q132.035 1701 133.764 1702.36 Q135.518 1703.72 136.58 1705.94 Q138.606 1710.24 138.606 1717.8 Q138.606 1725.19 136.729 1729.21 Q133.987 1735.09 127.934 1735.09 Q125.662 1735.09 123.339 1733.93 Q121.042 1732.77 119.585 1729.98 Q117.312 1725.8 117.312 1717.8 M121.511 1717.18 Q121.511 1724.82 122.055 1727.85 Q122.672 1731.14 124.352 1732.57 Q126.057 1733.98 127.934 1733.98 Q129.96 1733.98 131.64 1732.47 Q133.344 1730.94 133.863 1727.66 Q134.431 1724.42 134.407 1717.18 Q134.407 1710.14 133.912 1707.33 Q133.245 1704.04 131.467 1702.73 Q129.713 1701.4 127.934 1701.4 Q127.267 1701.4 126.551 1701.59 Q125.859 1701.79 124.846 1702.36 Q123.833 1702.93 123.043 1704.34 Q122.277 1705.74 121.907 1707.87 Q121.511 1710.61 121.511 1717.18 Z" fill="#000000" fill-rule="nonzero" fill-opacity="1" /><path clip-path="url(#clip460)" d="M145.696 1733.17 Q144.93 1732.35 144.93 1731.29 Q144.93 1730.23 145.696 1729.46 Q146.462 1728.67 147.623 1728.67 Q148.734 1728.67 149.476 1729.41 Q150.241 1730.13 150.241 1731.31 Q150.241 1732.47 149.426 1733.24 Q148.636 1733.98 147.623 1733.98 Q146.462 1733.98 145.696 1733.17 Z" fill="#000000" fill-rule="nonzero" fill-opacity="1" /><path clip-path="url(#clip460)" d="M157.208 1733.98 Q157.208 1733.07 157.282 1732.79 Q157.381 1732.52 157.776 1732.1 L167.484 1721.28 Q172.796 1715.3 172.796 1710.09 Q172.796 1706.71 171.017 1704.29 Q169.263 1701.87 166.027 1701.87 Q163.804 1701.87 161.926 1703.22 Q160.049 1704.58 159.184 1707 Q159.332 1706.95 159.851 1706.95 Q161.111 1706.95 161.803 1707.75 Q162.519 1708.54 162.519 1709.6 Q162.519 1710.96 161.63 1711.62 Q160.765 1712.27 159.9 1712.27 Q159.555 1712.27 159.085 1712.19 Q158.641 1712.12 157.924 1711.43 Q157.208 1710.71 157.208 1709.45 Q157.208 1705.92 159.876 1703.1 Q162.568 1700.28 166.669 1700.28 Q171.313 1700.28 174.352 1703.05 Q177.415 1705.79 177.415 1710.09 Q177.415 1711.6 176.946 1712.98 Q176.501 1714.34 175.883 1715.4 Q175.291 1716.47 173.66 1718.17 Q172.03 1719.87 170.72 1721.09 Q169.411 1722.3 166.471 1724.86 L161.111 1730.08 L170.226 1730.08 Q174.673 1730.08 175.019 1729.68 Q175.513 1728.97 176.131 1725.19 L177.415 1725.19 L175.982 1733.98 L157.208 1733.98 Z" fill="#000000" fill-rule="nonzero" fill-opacity="1" /><path clip-path="url(#clip460)" d="M116.2 1281.52 Q116.2 1274.09 118.078 1270.03 Q120.696 1264.01 126.872 1264.01 Q128.181 1264.01 129.54 1264.38 Q130.923 1264.72 132.653 1266.08 Q134.407 1267.44 135.469 1269.66 Q137.494 1273.96 137.494 1281.52 Q137.494 1288.91 135.617 1292.93 Q132.875 1298.81 126.823 1298.81 Q124.55 1298.81 122.228 1297.65 Q119.93 1296.49 118.473 1293.7 Q116.2 1289.53 116.2 1281.52 M120.4 1280.9 Q120.4 1288.54 120.943 1291.58 Q121.561 1294.86 123.241 1296.29 Q124.945 1297.7 126.823 1297.7 Q128.848 1297.7 130.528 1296.2 Q132.233 1294.66 132.751 1291.38 Q133.32 1288.14 133.295 1280.9 Q133.295 1273.86 132.801 1271.05 Q132.134 1267.76 130.355 1266.45 Q128.601 1265.12 126.823 1265.12 Q126.156 1265.12 125.439 1265.32 Q124.748 1265.51 123.735 1266.08 Q122.722 1266.65 121.931 1268.06 Q121.166 1269.47 120.795 1271.59 Q120.4 1274.33 120.4 1280.9 Z" fill="#000000" fill-rule="nonzero" fill-opacity="1" /><path clip-path="url(#clip460)" d="M144.584 1296.89 Q143.819 1296.07 143.819 1295.01 Q143.819 1293.95 144.584 1293.18 Q145.35 1292.39 146.511 1292.39 Q147.623 1292.39 148.364 1293.13 Q149.13 1293.85 149.13 1295.03 Q149.13 1296.2 148.315 1296.96 Q147.524 1297.7 146.511 1297.7 Q145.35 1297.7 144.584 1296.89 Z" fill="#000000" fill-rule="nonzero" fill-opacity="1" /><path clip-path="url(#clip460)" d="M154.984 1289.35 L154.984 1287.8 L170.523 1264.06 Q170.918 1263.44 171.536 1263.46 Q172.104 1263.46 172.227 1263.69 Q172.351 1263.91 172.351 1264.77 L172.351 1287.8 L177.415 1287.8 L177.415 1289.35 L172.351 1289.35 L172.351 1293.75 Q172.351 1295.21 172.944 1295.68 Q173.561 1296.15 176.18 1296.15 L177.242 1296.15 L177.242 1297.7 Q175.167 1297.55 170.375 1297.55 Q165.607 1297.55 163.532 1297.7 L163.532 1296.15 L164.594 1296.15 Q167.213 1296.15 167.83 1295.7 Q168.448 1295.23 168.448 1293.75 L168.448 1289.35 L154.984 1289.35 M156.417 1287.8 L168.744 1287.8 L168.744 1268.92 L156.417 1287.8 Z" fill="#000000" fill-rule="nonzero" fill-opacity="1" /><path clip-path="url(#clip460)" d="M116.917 845.243 Q116.917 837.808 118.794 833.756 Q121.413 827.729 127.588 827.729 Q128.898 827.729 130.256 828.099 Q131.64 828.445 133.369 829.804 Q135.123 831.163 136.185 833.386 Q138.211 837.684 138.211 845.243 Q138.211 852.63 136.333 856.656 Q133.591 862.536 127.539 862.536 Q125.266 862.536 122.944 861.375 Q120.647 860.214 119.189 857.422 Q116.917 853.247 116.917 845.243 M121.116 844.626 Q121.116 852.259 121.66 855.298 Q122.277 858.583 123.957 860.016 Q125.662 861.424 127.539 861.424 Q129.565 861.424 131.245 859.917 Q132.949 858.386 133.468 855.1 Q134.036 851.864 134.011 844.626 Q134.011 837.585 133.517 834.769 Q132.85 831.484 131.072 830.174 Q129.318 828.84 127.539 828.84 Q126.872 828.84 126.156 829.038 Q125.464 829.236 124.451 829.804 Q123.438 830.372 122.648 831.78 Q121.882 833.188 121.511 835.313 Q121.116 838.055 121.116 844.626 Z" fill="#000000" fill-rule="nonzero" fill-opacity="1" /><path clip-path="url(#clip460)" d="M145.301 860.609 Q144.535 859.794 144.535 858.732 Q144.535 857.669 145.301 856.903 Q146.067 856.113 147.228 856.113 Q148.339 856.113 149.08 856.854 Q149.846 857.57 149.846 858.756 Q149.846 859.917 149.031 860.683 Q148.24 861.424 147.228 861.424 Q146.067 861.424 145.301 860.609 Z" fill="#000000" fill-rule="nonzero" fill-opacity="1" /><path clip-path="url(#clip460)" d="M156.417 845.441 Q156.417 837.487 160.469 832.62 Q164.52 827.729 169.732 827.729 Q172.771 827.729 174.451 829.285 Q176.155 830.817 176.155 833.188 Q176.155 834.498 175.389 835.066 Q174.624 835.634 173.833 835.634 Q172.919 835.634 172.203 835.016 Q171.486 834.399 171.486 833.287 Q171.486 831.014 174.278 831.014 Q172.968 828.989 169.831 828.989 Q168.868 828.989 167.88 829.285 Q166.891 829.557 165.607 830.496 Q164.322 831.434 163.334 832.917 Q162.346 834.399 161.654 837.19 Q160.963 839.982 160.963 843.613 L160.963 844.824 Q163.038 839.809 167.287 839.833 Q171.536 839.833 174.475 843.07 Q177.415 846.306 177.415 851.098 Q177.415 856.014 174.352 859.275 Q171.289 862.536 166.99 862.536 Q165.063 862.536 163.309 861.721 Q161.58 860.93 159.95 859.102 Q158.344 857.274 157.381 853.766 Q156.417 850.258 156.417 845.441 M161.061 849.987 Q161.061 854.952 161.975 857.323 Q162.124 857.719 162.445 858.262 Q162.791 858.806 163.359 859.522 Q163.952 860.214 164.915 860.683 Q165.879 861.128 166.99 861.128 Q170.375 861.128 172.005 857.842 Q172.87 856.014 172.87 851.049 Q172.87 845.985 171.956 844.132 Q170.399 840.995 167.237 840.995 Q165.113 840.995 163.631 842.452 Q162.173 843.91 161.605 845.861 Q161.061 847.813 161.061 849.987 Z" fill="#000000" fill-rule="nonzero" fill-opacity="1" /><path clip-path="url(#clip460)" d="M116.917 408.965 Q116.917 401.53 118.794 397.478 Q121.413 391.451 127.588 391.451 Q128.898 391.451 130.256 391.821 Q131.64 392.167 133.369 393.526 Q135.123 394.884 136.185 397.108 Q138.211 401.406 138.211 408.965 Q138.211 416.352 136.333 420.378 Q133.591 426.258 127.539 426.258 Q125.266 426.258 122.944 425.097 Q120.647 423.936 119.189 421.144 Q116.917 416.969 116.917 408.965 M121.116 408.348 Q121.116 415.981 121.66 419.02 Q122.277 422.305 123.957 423.738 Q125.662 425.146 127.539 425.146 Q129.565 425.146 131.245 423.639 Q132.949 422.108 133.468 418.822 Q134.036 415.586 134.011 408.348 Q134.011 401.307 133.517 398.491 Q132.85 395.206 131.072 393.896 Q129.318 392.562 127.539 392.562 Q126.872 392.562 126.156 392.76 Q125.464 392.958 124.451 393.526 Q123.438 394.094 122.648 395.502 Q121.882 396.91 121.511 399.035 Q121.116 401.777 121.116 408.348 Z" fill="#000000" fill-rule="nonzero" fill-opacity="1" /><path clip-path="url(#clip460)" d="M145.301 424.331 Q144.535 423.516 144.535 422.453 Q144.535 421.391 145.301 420.625 Q146.067 419.835 147.228 419.835 Q148.339 419.835 149.08 420.576 Q149.846 421.292 149.846 422.478 Q149.846 423.639 149.031 424.405 Q148.24 425.146 147.228 425.146 Q146.067 425.146 145.301 424.331 Z" fill="#000000" fill-rule="nonzero" fill-opacity="1" /><path clip-path="url(#clip460)" d="M156.417 417.513 Q156.417 411.856 163.705 408.2 Q160.567 406.075 159.999 405.458 Q157.776 402.987 157.776 399.899 Q157.776 396.367 160.444 393.921 Q163.137 391.451 166.941 391.451 Q170.572 391.451 173.314 393.551 Q176.056 395.65 176.056 398.985 Q176.056 403.679 169.93 406.841 Q173.981 409.361 174.945 410.423 Q177.415 413.165 177.415 416.648 Q177.415 420.699 174.302 423.491 Q171.19 426.258 166.891 426.258 Q162.692 426.258 159.555 423.812 Q156.417 421.366 156.417 417.513 M158.937 417.513 Q158.937 420.65 161.284 422.75 Q163.655 424.85 166.941 424.85 Q170.128 424.85 172.499 423.022 Q174.895 421.194 174.895 418.476 Q174.895 417.414 174.525 416.5 Q174.179 415.586 173.463 414.87 Q172.771 414.128 172.326 413.807 Q171.906 413.461 171.091 412.893 L164.866 408.965 Q158.937 412.251 158.937 417.513 M159.999 397.923 Q159.999 400.344 162.544 402.024 L168.818 406.075 Q173.833 403.135 173.833 398.985 Q173.833 396.293 171.783 394.514 Q169.732 392.711 166.891 392.711 Q164.1 392.711 162.05 394.193 Q159.999 395.65 159.999 397.923 Z" fill="#000000" fill-rule="nonzero" fill-opacity="1" /><path clip-path="url(#clip460)" d="M53.9442 1453.05 L51.8042 1453.05 L51.8042 1451.38 Q51.8042 1447.61 51.1928 1446.76 Q50.5474 1445.88 48.5094 1445.88 L12.0627 1445.88 Q10.0586 1445.88 9.44723 1446.76 Q8.80186 1447.64 8.80186 1451.38 L8.80186 1453.05 L6.62796 1453.05 L6.62796 1413.88 L22.2868 1411.94 L22.2868 1413.68 Q18.3126 1414.15 16.0369 1414.8 Q13.7271 1415.41 11.9608 1416.94 Q10.1945 1418.43 9.51517 1420.91 Q8.80186 1423.36 8.80186 1427.33 L8.80186 1436.3 Q8.80186 1438.68 9.31136 1439.19 Q9.7869 1439.7 11.5872 1439.7 L28.265 1439.7 L28.265 1433.45 Q28.265 1428.66 26.6006 1427.3 Q24.9362 1425.94 20.1469 1425.94 L20.1469 1424.17 L38.5571 1424.17 L38.5571 1425.94 Q33.8356 1425.94 32.1373 1427.3 Q30.4389 1428.66 30.4389 1433.45 L30.4389 1439.7 L49.0189 1439.7 Q50.8192 1439.7 51.3287 1439.19 Q51.8042 1438.64 51.8042 1436.3 L51.8042 1427.03 Q51.8042 1424.04 51.4306 1421.86 Q51.023 1419.66 50.0719 1418.13 Q49.0869 1416.6 47.9659 1415.58 Q46.845 1414.53 44.841 1413.81 Q42.8029 1413.07 40.9348 1412.66 Q39.0666 1412.22 36.0095 1411.74 L36.0095 1410.01 L53.9442 1412.93 L53.9442 1453.05 Z" fill="#000000" fill-rule="nonzero" fill-opacity="1" /><path clip-path="url(#clip460)" d="M53.9442 1405.83 L51.8042 1405.83 Q51.8042 1402.13 51.3627 1401.28 Q50.8871 1400.43 48.6453 1400.43 L29.9973 1400.43 Q27.4158 1400.43 26.7705 1401.35 Q26.1251 1402.23 26.1251 1405.83 L23.9512 1405.83 L23.2039 1396.05 L30.5068 1396.05 Q23.2039 1392.79 23.2039 1385.76 Q23.2039 1377.6 29.9973 1376.48 Q27.3479 1375.29 25.2759 1372.81 Q23.2039 1370.3 23.2039 1366.39 Q23.2039 1361.16 25.7854 1359.09 Q27.5177 1357.56 29.4539 1357.26 Q31.39 1356.95 36.4171 1356.95 L49.6983 1356.95 Q51.1589 1356.88 51.4985 1355.76 Q51.8042 1354.64 51.8042 1351.52 L53.9442 1351.52 Q53.7404 1358.62 53.7404 1359.3 Q53.7404 1359.84 53.9442 1367.18 L51.8042 1367.18 Q51.8042 1363.47 51.3627 1362.62 Q50.8871 1361.74 48.6453 1361.74 L32.443 1361.74 Q28.9104 1361.74 26.8384 1362.83 Q24.7324 1363.92 24.7324 1366.9 Q24.7324 1370.5 27.7555 1373.39 Q30.7786 1376.28 35.8736 1376.28 L48.6453 1376.28 Q50.8871 1376.28 51.3627 1375.43 Q51.8042 1374.55 51.8042 1370.84 L53.9442 1370.84 Q53.7404 1377.94 53.7404 1378.66 Q53.7404 1379.2 53.9442 1386.5 L51.8042 1386.5 Q51.8042 1382.8 51.3627 1381.95 Q50.8871 1381.07 48.6453 1381.07 L32.443 1381.07 Q28.9104 1381.07 26.8384 1382.16 Q24.7324 1383.24 24.7324 1386.23 Q24.7324 1389.83 27.7555 1392.72 Q30.7786 1395.61 35.8736 1395.61 L48.6453 1395.61 Q50.8871 1395.61 51.3627 1394.76 Q51.8042 1393.87 51.8042 1390.21 L53.9442 1390.21 Q53.7404 1397.3 53.7404 1397.98 Q53.7404 1398.53 53.9442 1405.83 Z" fill="#000000" fill-rule="nonzero" fill-opacity="1" /><path clip-path="url(#clip460)" d="M65.2892 1348.22 Q65.2892 1344.52 64.8136 1343.67 Q64.3721 1342.79 62.1642 1342.79 L29.5897 1342.79 Q27.28 1342.79 26.7025 1343.67 Q26.1251 1344.52 26.1251 1348.22 L23.9512 1348.22 L23.2039 1338.2 L27.7895 1338.2 Q23.2039 1334.02 23.2039 1328.45 Q23.2039 1322.54 27.7895 1318.23 Q32.375 1313.92 38.9307 1313.92 Q45.5543 1313.92 50.1398 1318.5 Q54.7254 1323.09 54.7254 1329.44 Q54.7254 1332.9 52.9591 1335.25 Q51.1589 1337.56 49.8341 1338 L50.4795 1338 L62.1642 1338 Q64.406 1338 64.8476 1337.12 Q65.2892 1336.23 65.2892 1332.56 L67.4291 1332.56 Q67.2253 1339.87 67.2253 1340.41 Q67.2253 1341.09 67.4291 1348.22 L65.2892 1348.22 M46.0298 1338 Q47.0828 1338 47.4564 1337.86 Q47.8301 1337.69 48.951 1337.01 Q53.1629 1334.26 53.1629 1329.78 Q53.1629 1329.74 53.1629 1329.71 Q53.1629 1325.74 49.1208 1322.71 Q45.0448 1319.69 38.9307 1319.69 Q33.0883 1319.69 29.0123 1322.44 Q24.9362 1325.19 24.9362 1329 Q24.9362 1331.71 26.3968 1334.09 Q27.8574 1336.47 30.5068 1338 L46.0298 1338 Z" fill="#000000" fill-rule="nonzero" fill-opacity="1" /><path clip-path="url(#clip460)" d="M53.9442 1309.26 L51.8042 1309.26 Q51.8042 1305.56 51.3627 1304.71 Q50.8871 1303.86 48.6453 1303.86 L29.9294 1303.86 Q27.3479 1303.86 26.7365 1304.74 Q26.1251 1305.59 26.1251 1308.99 L23.9512 1308.99 L23.2039 1299.28 L48.7132 1299.28 Q50.7852 1299.28 51.2947 1298.53 Q51.8042 1297.78 51.8042 1294.38 L53.9442 1294.38 Q53.7404 1301.48 53.7404 1301.62 Q53.7404 1302.57 53.9442 1309.26 M11.0777 1306.34 Q9.685 1306.34 8.56409 1305.29 Q7.4092 1304.2 7.4092 1302.67 Q7.4092 1301.14 8.46218 1300.06 Q9.4812 1298.97 11.1116 1298.97 Q12.7081 1298.97 13.7611 1300.06 Q14.7801 1301.14 14.7801 1302.67 Q14.7801 1304.27 13.6592 1305.32 Q12.5382 1306.34 11.0777 1306.34 Z" fill="#000000" fill-rule="nonzero" fill-opacity="1" /><path clip-path="url(#clip460)" d="M53.9442 1290.38 L51.8042 1290.38 Q51.8042 1286.67 51.3627 1285.82 Q50.8871 1284.94 48.6453 1284.94 L29.9973 1284.94 Q27.4158 1284.94 26.7705 1285.86 Q26.1251 1286.74 26.1251 1290.38 L23.9512 1290.38 L23.2039 1280.7 L30.8465 1280.7 Q27.8574 1279.71 25.5476 1277.64 Q23.2039 1275.53 23.2039 1272.14 Q23.2039 1269.89 24.4607 1268.47 Q25.7175 1267.01 27.4498 1267.01 Q28.9783 1267.01 29.7596 1267.96 Q30.5068 1268.88 30.5068 1270 Q30.5068 1271.25 29.7256 1272.14 Q28.9104 1272.99 27.5177 1272.99 Q26.6686 1272.99 26.0232 1272.61 Q25.3438 1272.2 25.1061 1271.9 Q24.8683 1271.59 24.8004 1271.39 Q24.7324 1271.52 24.7324 1272.14 Q24.7324 1275.97 28.5707 1278.18 Q32.375 1280.36 37.8098 1280.36 L48.5094 1280.36 Q50.5135 1280.36 51.1589 1279.54 Q51.8042 1278.69 51.8042 1275.06 L51.8042 1273.6 L53.9442 1273.6 Q53.7404 1276.38 53.7404 1282.43 Q53.7404 1283.28 53.7743 1284.6 Q53.8083 1285.93 53.8762 1287.66 Q53.9442 1289.39 53.9442 1290.38 Z" fill="#000000" fill-rule="nonzero" fill-opacity="1" /><path clip-path="url(#clip460)" d="M53.9442 1262.83 L51.8042 1262.83 Q51.8042 1259.13 51.3627 1258.28 Q50.8871 1257.43 48.6453 1257.43 L29.9294 1257.43 Q27.3479 1257.43 26.7365 1258.31 Q26.1251 1259.16 26.1251 1262.56 L23.9512 1262.56 L23.2039 1252.84 L48.7132 1252.84 Q50.7852 1252.84 51.2947 1252.1 Q51.8042 1251.35 51.8042 1247.95 L53.9442 1247.95 Q53.7404 1255.05 53.7404 1255.19 Q53.7404 1256.14 53.9442 1262.83 M11.0777 1259.91 Q9.685 1259.91 8.56409 1258.86 Q7.4092 1257.77 7.4092 1256.24 Q7.4092 1254.71 8.46218 1253.62 Q9.4812 1252.54 11.1116 1252.54 Q12.7081 1252.54 13.7611 1253.62 Q14.7801 1254.71 14.7801 1256.24 Q14.7801 1257.84 13.6592 1258.89 Q12.5382 1259.91 11.0777 1259.91 Z" fill="#000000" fill-rule="nonzero" fill-opacity="1" /><path clip-path="url(#clip460)" d="M50.1398 1239.09 Q45.5203 1243.5 38.9307 1243.5 Q32.3071 1243.5 27.5517 1239.15 Q22.7623 1234.81 22.7623 1228.42 Q22.7623 1224.17 24.8004 1220.98 Q26.8044 1217.79 30.2351 1217.79 Q31.7636 1217.79 32.6468 1218.71 Q33.496 1219.59 33.496 1220.98 Q33.496 1222.44 32.6128 1223.33 Q31.6957 1224.17 30.303 1224.17 Q29.6916 1224.17 29.0802 1223.97 Q28.4688 1223.77 27.8234 1223.02 Q27.1781 1222.24 27.0762 1220.91 Q24.5286 1223.39 24.5286 1228.22 Q24.5286 1228.28 24.5286 1228.35 Q24.5286 1231.89 27.8574 1234.81 Q31.1862 1237.73 38.7948 1237.73 Q42.769 1237.73 45.6901 1236.78 Q48.5774 1235.79 50.0719 1234.19 Q51.5665 1232.6 52.2798 1231.04 Q52.9591 1229.47 52.9591 1227.94 Q52.9591 1221.12 45.6562 1218.81 Q44.9768 1218.6 44.9768 1217.92 Q44.9768 1217.01 45.6562 1217.01 Q45.9959 1217.01 46.879 1217.28 Q47.7621 1217.55 49.1548 1218.4 Q50.5474 1219.25 51.7703 1220.47 Q52.9591 1221.66 53.8423 1223.8 Q54.7254 1225.91 54.7254 1228.56 Q54.7254 1234.67 50.1398 1239.09 Z" fill="#000000" fill-rule="nonzero" fill-opacity="1" /><path clip-path="url(#clip460)" d="M47.3206 1212.08 Q41.4103 1212.08 38.2853 1205.12 Q36.2813 1200.94 35.7717 1192.31 L33.2242 1192.31 Q28.9104 1192.31 26.6346 1194.59 Q24.3248 1196.83 24.3248 1199.68 Q24.3248 1204.78 27.5177 1207.22 Q27.5857 1205.15 28.6387 1204.41 Q29.6577 1203.66 30.7106 1203.66 Q32.1033 1203.66 33.0204 1204.54 Q33.9036 1205.39 33.9036 1206.85 Q33.9036 1208.24 33.0544 1209.16 Q32.1712 1210.08 30.6427 1210.08 Q27.246 1210.08 25.0042 1207.02 Q22.7623 1203.93 22.7623 1199.55 Q22.7623 1193.84 26.6006 1190.04 Q27.7895 1188.85 29.318 1188.27 Q30.8465 1187.66 31.8655 1187.59 Q32.8506 1187.52 34.8207 1187.52 L48.7132 1187.52 Q49.1208 1187.52 49.8002 1187.39 Q50.4795 1187.25 51.3627 1186.64 Q52.2118 1186 52.2118 1184.94 Q52.2118 1182.43 47.7621 1182.46 L43.8559 1182.46 L43.8559 1180.7 L47.7621 1180.7 Q51.4646 1180.7 52.9251 1182.67 Q54.3518 1184.6 54.3518 1186.4 Q54.3518 1188.71 52.6534 1190.17 Q50.9551 1191.63 48.6453 1191.84 Q51.2947 1192.89 53.027 1195.3 Q54.7254 1197.68 54.7254 1200.94 Q54.7254 1203.45 54.08 1205.83 Q53.4686 1208.18 51.7363 1210.15 Q49.97 1212.08 47.3206 1212.08 M47.2526 1206.72 Q49.8341 1206.72 51.4985 1204.88 Q53.1629 1203.05 53.1629 1200.47 Q53.1629 1197.54 50.9211 1194.93 Q48.6453 1192.31 44.1956 1192.31 L37.2323 1192.31 Q37.5041 1200.02 40.5951 1203.39 Q43.6521 1206.72 47.2526 1206.72 Z" fill="#000000" fill-rule="nonzero" fill-opacity="1" /><path clip-path="url(#clip460)" d="M53.9442 1177.91 L51.8042 1177.91 Q51.8042 1174.21 51.3627 1173.36 Q50.8871 1172.51 48.6453 1172.51 L12.4703 1172.51 Q9.8888 1172.51 9.24343 1173.43 Q8.59805 1174.31 8.59805 1177.91 L6.42416 1177.91 L5.67688 1167.93 L48.6453 1167.93 Q50.8871 1167.93 51.3627 1167.04 Q51.8042 1166.16 51.8042 1162.49 L53.9442 1162.49 Q53.9442 1163.34 53.8762 1165.11 Q53.8083 1166.87 53.7743 1168.16 Q53.7404 1169.45 53.7404 1170.2 Q53.7404 1171.02 53.9442 1177.91 Z" fill="#000000" fill-rule="nonzero" fill-opacity="1" /><path clip-path="url(#clip460)" d="M50.1398 1131.04 Q45.5203 1135.45 38.9307 1135.45 Q32.3071 1135.45 27.5517 1131.1 Q22.7623 1126.76 22.7623 1120.37 Q22.7623 1116.13 24.8004 1112.93 Q26.8044 1109.74 30.2351 1109.74 Q31.7636 1109.74 32.6468 1110.66 Q33.496 1111.54 33.496 1112.93 Q33.496 1114.39 32.6128 1115.28 Q31.6957 1116.13 30.303 1116.13 Q29.6916 1116.13 29.0802 1115.92 Q28.4688 1115.72 27.8234 1114.97 Q27.1781 1114.19 27.0762 1112.86 Q24.5286 1115.34 24.5286 1120.17 Q24.5286 1120.24 24.5286 1120.3 Q24.5286 1123.84 27.8574 1126.76 Q31.1862 1129.68 38.7948 1129.68 Q42.769 1129.68 45.6901 1128.73 Q48.5774 1127.74 50.0719 1126.15 Q51.5665 1124.55 52.2798 1122.99 Q52.9591 1121.42 52.9591 1119.9 Q52.9591 1113.07 45.6562 1110.76 Q44.9768 1110.55 44.9768 1109.88 Q44.9768 1108.96 45.6562 1108.96 Q45.9959 1108.96 46.879 1109.23 Q47.7621 1109.5 49.1548 1110.35 Q50.5474 1111.2 51.7703 1112.42 Q52.9591 1113.61 53.8423 1115.75 Q54.7254 1117.86 54.7254 1120.51 Q54.7254 1126.62 50.1398 1131.04 Z" fill="#000000" fill-rule="nonzero" fill-opacity="1" /><path clip-path="url(#clip460)" d="M50.2078 1100.43 Q45.6562 1105.02 39.0666 1105.02 Q32.443 1105.02 27.6196 1100.53 Q22.7623 1096.02 22.7623 1089.56 Q22.7623 1083.25 27.5857 1078.73 Q32.375 1074.18 39.0666 1074.18 Q45.6222 1074.18 50.1738 1078.76 Q54.7254 1083.31 54.7254 1089.63 Q54.7254 1095.81 50.2078 1100.43 M38.4891 1099.24 Q45.2486 1099.24 48.3056 1097.48 Q52.9591 1094.76 52.9591 1089.56 Q52.9591 1086.98 51.5665 1084.84 Q50.1738 1082.67 47.8301 1081.48 Q44.773 1079.95 38.4891 1079.95 Q31.7976 1079.95 28.8425 1081.78 Q24.3248 1084.5 24.3248 1089.63 Q24.3248 1091.87 25.5137 1094.08 Q26.6686 1096.25 28.9783 1097.58 Q32.0354 1099.24 38.4891 1099.24 Z" fill="#000000" fill-rule="nonzero" fill-opacity="1" /><path clip-path="url(#clip460)" d="M26.1251 1072.78 L23.9512 1072.78 Q24.155 1069.66 24.155 1066.02 Q24.155 1064.7 23.9512 1058.45 L26.1251 1058.45 Q26.1251 1062.42 27.9253 1062.42 Q28.1971 1062.42 29.1142 1062.02 L48.5094 1054.2 L30.7786 1047.1 Q29.5897 1046.7 29.1142 1046.7 Q27.9253 1046.7 27.0762 1047.51 Q26.193 1048.29 26.1251 1050.03 L23.9512 1050.03 Q24.155 1046.49 24.155 1043.98 Q24.155 1041.13 23.9512 1038.78 L26.1251 1038.78 Q26.1251 1040.85 27.0762 1042.31 Q27.9933 1043.78 28.8085 1044.25 Q29.5897 1044.69 30.7786 1045.17 L53.4007 1054.27 Q54.7254 1054.81 54.7254 1055.73 Q54.7254 1056.34 54.4537 1056.61 Q54.2159 1056.85 53.4007 1057.19 L28.7066 1067.21 Q26.9743 1067.89 26.5667 1068.78 Q26.1251 1069.66 26.1251 1072.78 Z" fill="#000000" fill-rule="nonzero" fill-opacity="1" /><path clip-path="url(#clip460)" d="M38.625 1037.46 Q32.0693 1037.46 27.4158 1033.25 Q22.7623 1029.03 22.7623 1022.99 Q22.7623 1016.87 26.7365 1013.71 Q30.7106 1010.52 36.4171 1010.52 Q37.4701 1010.52 37.6739 1010.79 Q37.8777 1011.06 37.8777 1012.25 L37.8777 1031.68 Q44.9768 1031.68 48.3056 1029.58 Q52.9591 1026.66 52.9591 1021.73 Q52.9591 1021.05 52.8232 1020.24 Q52.6874 1019.42 52.1099 1017.76 Q51.4985 1016.09 49.9021 1014.63 Q48.3056 1013.17 45.792 1012.32 Q44.807 1012.12 44.841 1011.44 Q44.841 1010.52 45.6562 1010.52 Q46.2676 1010.52 47.6602 1011.2 Q49.0189 1011.85 50.6493 1013.1 Q52.2798 1014.36 53.5026 1016.81 Q54.7254 1019.22 54.7254 1022.14 Q54.7254 1028.25 50.1059 1032.87 Q45.4524 1037.46 38.625 1037.46 M36.4171 1031.61 L36.4171 1015.11 Q34.9565 1015.11 33.3261 1015.38 Q31.6957 1015.62 29.4539 1016.36 Q27.1781 1017.08 25.7514 1018.78 Q24.3248 1020.47 24.3248 1022.99 Q24.3248 1024.11 24.8004 1025.33 Q25.2759 1026.52 26.4308 1027.98 Q27.5857 1029.44 30.2011 1030.46 Q32.8166 1031.48 36.4171 1031.61 Z" fill="#000000" fill-rule="nonzero" fill-opacity="1" /><path clip-path="url(#clip460)" d="M53.9442 1006.58 L51.8042 1006.58 Q51.8042 1002.88 51.3627 1002.03 Q50.8871 1001.15 48.6453 1001.15 L29.9973 1001.15 Q27.4158 1001.15 26.7705 1002.06 Q26.1251 1002.95 26.1251 1006.58 L23.9512 1006.58 L23.2039 996.901 L30.8465 996.901 Q27.8574 995.916 25.5476 993.844 Q23.2039 991.738 23.2039 988.341 Q23.2039 986.099 24.4607 984.672 Q25.7175 983.212 27.4498 983.212 Q28.9783 983.212 29.7596 984.163 Q30.5068 985.08 30.5068 986.201 Q30.5068 987.458 29.7256 988.341 Q28.9104 989.19 27.5177 989.19 Q26.6686 989.19 26.0232 988.816 Q25.3438 988.409 25.1061 988.103 Q24.8683 987.797 24.8004 987.594 Q24.7324 987.729 24.7324 988.341 Q24.7324 992.179 28.5707 994.387 Q32.375 996.561 37.8098 996.561 L48.5094 996.561 Q50.5135 996.561 51.1589 995.746 Q51.8042 994.897 51.8042 991.262 L51.8042 989.801 L53.9442 989.801 Q53.7404 992.587 53.7404 998.633 Q53.7404 999.482 53.7743 1000.81 Q53.8083 1002.13 53.8762 1003.86 Q53.9442 1005.6 53.9442 1006.58 Z" fill="#000000" fill-rule="nonzero" fill-opacity="1" /><path clip-path="url(#clip460)" d="M47.3206 978.422 Q41.4103 978.422 38.2853 971.459 Q36.2813 967.281 35.7717 958.654 L33.2242 958.654 Q28.9104 958.654 26.6346 960.929 Q24.3248 963.171 24.3248 966.024 Q24.3248 971.12 27.5177 973.565 Q27.5857 971.493 28.6387 970.746 Q29.6577 969.999 30.7106 969.999 Q32.1033 969.999 33.0204 970.882 Q33.9036 971.731 33.9036 973.192 Q33.9036 974.584 33.0544 975.501 Q32.1712 976.418 30.6427 976.418 Q27.246 976.418 25.0042 973.361 Q22.7623 970.27 22.7623 965.889 Q22.7623 960.182 26.6006 956.378 Q27.7895 955.189 29.318 954.612 Q30.8465 954 31.8655 953.932 Q32.8506 953.864 34.8207 953.864 L48.7132 953.864 Q49.1208 953.864 49.8002 953.728 Q50.4795 953.593 51.3627 952.981 Q52.2118 952.336 52.2118 951.283 Q52.2118 948.769 47.7621 948.803 L43.8559 948.803 L43.8559 947.037 L47.7621 947.037 Q51.4646 947.037 52.9251 949.007 Q54.3518 950.943 54.3518 952.743 Q54.3518 955.053 52.6534 956.514 Q50.9551 957.974 48.6453 958.178 Q51.2947 959.231 53.027 961.643 Q54.7254 964.02 54.7254 967.281 Q54.7254 969.795 54.08 972.173 Q53.4686 974.516 51.7363 976.486 Q49.97 978.422 47.3206 978.422 M47.2526 973.056 Q49.8341 973.056 51.4985 971.221 Q53.1629 969.387 53.1629 966.806 Q53.1629 963.885 50.9211 961.269 Q48.6453 958.654 44.1956 958.654 L37.2323 958.654 Q37.5041 966.364 40.5951 969.727 Q43.6521 973.056 47.2526 973.056 Z" fill="#000000" fill-rule="nonzero" fill-opacity="1" /><path clip-path="url(#clip460)" d="M59.4468 944.625 Q57.205 944.625 55.2689 942.927 Q53.3327 941.195 52.4836 938.205 Q50.5474 941.262 46.3016 941.262 Q43.0407 941.262 40.5271 939.123 Q37.8098 942.383 33.3601 942.383 Q29.2501 942.383 26.227 939.123 Q23.2039 935.862 23.2039 931.106 Q23.2039 926.928 25.7175 923.735 Q22.4566 920.407 22.4227 916.365 Q22.4227 914.564 23.5436 913.715 Q24.6645 912.832 25.8533 912.832 Q26.9063 912.832 27.4158 913.511 Q27.9253 914.157 27.9253 914.836 Q27.9253 915.685 27.3819 916.297 Q26.8044 916.874 25.9213 916.874 Q24.4607 916.874 24.0191 915.753 Q23.9512 915.957 23.9512 916.432 Q23.9512 919.829 26.6686 922.716 Q29.318 919.863 33.428 919.863 Q37.538 919.863 40.5611 923.124 Q43.5842 926.385 43.5842 931.106 Q43.5842 935.012 41.4103 938.002 Q42.8029 939.19 44.7051 939.19 Q46.4374 939.19 47.7961 938.137 Q49.1548 937.084 49.3586 935.488 Q49.4265 935.012 49.4265 930.291 Q49.4265 927.506 49.4945 925.977 Q49.5624 924.449 50.0379 922.275 Q50.4795 920.067 51.3627 918.335 Q53.8762 913.817 59.311 913.783 Q63.2851 913.783 65.7647 918.369 Q68.2783 922.92 68.2783 929.238 Q68.2783 935.624 65.7307 940.142 Q63.2172 944.625 59.4468 944.625 M59.4468 940.991 Q62.3001 940.991 64.474 937.628 Q66.6818 934.265 66.6818 929.17 Q66.6818 924.177 64.5079 920.814 Q62.368 917.418 59.4468 917.418 Q57.3748 917.418 56.0501 918.606 Q54.7254 919.795 54.1819 922.241 Q53.6724 924.653 53.5705 926.351 Q53.4686 928.049 53.4686 931.174 L53.4686 935.284 Q53.6045 937.662 55.3368 939.326 Q57.0691 940.991 59.4468 940.991 M33.428 937.186 Q41.9877 937.186 41.9877 931.106 Q41.9877 928.049 39.2024 926.181 Q37.3342 925.06 33.3601 925.06 Q24.8004 925.06 24.8004 931.106 Q24.8004 934.163 27.5857 936.065 Q29.4539 937.186 33.428 937.186 Z" fill="#000000" fill-rule="nonzero" fill-opacity="1" /><path clip-path="url(#clip460)" d="M38.625 909.843 Q32.0693 909.843 27.4158 905.631 Q22.7623 901.419 22.7623 895.373 Q22.7623 889.259 26.7365 886.1 Q30.7106 882.907 36.4171 882.907 Q37.4701 882.907 37.6739 883.179 Q37.8777 883.45 37.8777 884.639 L37.8777 904.068 Q44.9768 904.068 48.3056 901.962 Q52.9591 899.041 52.9591 894.116 Q52.9591 893.437 52.8232 892.622 Q52.6874 891.806 52.1099 890.142 Q51.4985 888.478 49.9021 887.017 Q48.3056 885.556 45.792 884.707 Q44.807 884.503 44.841 883.824 Q44.841 882.907 45.6562 882.907 Q46.2676 882.907 47.6602 883.586 Q49.0189 884.232 50.6493 885.488 Q52.2798 886.745 53.5026 889.191 Q54.7254 891.603 54.7254 894.524 Q54.7254 900.638 50.1059 905.257 Q45.4524 909.843 38.625 909.843 M36.4171 904.001 L36.4171 887.492 Q34.9565 887.492 33.3261 887.764 Q31.6957 888.002 29.4539 888.749 Q27.1781 889.463 25.7514 891.161 Q24.3248 892.859 24.3248 895.373 Q24.3248 896.494 24.8004 897.717 Q25.2759 898.905 26.4308 900.366 Q27.5857 901.827 30.2011 902.846 Q32.8166 903.865 36.4171 904.001 Z" fill="#000000" fill-rule="nonzero" fill-opacity="1" /><path clip-path="url(#clip460)" d="M1369.59 42.3144 Q1369.59 28.956 1378.71 19.5749 Q1387.83 10.1506 1400.37 10.1506 Q1404.26 10.1506 1407.72 11.5772 Q1411.18 13.0038 1412.78 14.2575 Q1414.37 15.468 1416.67 17.7592 L1421.12 11.2314 Q1421.81 10.1506 1422.5 10.1506 Q1423.24 10.1506 1423.37 10.5829 Q1423.5 10.972 1423.5 12.2689 L1423.5 33.2791 Q1423.5 34.7057 1423.32 35.0516 Q1423.15 35.3974 1422.07 35.3974 Q1421.21 35.3974 1420.99 35.1381 Q1420.82 34.8787 1420.64 33.8844 Q1419.3 24.3303 1413.99 18.6239 Q1408.71 12.9174 1401.36 12.9174 Q1399.24 12.9174 1396.87 13.3929 Q1394.53 13.8685 1391.12 15.6842 Q1387.74 17.4999 1385.11 20.526 Q1382.51 23.509 1380.61 29.2154 Q1378.71 34.8787 1378.71 42.4008 Q1378.71 49.8366 1380.61 55.543 Q1382.51 61.2495 1385.11 64.2324 Q1387.74 67.1721 1391.12 68.9878 Q1394.53 70.8035 1396.91 71.3223 Q1399.33 71.7978 1401.45 71.7978 Q1409.06 71.7978 1414.89 66.394 Q1420.73 60.9901 1421.29 51.8684 Q1421.38 51.4361 1421.38 51.2632 Q1421.38 51.047 1421.46 50.8309 Q1421.55 50.6147 1421.77 50.5283 Q1421.98 50.4418 1422.33 50.4418 Q1423.5 50.4418 1423.5 51.9549 Q1423.5 60.3849 1417.01 67.4748 Q1410.57 74.5214 1400.37 74.5214 Q1387.79 74.5214 1378.67 65.1835 Q1369.59 55.8456 1369.59 42.3144 Z" fill="#000000" fill-rule="nonzero" fill-opacity="1" /><path clip-path="url(#clip460)" d="M1436.81 67.8206 Q1430.98 62.0277 1430.98 53.6409 Q1430.98 45.2109 1436.68 39.0721 Q1442.43 32.8901 1450.65 32.8901 Q1458.69 32.8901 1464.44 39.0288 Q1470.23 45.1244 1470.23 53.6409 Q1470.23 61.9844 1464.39 67.7774 Q1458.6 73.5703 1450.56 73.5703 Q1442.69 73.5703 1436.81 67.8206 M1438.32 52.9059 Q1438.32 61.5089 1440.57 65.3997 Q1444.03 71.3223 1450.65 71.3223 Q1453.93 71.3223 1456.65 69.5498 Q1459.42 67.7774 1460.93 64.7944 Q1462.88 60.9037 1462.88 52.9059 Q1462.88 44.3895 1460.55 40.6284 Q1457.09 34.8787 1450.56 34.8787 Q1447.71 34.8787 1444.9 36.3918 Q1442.13 37.8616 1440.44 40.8013 Q1438.32 44.6921 1438.32 52.9059 Z" fill="#000000" fill-rule="nonzero" fill-opacity="1" /><path clip-path="url(#clip460)" d="M1472 37.1699 L1472 34.4031 Q1475.98 34.6625 1480.6 34.6625 Q1482.29 34.6625 1490.25 34.4031 L1490.25 37.1699 Q1485.19 37.1699 1485.19 39.4611 Q1485.19 39.807 1485.71 40.9742 L1495.65 65.6591 L1504.68 43.0925 Q1505.2 41.5795 1505.2 40.9742 Q1505.2 39.4611 1504.17 38.3804 Q1503.17 37.2564 1500.97 37.1699 L1500.97 34.4031 Q1505.46 34.6625 1508.66 34.6625 Q1512.29 34.6625 1515.28 34.4031 L1515.28 37.1699 Q1512.64 37.1699 1510.78 38.3804 Q1508.92 39.5476 1508.32 40.5851 Q1507.75 41.5795 1507.15 43.0925 L1495.56 71.8843 Q1494.87 73.5703 1493.7 73.5703 Q1492.93 73.5703 1492.58 73.2245 Q1492.28 72.9218 1491.84 71.8843 L1479.09 40.4555 Q1478.23 38.2507 1477.1 37.7319 Q1475.98 37.1699 1472 37.1699 Z" fill="#000000" fill-rule="nonzero" fill-opacity="1" /><path clip-path="url(#clip460)" d="M1516.96 53.0789 Q1516.96 44.7353 1522.32 38.8127 Q1527.68 32.8901 1535.38 32.8901 Q1543.16 32.8901 1547.18 37.9481 Q1551.24 43.0061 1551.24 50.2689 Q1551.24 51.609 1550.9 51.8684 Q1550.55 52.1278 1549.04 52.1278 L1524.31 52.1278 Q1524.31 61.163 1526.99 65.3997 Q1530.71 71.3223 1536.98 71.3223 Q1537.84 71.3223 1538.88 71.1494 Q1539.92 70.9765 1542.04 70.2415 Q1544.15 69.4634 1546.01 67.4315 Q1547.87 65.3997 1548.95 62.2006 Q1549.21 60.9469 1550.08 60.9901 Q1551.24 60.9901 1551.24 62.0277 Q1551.24 62.8058 1550.38 64.5783 Q1549.56 66.3075 1547.96 68.3826 Q1546.36 70.4577 1543.25 72.014 Q1540.18 73.5703 1536.46 73.5703 Q1528.68 73.5703 1522.8 67.6909 Q1516.96 61.7683 1516.96 53.0789 M1524.4 50.2689 L1545.41 50.2689 Q1545.41 48.4099 1545.06 46.3349 Q1544.76 44.2598 1543.81 41.4065 Q1542.9 38.5101 1540.74 36.6944 Q1538.58 34.8787 1535.38 34.8787 Q1533.95 34.8787 1532.4 35.4839 Q1530.88 36.0891 1529.02 37.559 Q1527.16 39.0288 1525.87 42.3576 Q1524.57 45.6864 1524.4 50.2689 Z" fill="#000000" fill-rule="nonzero" fill-opacity="1" /><path clip-path="url(#clip460)" d="M1556.26 72.576 L1556.26 69.8525 Q1560.97 69.8525 1562.05 69.2905 Q1563.18 68.6852 1563.18 65.832 L1563.18 42.0982 Q1563.18 38.8127 1562.01 37.9913 Q1560.88 37.1699 1556.26 37.1699 L1556.26 34.4031 L1568.58 33.4521 L1568.58 43.179 Q1569.83 39.3747 1572.47 36.435 Q1575.15 33.4521 1579.47 33.4521 Q1582.33 33.4521 1584.14 35.0516 Q1586 36.6511 1586 38.8559 Q1586 40.8013 1584.79 41.7956 Q1583.62 42.7467 1582.2 42.7467 Q1580.6 42.7467 1579.47 41.7524 Q1578.39 40.7148 1578.39 38.9424 Q1578.39 37.8616 1578.87 37.0402 Q1579.39 36.1756 1579.78 35.873 Q1580.17 35.5704 1580.42 35.4839 Q1580.25 35.3974 1579.47 35.3974 Q1574.59 35.3974 1571.78 40.2825 Q1569.01 45.1244 1569.01 52.0413 L1569.01 65.6591 Q1569.01 68.2097 1570.05 69.0311 Q1571.13 69.8525 1575.76 69.8525 L1577.61 69.8525 L1577.61 72.576 Q1574.07 72.3166 1566.37 72.3166 Q1565.29 72.3166 1563.61 72.3598 Q1561.92 72.4031 1559.72 72.4895 Q1557.51 72.576 1556.26 72.576 Z" fill="#000000" fill-rule="nonzero" fill-opacity="1" /><path clip-path="url(#clip460)" d="M1592.1 64.146 Q1592.1 56.6238 1600.96 52.6466 Q1606.28 50.0959 1617.26 49.4475 L1617.26 46.2052 Q1617.26 40.7148 1614.36 37.8184 Q1611.51 34.8787 1607.88 34.8787 Q1601.39 34.8787 1598.28 38.9424 Q1600.92 39.0288 1601.87 40.369 Q1602.82 41.6659 1602.82 43.0061 Q1602.82 44.7785 1601.69 45.9458 Q1600.61 47.0698 1598.75 47.0698 Q1596.98 47.0698 1595.81 45.989 Q1594.65 44.865 1594.65 42.9196 Q1594.65 38.5965 1598.54 35.7433 Q1602.47 32.8901 1608.05 32.8901 Q1615.31 32.8901 1620.15 37.7751 Q1621.67 39.2882 1622.4 41.2336 Q1623.18 43.179 1623.27 44.4759 Q1623.35 45.7296 1623.35 48.237 L1623.35 65.9184 Q1623.35 66.4372 1623.53 67.3018 Q1623.7 68.1665 1624.48 69.2905 Q1625.3 70.3712 1626.64 70.3712 Q1629.84 70.3712 1629.79 64.708 L1629.79 59.7364 L1632.04 59.7364 L1632.04 64.708 Q1632.04 69.4201 1629.53 71.2791 Q1627.07 73.0948 1624.78 73.0948 Q1621.84 73.0948 1619.98 70.9332 Q1618.12 68.7717 1617.86 65.832 Q1616.52 69.204 1613.45 71.4088 Q1610.43 73.5703 1606.28 73.5703 Q1603.08 73.5703 1600.05 72.7489 Q1597.07 71.9708 1594.56 69.766 Q1592.1 67.518 1592.1 64.146 M1598.93 64.0595 Q1598.93 67.3451 1601.26 69.4634 Q1603.6 71.5817 1606.88 71.5817 Q1610.6 71.5817 1613.93 68.7285 Q1617.26 65.832 1617.26 60.1687 L1617.26 51.3064 Q1607.44 51.6523 1603.16 55.5863 Q1598.93 59.477 1598.93 64.0595 Z" fill="#000000" fill-rule="nonzero" fill-opacity="1" /><path clip-path="url(#clip460)" d="M1635.11 79.5794 Q1635.11 76.7262 1637.27 74.262 Q1639.48 71.7978 1643.28 70.7171 Q1639.39 68.2529 1639.39 62.8491 Q1639.39 58.6989 1642.12 55.4998 Q1637.96 52.0413 1637.96 46.3781 Q1637.96 41.1472 1642.12 37.2996 Q1646.27 33.4521 1652.32 33.4521 Q1657.64 33.4521 1661.7 36.6511 Q1665.94 32.501 1671.08 32.4577 Q1673.37 32.4577 1674.45 33.8844 Q1675.58 35.311 1675.58 36.8241 Q1675.58 38.1642 1674.71 38.8127 Q1673.89 39.4611 1673.03 39.4611 Q1671.94 39.4611 1671.17 38.7695 Q1670.43 38.0345 1670.43 36.9105 Q1670.43 35.0516 1671.86 34.4896 Q1671.6 34.4031 1670.99 34.4031 Q1666.67 34.4031 1663 37.8616 Q1666.63 41.2336 1666.63 46.4645 Q1666.63 51.6955 1662.48 55.543 Q1658.33 59.3906 1652.32 59.3906 Q1647.35 59.3906 1643.54 56.6238 Q1642.03 58.3963 1642.03 60.8172 Q1642.03 63.022 1643.37 64.7512 Q1644.71 66.4804 1646.74 66.7398 Q1647.35 66.8263 1653.36 66.8263 Q1656.9 66.8263 1658.85 66.9128 Q1660.79 66.9992 1663.56 67.6044 Q1666.37 68.1665 1668.57 69.2905 Q1674.32 72.4895 1674.37 79.4065 Q1674.37 84.4645 1668.53 87.6203 Q1662.74 90.8194 1654.7 90.8194 Q1646.57 90.8194 1640.82 87.5771 Q1635.11 84.378 1635.11 79.5794 M1639.74 79.5794 Q1639.74 83.2108 1644.02 85.9776 Q1648.3 88.7876 1654.78 88.7876 Q1661.14 88.7876 1665.42 86.0208 Q1669.74 83.2973 1669.74 79.5794 Q1669.74 76.9423 1668.23 75.2563 Q1666.71 73.5703 1663.6 72.8786 Q1660.53 72.2302 1658.37 72.1005 Q1656.21 71.9708 1652.23 71.9708 L1647 71.9708 Q1643.97 72.1437 1641.86 74.3485 Q1639.74 76.5532 1639.74 79.5794 M1644.58 46.4645 Q1644.58 57.3587 1652.32 57.3587 Q1656.21 57.3587 1658.59 53.8138 Q1660.01 51.4361 1660.01 46.3781 Q1660.01 35.4839 1652.32 35.4839 Q1648.43 35.4839 1646.01 39.0288 Q1644.58 41.4065 1644.58 46.4645 Z" fill="#000000" fill-rule="nonzero" fill-opacity="1" /><path clip-path="url(#clip460)" d="M1679.38 53.0789 Q1679.38 44.7353 1684.74 38.8127 Q1690.1 32.8901 1697.8 32.8901 Q1705.58 32.8901 1709.6 37.9481 Q1713.66 43.0061 1713.66 50.2689 Q1713.66 51.609 1713.32 51.8684 Q1712.97 52.1278 1711.46 52.1278 L1686.73 52.1278 Q1686.73 61.163 1689.41 65.3997 Q1693.13 71.3223 1699.4 71.3223 Q1700.26 71.3223 1701.3 71.1494 Q1702.34 70.9765 1704.45 70.2415 Q1706.57 69.4634 1708.43 67.4315 Q1710.29 65.3997 1711.37 62.2006 Q1711.63 60.9469 1712.5 60.9901 Q1713.66 60.9901 1713.66 62.0277 Q1713.66 62.8058 1712.8 64.5783 Q1711.98 66.3075 1710.38 68.3826 Q1708.78 70.4577 1705.66 72.014 Q1702.6 73.5703 1698.88 73.5703 Q1691.1 73.5703 1685.22 67.6909 Q1679.38 61.7683 1679.38 53.0789 M1686.82 50.2689 L1707.83 50.2689 Q1707.83 48.4099 1707.48 46.3349 Q1707.18 44.2598 1706.23 41.4065 Q1705.32 38.5101 1703.16 36.6944 Q1701 34.8787 1697.8 34.8787 Q1696.37 34.8787 1694.81 35.4839 Q1693.3 36.0891 1691.44 37.559 Q1689.58 39.0288 1688.29 42.3576 Q1686.99 45.6864 1686.82 50.2689 Z" fill="#000000" fill-rule="nonzero" fill-opacity="1" /><path clip-path="url(#clip460)" d="M1750.62 42.3144 Q1750.62 28.956 1759.75 19.5749 Q1768.87 10.1506 1781.41 10.1506 Q1785.3 10.1506 1788.75 11.5772 Q1792.21 13.0038 1793.81 14.2575 Q1795.41 15.468 1797.7 17.7592 L1802.16 11.2314 Q1802.85 10.1506 1803.54 10.1506 Q1804.27 10.1506 1804.4 10.5829 Q1804.53 10.972 1804.53 12.2689 L1804.53 33.2791 Q1804.53 34.7057 1804.36 35.0516 Q1804.19 35.3974 1803.11 35.3974 Q1802.24 35.3974 1802.03 35.1381 Q1801.85 34.8787 1801.68 33.8844 Q1800.34 24.3303 1795.02 18.6239 Q1789.75 12.9174 1782.4 12.9174 Q1780.28 12.9174 1777.9 13.3929 Q1775.57 13.8685 1772.15 15.6842 Q1768.78 17.4999 1766.14 20.526 Q1763.55 23.509 1761.65 29.2154 Q1759.75 34.8787 1759.75 42.4008 Q1759.75 49.8366 1761.65 55.543 Q1763.55 61.2495 1766.14 64.2324 Q1768.78 67.1721 1772.15 68.9878 Q1775.57 70.8035 1777.95 71.3223 Q1780.37 71.7978 1782.49 71.7978 Q1790.09 71.7978 1795.93 66.394 Q1801.77 60.9901 1802.33 51.8684 Q1802.42 51.4361 1802.42 51.2632 Q1802.42 51.047 1802.5 50.8309 Q1802.59 50.6147 1802.8 50.5283 Q1803.02 50.4418 1803.37 50.4418 Q1804.53 50.4418 1804.53 51.9549 Q1804.53 60.3849 1798.05 67.4748 Q1791.61 74.5214 1781.41 74.5214 Q1768.82 74.5214 1759.7 65.1835 Q1750.62 55.8456 1750.62 42.3144 Z" fill="#000000" fill-rule="nonzero" fill-opacity="1" /><path clip-path="url(#clip460)" d="M1812.4 37.1699 L1812.4 34.4031 L1825.41 33.4521 L1825.41 62.8491 Q1825.41 64.9674 1825.59 66.2211 Q1825.76 67.4315 1826.45 68.8581 Q1827.19 70.2848 1828.83 70.9332 Q1830.52 71.5817 1833.2 71.5817 Q1837.99 71.5817 1840.93 67.6477 Q1843.92 63.7137 1843.92 57.8775 L1843.92 42.0982 Q1843.92 38.8127 1842.75 37.9913 Q1841.58 37.1699 1837 37.1699 L1837 34.4031 L1850.01 33.4521 L1850.01 64.8809 Q1850.01 68.1665 1851.14 69.0311 Q1852.3 69.8525 1856.93 69.8525 L1856.93 72.576 L1844.18 73.5703 L1844.18 65.5726 Q1840.46 73.5271 1832.76 73.5703 Q1828.87 73.5703 1826.19 72.576 Q1823.56 71.5817 1822.21 70.3712 Q1820.87 69.1175 1820.14 66.7398 Q1819.45 64.3621 1819.36 62.8923 Q1819.28 61.4224 1819.28 58.5692 L1819.28 45.2973 Q1819.28 39.2882 1818.41 38.2507 Q1817.55 37.1699 1812.4 37.1699 Z" fill="#000000" fill-rule="nonzero" fill-opacity="1" /><path clip-path="url(#clip460)" d="M1861.12 72.576 L1861.12 69.8525 Q1865.83 69.8525 1866.92 69.2905 Q1868.04 68.6852 1868.04 65.832 L1868.04 42.0982 Q1868.04 38.8127 1866.87 37.9913 Q1865.75 37.1699 1861.12 37.1699 L1861.12 34.4031 L1873.44 33.4521 L1873.44 43.179 Q1874.7 39.3747 1877.33 36.435 Q1880.01 33.4521 1884.34 33.4521 Q1887.19 33.4521 1889.01 35.0516 Q1890.87 36.6511 1890.87 38.8559 Q1890.87 40.8013 1889.66 41.7956 Q1888.49 42.7467 1887.06 42.7467 Q1885.46 42.7467 1884.34 41.7524 Q1883.26 40.7148 1883.26 38.9424 Q1883.26 37.8616 1883.73 37.0402 Q1884.25 36.1756 1884.64 35.873 Q1885.03 35.5704 1885.29 35.4839 Q1885.12 35.3974 1884.34 35.3974 Q1879.45 35.3974 1876.64 40.2825 Q1873.88 45.1244 1873.88 52.0413 L1873.88 65.6591 Q1873.88 68.2097 1874.91 69.0311 Q1875.99 69.8525 1880.62 69.8525 L1882.48 69.8525 L1882.48 72.576 Q1878.93 72.3166 1871.24 72.3166 Q1870.16 72.3166 1868.47 72.3598 Q1866.79 72.4031 1864.58 72.4895 Q1862.38 72.576 1861.12 72.576 Z" fill="#000000" fill-rule="nonzero" fill-opacity="1" /><path clip-path="url(#clip460)" d="M1894.93 37.1699 L1894.93 34.4031 Q1898.91 34.6625 1903.53 34.6625 Q1905.22 34.6625 1913.17 34.4031 L1913.17 37.1699 Q1908.11 37.1699 1908.11 39.4611 Q1908.11 39.807 1908.63 40.9742 L1918.58 65.6591 L1927.61 43.0925 Q1928.13 41.5795 1928.13 40.9742 Q1928.13 39.4611 1927.09 38.3804 Q1926.1 37.2564 1923.89 37.1699 L1923.89 34.4031 Q1928.39 34.6625 1931.59 34.6625 Q1935.22 34.6625 1938.2 34.4031 L1938.2 37.1699 Q1935.57 37.1699 1933.71 38.3804 Q1931.85 39.5476 1931.24 40.5851 Q1930.68 41.5795 1930.08 43.0925 L1918.49 71.8843 Q1917.8 73.5703 1916.63 73.5703 Q1915.85 73.5703 1915.51 73.2245 Q1915.2 72.9218 1914.77 71.8843 L1902.02 40.4555 Q1901.15 38.2507 1900.03 37.7319 Q1898.91 37.1699 1894.93 37.1699 Z" fill="#000000" fill-rule="nonzero" fill-opacity="1" /><path clip-path="url(#clip460)" d="M1939.89 53.0789 Q1939.89 44.7353 1945.25 38.8127 Q1950.61 32.8901 1958.31 32.8901 Q1966.09 32.8901 1970.11 37.9481 Q1974.17 43.0061 1974.17 50.2689 Q1974.17 51.609 1973.83 51.8684 Q1973.48 52.1278 1971.97 52.1278 L1947.24 52.1278 Q1947.24 61.163 1949.92 65.3997 Q1953.64 71.3223 1959.91 71.3223 Q1960.77 71.3223 1961.81 71.1494 Q1962.85 70.9765 1964.96 70.2415 Q1967.08 69.4634 1968.94 67.4315 Q1970.8 65.3997 1971.88 62.2006 Q1972.14 60.9469 1973 60.9901 Q1974.17 60.9901 1974.17 62.0277 Q1974.17 62.8058 1973.31 64.5783 Q1972.49 66.3075 1970.89 68.3826 Q1969.29 70.4577 1966.17 72.014 Q1963.1 73.5703 1959.39 73.5703 Q1951.61 73.5703 1945.73 67.6909 Q1939.89 61.7683 1939.89 53.0789 M1947.33 50.2689 L1968.34 50.2689 Q1968.34 48.4099 1967.99 46.3349 Q1967.69 44.2598 1966.74 41.4065 Q1965.83 38.5101 1963.67 36.6944 Q1961.5 34.8787 1958.31 34.8787 Q1956.88 34.8787 1955.32 35.4839 Q1953.81 36.0891 1951.95 37.559 Q1950.09 39.0288 1948.8 42.3576 Q1947.5 45.6864 1947.33 50.2689 Z" fill="#000000" fill-rule="nonzero" fill-opacity="1" /><path clip-path="url(#clip460)" d="M1979.66 71.4088 L1979.66 59.7364 Q1979.66 58.7421 1979.71 58.3963 Q1979.75 58.0504 1980.01 57.791 Q1980.27 57.5317 1980.79 57.5317 Q1981.39 57.5317 1981.61 57.791 Q1981.87 58.0504 1982.04 59.0447 Q1983.38 65.1403 1986.23 68.3826 Q1989.13 71.5817 1994.36 71.5817 Q1999.33 71.5817 2001.84 69.3769 Q2004.35 67.1721 2004.35 63.5407 Q2004.35 57.0561 1995.14 55.4133 Q1989.82 54.3326 1987.62 53.6409 Q1985.41 52.9059 1983.47 51.3064 Q1979.66 48.1938 1979.66 43.7842 Q1979.66 39.3747 1982.99 36.1324 Q1986.36 32.8901 1993.8 32.8901 Q1998.77 32.8901 2002.14 35.3974 Q2003.14 34.6193 2003.65 33.9708 Q2004.82 32.8901 2005.43 32.8901 Q2006.12 32.8901 2006.25 33.3656 Q2006.38 33.7979 2006.38 35.0516 L2006.38 43.9572 Q2006.38 44.9515 2006.34 45.2973 Q2006.29 45.6432 2006.03 45.9025 Q2005.77 46.1187 2005.21 46.1187 Q2004.22 46.1187 2004.17 45.2973 Q2003.48 34.5761 1993.8 34.5761 Q1988.57 34.5761 1986.23 36.6079 Q1983.9 38.5965 1983.9 41.3201 Q1983.9 42.8332 1984.59 44.0004 Q1985.33 45.1244 1986.23 45.8161 Q1987.18 46.4645 1988.91 47.113 Q1990.64 47.7182 1991.68 47.9344 Q1992.76 48.1506 1994.79 48.5829 Q2001.88 49.923 2004.87 52.8195 Q2008.58 56.5373 2008.58 61.2495 Q2008.58 66.4804 2005.04 70.0254 Q2001.49 73.5703 1994.36 73.5703 Q1988.61 73.5703 1984.59 69.7228 Q1984.07 70.2415 1983.68 70.7171 Q1983.29 71.1494 1983.12 71.3223 Q1982.99 71.4952 1982.95 71.6249 Q1982.9 71.7114 1982.82 71.7978 Q1981.05 73.5703 1980.61 73.5703 Q1979.92 73.5703 1979.79 73.0948 Q1979.66 72.6625 1979.66 71.4088 Z" fill="#000000" fill-rule="nonzero" fill-opacity="1" /><polyline clip-path="url(#clip462)" style="stroke:#009af9; stroke-linecap:round; stroke-linejoin:round; stroke-width:4; stroke-opacity:1; fill:none" points="308.264,2146.22 653.47,2146.22 998.675,2146.22 1343.88,2146.22 1689.09,2146.22 2034.29,2146.22 2379.5,2146.22 2724.7,2146.22 3069.91,2146.22 "/>
<polyline clip-path="url(#clip462)" style="stroke:#e26f46; stroke-linecap:round; stroke-linejoin:round; stroke-width:4; stroke-opacity:1; fill:none" points="308.264,2146.22 653.47,2146.22 998.675,2146.22 1343.88,2146.22 1689.09,2146.22 2034.29,2146.22 2379.5,2146.22 2724.7,2146.22 3069.91,2146.22 "/>
<polyline clip-path="url(#clip462)" style="stroke:#000000; stroke-linecap:round; stroke-linejoin:round; stroke-width:4; stroke-opacity:1; fill:none" stroke-dasharray="16, 10" points="308.264,1934.84 653.47,1716.7 998.675,1498.56 1343.88,1280.42 1689.09,1062.28 2034.29,844.144 2379.5,626.005 2724.7,407.866 3069.91,189.727 "/>
<path clip-path="url(#clip460)" d="M322.993 407.522 L920.888 407.522 L920.888 200.162 L322.993 200.162  Z" fill="#ffffff" fill-rule="evenodd" fill-opacity="1"/>
<polyline clip-path="url(#clip460)" style="stroke:#000000; stroke-linecap:round; stroke-linejoin:round; stroke-width:4; stroke-opacity:1; fill:none" points="322.993,407.522 920.888,407.522 920.888,200.162 322.993,200.162 322.993,407.522 "/>
<polyline clip-path="url(#clip460)" style="stroke:#009af9; stroke-linecap:round; stroke-linejoin:round; stroke-width:4; stroke-opacity:1; fill:none" points="355.519,252.002 550.675,252.002 "/>
<path clip-path="url(#clip460)" d="M583.201 269.282 L583.201 267.725 L584.412 267.725 Q587.154 267.725 587.771 267.281 Q588.414 266.811 588.414 265.329 L588.414 238.674 Q588.414 237.217 587.771 236.772 Q587.129 236.303 584.412 236.303 L583.201 236.303 L583.201 234.722 L601.704 234.722 Q606.521 234.722 609.733 237.316 Q612.944 239.885 612.944 243.269 Q612.944 246.061 610.573 248.284 Q608.226 250.507 604.545 251.224 Q608.744 251.668 611.511 254.213 Q614.303 256.732 614.303 260.018 Q614.303 263.723 611.116 266.515 Q607.929 269.282 603.038 269.282 L583.201 269.282 M592.613 265.7 Q592.613 267.009 592.984 267.38 Q593.354 267.725 595.083 267.725 L601.408 267.725 Q605.039 267.725 607.139 265.354 Q609.239 262.958 609.239 259.969 Q609.239 256.979 607.386 254.435 Q605.558 251.866 602.124 251.866 L592.613 251.866 L592.613 265.7 M592.613 250.754 L599.95 250.754 Q603.853 250.754 605.928 248.407 Q608.028 246.061 608.028 243.269 Q608.028 240.799 606.348 238.551 Q604.693 236.303 601.358 236.303 L595.083 236.303 Q593.354 236.303 592.984 236.649 Q592.613 236.994 592.613 238.328 L592.613 250.754 Z" fill="#000000" fill-rule="nonzero" fill-opacity="1" /><path clip-path="url(#clip460)" d="M618.848 269.282 L618.848 267.725 Q620.676 267.725 621.837 267.38 Q622.998 267.009 623.418 266.342 Q623.838 265.65 623.937 265.206 Q624.061 264.736 624.061 263.97 L624.061 237.563 Q624.061 236.846 623.863 236.673 Q623.69 236.5 622.825 236.402 Q621.318 236.303 620.306 236.303 L618.848 236.303 L618.848 234.722 L627.445 234.722 Q628.161 234.722 628.359 234.821 Q628.557 234.919 628.902 235.389 L646.763 261.648 L646.763 240.033 Q646.763 239.267 646.664 238.822 Q646.565 238.378 646.121 237.686 Q645.701 236.994 644.54 236.649 Q643.379 236.303 641.551 236.303 L641.551 234.722 Q646.862 234.87 647.455 234.87 Q648.072 234.87 653.383 234.722 L653.383 236.303 Q651.555 236.303 650.394 236.649 Q649.233 236.994 648.813 237.686 Q648.393 238.378 648.27 238.847 Q648.171 239.292 648.171 240.033 L648.171 267.972 Q648.171 268.788 648.072 269.035 Q647.973 269.282 647.479 269.282 Q647.133 269.282 646.615 268.615 L625.963 238.279 Q625.765 237.983 625.469 237.661 L625.469 263.97 Q625.469 264.736 625.567 265.206 Q625.666 265.65 626.086 266.342 Q626.531 267.009 627.692 267.38 Q628.853 267.725 630.681 267.725 L630.681 269.282 Q625.37 269.133 624.752 269.133 Q624.159 269.133 618.848 269.282 Z" fill="#000000" fill-rule="nonzero" fill-opacity="1" /><path clip-path="url(#clip460)" d="M656.792 269.282 L656.792 267.725 Q658.621 267.725 659.782 267.38 Q660.943 267.009 661.363 266.342 Q661.783 265.65 661.881 265.206 Q662.005 264.736 662.005 263.97 L662.005 237.563 Q662.005 236.846 661.807 236.673 Q661.634 236.5 660.77 236.402 Q659.263 236.303 658.25 236.303 L656.792 236.303 L656.792 234.722 L665.389 234.722 Q666.106 234.722 666.303 234.821 Q666.501 234.919 666.847 235.389 L684.707 261.648 L684.707 240.033 Q684.707 239.267 684.608 238.822 Q684.51 238.378 684.065 237.686 Q683.645 236.994 682.484 236.649 Q681.323 236.303 679.495 236.303 L679.495 234.722 Q684.806 234.87 685.399 234.87 Q686.017 234.87 691.328 234.722 L691.328 236.303 Q689.5 236.303 688.339 236.649 Q687.178 236.994 686.758 237.686 Q686.338 238.378 686.214 238.847 Q686.115 239.292 686.115 240.033 L686.115 267.972 Q686.115 268.788 686.017 269.035 Q685.918 269.282 685.424 269.282 Q685.078 269.282 684.559 268.615 L663.907 238.279 Q663.709 237.983 663.413 237.661 L663.413 263.97 Q663.413 264.736 663.512 265.206 Q663.611 265.65 664.031 266.342 Q664.475 267.009 665.636 267.38 Q666.797 267.725 668.625 267.725 L668.625 269.282 Q663.314 269.133 662.697 269.133 Q662.104 269.133 656.792 269.282 Z" fill="#000000" fill-rule="nonzero" fill-opacity="1" /><path clip-path="url(#clip460)" d="M693.551 259.87 L693.551 256.881 L707.014 256.881 L707.014 259.87 L693.551 259.87 Z" fill="#000000" fill-rule="nonzero" fill-opacity="1" /><path clip-path="url(#clip460)" d="M712.721 252.138 Q712.721 244.405 717.662 239.02 Q722.627 233.61 729.519 233.61 Q736.461 233.61 741.401 239.02 Q746.367 244.43 746.367 252.138 Q746.367 259.771 741.401 265.082 Q736.436 270.393 729.519 270.393 Q722.701 270.393 717.711 265.107 Q712.721 259.82 712.721 252.138 M717.933 251.421 Q717.933 256.115 719.045 259.722 Q720.157 263.304 721.935 265.255 Q723.739 267.207 725.665 268.145 Q727.592 269.084 729.569 269.084 Q731.495 269.084 733.373 268.17 Q735.275 267.256 737.078 265.329 Q738.882 263.402 740.018 259.796 Q741.154 256.189 741.154 251.421 Q741.154 247.716 740.364 244.751 Q739.573 241.762 738.338 239.959 Q737.103 238.155 735.497 236.97 Q733.916 235.784 732.409 235.339 Q730.927 234.87 729.519 234.87 Q727.741 234.87 725.888 235.66 Q724.035 236.451 722.158 238.205 Q720.305 239.934 719.119 243.368 Q717.933 246.777 717.933 251.421 Z" fill="#000000" fill-rule="nonzero" fill-opacity="1" /><path clip-path="url(#clip460)" d="M750.962 269.282 L750.962 267.725 L752.172 267.725 Q754.914 267.725 755.532 267.281 Q756.174 266.811 756.174 265.329 L756.174 238.674 Q756.174 237.217 755.532 236.772 Q754.89 236.303 752.172 236.303 L750.962 236.303 L750.962 234.722 L769.465 234.722 Q775.937 234.722 780.433 239.885 Q784.954 245.048 784.954 252.286 Q784.954 259.376 780.408 264.341 Q775.887 269.282 769.465 269.282 L750.962 269.282 M760.522 265.7 Q760.522 267.009 760.892 267.38 Q761.263 267.725 762.992 267.725 L768.106 267.725 Q771.441 267.725 773.689 266.367 Q775.937 264.983 777.098 263.402 Q779.889 259.598 779.889 252.286 Q779.889 244.603 777.271 240.996 Q773.886 236.303 768.056 236.303 L762.992 236.303 Q761.263 236.303 760.892 236.649 Q760.522 236.994 760.522 238.328 L760.522 265.7 Z" fill="#000000" fill-rule="nonzero" fill-opacity="1" /><path clip-path="url(#clip460)" d="M789.45 269.282 L789.45 267.725 L790.66 267.725 Q793.402 267.725 794.02 267.281 Q794.662 266.811 794.662 265.329 L794.662 238.822 Q794.662 237.365 794.02 236.92 Q793.377 236.451 790.66 236.451 L789.45 236.451 L789.45 234.87 L817.933 234.87 L819.341 246.258 L818.081 246.258 Q817.735 243.368 817.266 241.713 Q816.821 240.033 815.709 238.748 Q814.622 237.464 812.819 236.97 Q811.04 236.451 808.15 236.451 L801.628 236.451 Q799.899 236.451 799.529 236.822 Q799.158 237.167 799.158 238.477 L799.158 250.606 L803.703 250.606 Q807.187 250.606 808.175 249.396 Q809.163 248.185 809.163 244.702 L810.447 244.702 L810.447 258.091 L809.163 258.091 Q809.163 254.657 808.175 253.422 Q807.187 252.187 803.703 252.187 L799.158 252.187 L799.158 265.7 Q799.158 267.009 799.529 267.38 Q799.924 267.725 801.628 267.725 L808.372 267.725 Q810.546 267.725 812.127 267.454 Q813.733 267.157 814.845 266.466 Q815.956 265.749 816.697 264.934 Q817.463 264.119 817.982 262.661 Q818.525 261.179 818.822 259.82 Q819.143 258.462 819.489 256.238 L820.749 256.238 L818.624 269.282 L789.45 269.282 Z" fill="#000000" fill-rule="nonzero" fill-opacity="1" /><path clip-path="url(#clip460)" d="M839.597 269.282 L839.597 267.725 Q843.55 267.725 846.07 264.687 Q846.07 264.687 850.813 258.659 L845.798 252.138 Q844.019 249.865 843.229 249.47 Q842.463 249.05 839.844 249.05 L839.844 247.469 Q841.919 247.617 844.637 247.617 Q846.144 247.617 850.121 247.469 L850.121 249.05 Q848.342 249.148 848.342 250.31 Q848.342 250.705 848.787 251.224 L852.74 256.337 L855.877 252.385 Q856.643 251.471 856.643 250.606 Q856.643 249.198 855.16 249.05 L855.16 247.469 Q857.137 247.617 860.027 247.617 Q862.201 247.617 864.177 247.469 L864.177 249.05 Q860.323 249.148 858.15 251.668 Q857.186 252.73 853.505 257.399 L860.274 266.144 Q861.089 267.207 862.003 267.478 Q862.917 267.725 865.091 267.725 L865.091 269.282 Q862.819 269.133 860.225 269.133 Q859.311 269.133 854.765 269.282 L854.765 267.725 Q855.679 267.676 856.124 267.281 Q856.593 266.861 856.593 266.441 Q856.593 266.243 855.531 264.786 L851.677 259.722 Q847.824 264.267 847.33 265.329 Q847.132 265.774 847.132 266.144 Q847.132 267.503 848.589 267.725 L848.589 269.282 Q844.958 269.133 843.797 269.133 Q841.574 269.133 839.597 269.282 Z" fill="#000000" fill-rule="nonzero" fill-opacity="1" /><path clip-path="url(#clip460)" d="M870.131 240.403 L870.131 238.822 Q876.208 238.822 879.345 235.586 Q880.21 235.586 880.358 235.784 Q880.506 235.982 880.506 236.896 L880.506 265.28 Q880.506 266.787 881.247 267.256 Q881.988 267.725 885.224 267.725 L886.83 267.725 L886.83 269.282 Q885.052 269.133 878.629 269.133 Q872.206 269.133 870.452 269.282 L870.452 267.725 L872.058 267.725 Q875.244 267.725 876.01 267.281 Q876.776 266.811 876.776 265.28 L876.776 239.07 Q874.133 240.403 870.131 240.403 Z" fill="#000000" fill-rule="nonzero" fill-opacity="1" /><polyline clip-path="url(#clip460)" style="stroke:#e26f46; stroke-linecap:round; stroke-linejoin:round; stroke-width:4; stroke-opacity:1; fill:none" points="355.519,303.842 550.675,303.842 "/>
<path clip-path="url(#clip460)" d="M583.201 321.122 L583.201 319.565 L584.412 319.565 Q587.154 319.565 587.771 319.121 Q588.414 318.651 588.414 317.169 L588.414 290.514 Q588.414 289.057 587.771 288.612 Q587.129 288.143 584.412 288.143 L583.201 288.143 L583.201 286.562 L601.704 286.562 Q606.521 286.562 609.733 289.156 Q612.944 291.725 612.944 295.109 Q612.944 297.901 610.573 300.124 Q608.226 302.347 604.545 303.064 Q608.744 303.508 611.511 306.053 Q614.303 308.572 614.303 311.858 Q614.303 315.563 611.116 318.355 Q607.929 321.122 603.038 321.122 L583.201 321.122 M592.613 317.54 Q592.613 318.849 592.984 319.22 Q593.354 319.565 595.083 319.565 L601.408 319.565 Q605.039 319.565 607.139 317.194 Q609.239 314.798 609.239 311.809 Q609.239 308.819 607.386 306.275 Q605.558 303.706 602.124 303.706 L592.613 303.706 L592.613 317.54 M592.613 302.594 L599.95 302.594 Q603.853 302.594 605.928 300.247 Q608.028 297.901 608.028 295.109 Q608.028 292.639 606.348 290.391 Q604.693 288.143 601.358 288.143 L595.083 288.143 Q593.354 288.143 592.984 288.489 Q592.613 288.834 592.613 290.168 L592.613 302.594 Z" fill="#000000" fill-rule="nonzero" fill-opacity="1" /><path clip-path="url(#clip460)" d="M618.848 321.122 L618.848 319.565 Q620.676 319.565 621.837 319.22 Q622.998 318.849 623.418 318.182 Q623.838 317.49 623.937 317.046 Q624.061 316.576 624.061 315.81 L624.061 289.403 Q624.061 288.686 623.863 288.513 Q623.69 288.34 622.825 288.242 Q621.318 288.143 620.306 288.143 L618.848 288.143 L618.848 286.562 L627.445 286.562 Q628.161 286.562 628.359 286.661 Q628.557 286.759 628.902 287.229 L646.763 313.488 L646.763 291.873 Q646.763 291.107 646.664 290.662 Q646.565 290.218 646.121 289.526 Q645.701 288.834 644.54 288.489 Q643.379 288.143 641.551 288.143 L641.551 286.562 Q646.862 286.71 647.455 286.71 Q648.072 286.71 653.383 286.562 L653.383 288.143 Q651.555 288.143 650.394 288.489 Q649.233 288.834 648.813 289.526 Q648.393 290.218 648.27 290.687 Q648.171 291.132 648.171 291.873 L648.171 319.812 Q648.171 320.628 648.072 320.875 Q647.973 321.122 647.479 321.122 Q647.133 321.122 646.615 320.455 L625.963 290.119 Q625.765 289.823 625.469 289.501 L625.469 315.81 Q625.469 316.576 625.567 317.046 Q625.666 317.49 626.086 318.182 Q626.531 318.849 627.692 319.22 Q628.853 319.565 630.681 319.565 L630.681 321.122 Q625.37 320.973 624.752 320.973 Q624.159 320.973 618.848 321.122 Z" fill="#000000" fill-rule="nonzero" fill-opacity="1" /><path clip-path="url(#clip460)" d="M656.792 321.122 L656.792 319.565 Q658.621 319.565 659.782 319.22 Q660.943 318.849 661.363 318.182 Q661.783 317.49 661.881 317.046 Q662.005 316.576 662.005 315.81 L662.005 289.403 Q662.005 288.686 661.807 288.513 Q661.634 288.34 660.77 288.242 Q659.263 288.143 658.25 288.143 L656.792 288.143 L656.792 286.562 L665.389 286.562 Q666.106 286.562 666.303 286.661 Q666.501 286.759 666.847 287.229 L684.707 313.488 L684.707 291.873 Q684.707 291.107 684.608 290.662 Q684.51 290.218 684.065 289.526 Q683.645 288.834 682.484 288.489 Q681.323 288.143 679.495 288.143 L679.495 286.562 Q684.806 286.71 685.399 286.71 Q686.017 286.71 691.328 286.562 L691.328 288.143 Q689.5 288.143 688.339 288.489 Q687.178 288.834 686.758 289.526 Q686.338 290.218 686.214 290.687 Q686.115 291.132 686.115 291.873 L686.115 319.812 Q686.115 320.628 686.017 320.875 Q685.918 321.122 685.424 321.122 Q685.078 321.122 684.559 320.455 L663.907 290.119 Q663.709 289.823 663.413 289.501 L663.413 315.81 Q663.413 316.576 663.512 317.046 Q663.611 317.49 664.031 318.182 Q664.475 318.849 665.636 319.22 Q666.797 319.565 668.625 319.565 L668.625 321.122 Q663.314 320.973 662.697 320.973 Q662.104 320.973 656.792 321.122 Z" fill="#000000" fill-rule="nonzero" fill-opacity="1" /><path clip-path="url(#clip460)" d="M693.551 311.71 L693.551 308.721 L707.014 308.721 L707.014 311.71 L693.551 311.71 Z" fill="#000000" fill-rule="nonzero" fill-opacity="1" /><path clip-path="url(#clip460)" d="M712.721 303.978 Q712.721 296.245 717.662 290.86 Q722.627 285.45 729.519 285.45 Q736.461 285.45 741.401 290.86 Q746.367 296.27 746.367 303.978 Q746.367 311.611 741.401 316.922 Q736.436 322.233 729.519 322.233 Q722.701 322.233 717.711 316.947 Q712.721 311.66 712.721 303.978 M717.933 303.261 Q717.933 307.955 719.045 311.562 Q720.157 315.144 721.935 317.095 Q723.739 319.047 725.665 319.985 Q727.592 320.924 729.569 320.924 Q731.495 320.924 733.373 320.01 Q735.275 319.096 737.078 317.169 Q738.882 315.242 740.018 311.636 Q741.154 308.029 741.154 303.261 Q741.154 299.556 740.364 296.591 Q739.573 293.602 738.338 291.799 Q737.103 289.995 735.497 288.81 Q733.916 287.624 732.409 287.179 Q730.927 286.71 729.519 286.71 Q727.741 286.71 725.888 287.5 Q724.035 288.291 722.158 290.045 Q720.305 291.774 719.119 295.208 Q717.933 298.617 717.933 303.261 Z" fill="#000000" fill-rule="nonzero" fill-opacity="1" /><path clip-path="url(#clip460)" d="M750.962 321.122 L750.962 319.565 L752.172 319.565 Q754.914 319.565 755.532 319.121 Q756.174 318.651 756.174 317.169 L756.174 290.514 Q756.174 289.057 755.532 288.612 Q754.89 288.143 752.172 288.143 L750.962 288.143 L750.962 286.562 L769.465 286.562 Q775.937 286.562 780.433 291.725 Q784.954 296.888 784.954 304.126 Q784.954 311.216 780.408 316.181 Q775.887 321.122 769.465 321.122 L750.962 321.122 M760.522 317.54 Q760.522 318.849 760.892 319.22 Q761.263 319.565 762.992 319.565 L768.106 319.565 Q771.441 319.565 773.689 318.207 Q775.937 316.823 777.098 315.242 Q779.889 311.438 779.889 304.126 Q779.889 296.443 777.271 292.836 Q773.886 288.143 768.056 288.143 L762.992 288.143 Q761.263 288.143 760.892 288.489 Q760.522 288.834 760.522 290.168 L760.522 317.54 Z" fill="#000000" fill-rule="nonzero" fill-opacity="1" /><path clip-path="url(#clip460)" d="M789.45 321.122 L789.45 319.565 L790.66 319.565 Q793.402 319.565 794.02 319.121 Q794.662 318.651 794.662 317.169 L794.662 290.662 Q794.662 289.205 794.02 288.76 Q793.377 288.291 790.66 288.291 L789.45 288.291 L789.45 286.71 L817.933 286.71 L819.341 298.098 L818.081 298.098 Q817.735 295.208 817.266 293.553 Q816.821 291.873 815.709 290.588 Q814.622 289.304 812.819 288.81 Q811.04 288.291 808.15 288.291 L801.628 288.291 Q799.899 288.291 799.529 288.662 Q799.158 289.007 799.158 290.317 L799.158 302.446 L803.703 302.446 Q807.187 302.446 808.175 301.236 Q809.163 300.025 809.163 296.542 L810.447 296.542 L810.447 309.931 L809.163 309.931 Q809.163 306.497 808.175 305.262 Q807.187 304.027 803.703 304.027 L799.158 304.027 L799.158 317.54 Q799.158 318.849 799.529 319.22 Q799.924 319.565 801.628 319.565 L808.372 319.565 Q810.546 319.565 812.127 319.294 Q813.733 318.997 814.845 318.306 Q815.956 317.589 816.697 316.774 Q817.463 315.959 817.982 314.501 Q818.525 313.019 818.822 311.66 Q819.143 310.302 819.489 308.078 L820.749 308.078 L818.624 321.122 L789.45 321.122 Z" fill="#000000" fill-rule="nonzero" fill-opacity="1" /><path clip-path="url(#clip460)" d="M839.597 321.122 L839.597 319.565 Q843.55 319.565 846.07 316.527 Q846.07 316.527 850.813 310.499 L845.798 303.978 Q844.019 301.705 843.229 301.31 Q842.463 300.89 839.844 300.89 L839.844 299.309 Q841.919 299.457 844.637 299.457 Q846.144 299.457 850.121 299.309 L850.121 300.89 Q848.342 300.988 848.342 302.15 Q848.342 302.545 848.787 303.064 L852.74 308.177 L855.877 304.225 Q856.643 303.311 856.643 302.446 Q856.643 301.038 855.16 300.89 L855.16 299.309 Q857.137 299.457 860.027 299.457 Q862.201 299.457 864.177 299.309 L864.177 300.89 Q860.323 300.988 858.15 303.508 Q857.186 304.57 853.505 309.239 L860.274 317.984 Q861.089 319.047 862.003 319.318 Q862.917 319.565 865.091 319.565 L865.091 321.122 Q862.819 320.973 860.225 320.973 Q859.311 320.973 854.765 321.122 L854.765 319.565 Q855.679 319.516 856.124 319.121 Q856.593 318.701 856.593 318.281 Q856.593 318.083 855.531 316.626 L851.677 311.562 Q847.824 316.107 847.33 317.169 Q847.132 317.614 847.132 317.984 Q847.132 319.343 848.589 319.565 L848.589 321.122 Q844.958 320.973 843.797 320.973 Q841.574 320.973 839.597 321.122 Z" fill="#000000" fill-rule="nonzero" fill-opacity="1" /><path clip-path="url(#clip460)" d="M868.154 321.122 Q868.154 320.208 868.229 319.936 Q868.327 319.664 868.723 319.244 L878.431 308.424 Q883.742 302.446 883.742 297.234 Q883.742 293.849 881.964 291.428 Q880.21 289.007 876.974 289.007 Q874.75 289.007 872.873 290.366 Q870.995 291.725 870.131 294.146 Q870.279 294.096 870.798 294.096 Q872.058 294.096 872.749 294.887 Q873.466 295.677 873.466 296.74 Q873.466 298.098 872.576 298.765 Q871.712 299.407 870.847 299.407 Q870.501 299.407 870.032 299.333 Q869.587 299.259 868.871 298.568 Q868.154 297.851 868.154 296.591 Q868.154 293.059 870.822 290.243 Q873.515 287.426 877.616 287.426 Q882.26 287.426 885.299 290.193 Q888.362 292.935 888.362 297.234 Q888.362 298.74 887.892 300.124 Q887.448 301.483 886.83 302.545 Q886.237 303.607 884.607 305.312 Q882.976 307.016 881.667 308.227 Q880.358 309.437 877.418 312.006 L872.058 317.219 L881.173 317.219 Q885.62 317.219 885.966 316.823 Q886.46 316.107 887.077 312.327 L888.362 312.327 L886.929 321.122 L868.154 321.122 Z" fill="#000000" fill-rule="nonzero" fill-opacity="1" /><polyline clip-path="url(#clip460)" style="stroke:#000000; stroke-linecap:round; stroke-linejoin:round; stroke-width:4; stroke-opacity:1; fill:none" stroke-dasharray="16, 10" points="355.519,355.682 550.675,355.682 "/>
<path clip-path="url(#clip460)" d="M583.201 372.962 L583.201 371.405 L584.535 371.405 Q587.376 371.405 588.018 370.961 Q588.685 370.491 588.685 369.009 L588.685 342.354 Q588.685 340.897 588.018 340.452 Q587.351 339.983 584.535 339.983 L583.201 339.983 L583.201 338.402 Q584.98 338.55 590.958 338.55 Q596.887 338.55 598.641 338.402 L598.641 339.983 L597.332 339.983 Q594.491 339.983 593.824 340.452 Q593.181 340.897 593.181 342.354 L593.181 369.009 Q593.181 370.467 593.824 370.936 Q594.491 371.405 597.332 371.405 L598.641 371.405 L598.641 372.962 Q596.862 372.813 590.909 372.813 Q584.98 372.813 583.201 372.962 Z" fill="#000000" fill-rule="nonzero" fill-opacity="1" /><path clip-path="url(#clip460)" d="M601.778 362.092 Q601.778 357.275 605.138 353.94 Q608.497 350.605 613.043 350.605 Q616.897 350.605 619.416 353.743 L619.416 342.799 Q619.416 340.921 618.749 340.452 Q618.107 339.983 615.488 339.983 L615.488 338.402 L622.776 337.858 L622.776 368.565 Q622.776 370.442 623.418 370.936 Q624.085 371.405 626.704 371.405 L626.704 372.962 L619.268 373.53 L619.268 370.17 Q616.65 373.505 612.499 373.53 Q608.152 373.53 604.965 370.195 Q601.778 366.86 601.778 362.092 M605.978 362.142 Q605.978 366.835 607.435 369.157 Q609.461 372.394 612.746 372.394 Q616.501 372.394 618.725 368.861 Q619.293 367.996 619.268 366.984 L619.268 356.608 Q619.268 355.595 618.725 354.755 Q616.65 351.717 613.265 351.717 Q609.733 351.717 607.534 354.953 Q605.978 357.374 605.978 362.142 Z" fill="#000000" fill-rule="nonzero" fill-opacity="1" /><path clip-path="url(#clip460)" d="M629.52 361.821 Q629.52 357.053 632.583 353.668 Q635.646 350.284 640.044 350.284 Q644.49 350.284 646.788 353.174 Q649.11 356.065 649.11 360.215 Q649.11 360.981 648.912 361.129 Q648.714 361.277 647.85 361.277 L633.72 361.277 Q633.72 366.44 635.251 368.861 Q637.376 372.245 640.958 372.245 Q641.452 372.245 642.045 372.147 Q642.637 372.048 643.848 371.628 Q645.058 371.183 646.121 370.022 Q647.183 368.861 647.8 367.033 Q647.949 366.317 648.443 366.341 Q649.11 366.341 649.11 366.934 Q649.11 367.379 648.616 368.392 Q648.146 369.38 647.232 370.565 Q646.318 371.751 644.54 372.641 Q642.786 373.53 640.661 373.53 Q636.215 373.53 632.855 370.17 Q629.52 366.786 629.52 361.821 M633.769 360.215 L645.775 360.215 Q645.775 359.153 645.577 357.967 Q645.404 356.781 644.861 355.151 Q644.342 353.495 643.107 352.458 Q641.872 351.42 640.044 351.42 Q639.228 351.42 638.339 351.766 Q637.474 352.112 636.412 352.952 Q635.35 353.792 634.609 355.694 Q633.868 357.596 633.769 360.215 Z" fill="#000000" fill-rule="nonzero" fill-opacity="1" /><path clip-path="url(#clip460)" d="M652.692 368.145 Q652.692 363.846 657.756 361.573 Q660.794 360.116 667.069 359.745 L667.069 357.893 Q667.069 354.755 665.414 353.1 Q663.784 351.42 661.708 351.42 Q658.003 351.42 656.224 353.743 Q657.731 353.792 658.275 354.558 Q658.818 355.299 658.818 356.065 Q658.818 357.077 658.176 357.744 Q657.558 358.387 656.496 358.387 Q655.483 358.387 654.816 357.769 Q654.149 357.127 654.149 356.015 Q654.149 353.545 656.373 351.914 Q658.621 350.284 661.807 350.284 Q665.957 350.284 668.724 353.076 Q669.589 353.94 670.009 355.052 Q670.453 356.163 670.503 356.905 Q670.552 357.621 670.552 359.054 L670.552 369.157 Q670.552 369.454 670.651 369.948 Q670.75 370.442 671.195 371.084 Q671.664 371.702 672.43 371.702 Q674.258 371.702 674.233 368.466 L674.233 365.625 L675.518 365.625 L675.518 368.466 Q675.518 371.158 674.085 372.221 Q672.677 373.258 671.367 373.258 Q669.688 373.258 668.625 372.023 Q667.563 370.788 667.415 369.108 Q666.649 371.035 664.895 372.295 Q663.166 373.53 660.794 373.53 Q658.966 373.53 657.237 373.061 Q655.533 372.616 654.1 371.356 Q652.692 370.071 652.692 368.145 M656.595 368.095 Q656.595 369.973 657.929 371.183 Q659.263 372.394 661.14 372.394 Q663.265 372.394 665.167 370.763 Q667.069 369.108 667.069 365.872 L667.069 360.808 Q661.461 361.005 659.016 363.253 Q656.595 365.477 656.595 368.095 Z" fill="#000000" fill-rule="nonzero" fill-opacity="1" /><path clip-path="url(#clip460)" d="M677.543 372.962 L677.543 371.405 Q680.236 371.405 680.854 371.084 Q681.471 370.738 681.471 369.108 L681.471 342.799 Q681.471 340.921 680.804 340.452 Q680.162 339.983 677.543 339.983 L677.543 338.402 L684.806 337.858 L684.806 369.108 Q684.806 370.738 685.448 371.084 Q686.091 371.405 688.759 371.405 L688.759 372.962 Q688.141 372.962 686.856 372.912 Q685.572 372.863 684.633 372.838 Q683.694 372.813 683.151 372.813 Q682.558 372.813 677.543 372.962 Z" fill="#000000" fill-rule="nonzero" fill-opacity="1" /></svg>
