<?xml version="1.0" encoding="utf-8"?>
<svg xmlns="http://www.w3.org/2000/svg" xmlns:xlink="http://www.w3.org/1999/xlink" width="800" height="600" viewBox="0 0 3200 2400">
<defs>
  <clipPath id="clip490">
    <rect x="0" y="0" width="3200" height="2400"/>
  </clipPath>
</defs>
<path clip-path="url(#clip490)" d="M0 2400 L3200 2400 L3200 0 L0 0  Z" fill="#ffffff" fill-rule="evenodd" fill-opacity="1"/>
<defs>
  <clipPath id="clip491">
    <rect x="640" y="0" width="2241" height="2241"/>
  </clipPath>
</defs>
<path clip-path="url(#clip490)" d="M225.415 2204.92 L3152.76 2204.92 L3152.76 131.032 L225.415 131.032  Z" fill="#ffffff" fill-rule="evenodd" fill-opacity="1"/>
<defs>
  <clipPath id="clip492">
    <rect x="225" y="131" width="2928" height="2075"/>
  </clipPath>
</defs>
<polyline clip-path="url(#clip492)" style="stroke:#000000; stroke-linecap:round; stroke-linejoin:round; stroke-width:2; stroke-opacity:0.1; fill:none" points="386.424,2204.92 386.424,131.032 "/>
<polyline clip-path="url(#clip492)" style="stroke:#000000; stroke-linecap:round; stroke-linejoin:round; stroke-width:2; stroke-opacity:0.1; fill:none" points="1037.75,2204.92 1037.75,131.032 "/>
<polyline clip-path="url(#clip492)" style="stroke:#000000; stroke-linecap:round; stroke-linejoin:round; stroke-width:2; stroke-opacity:0.1; fill:none" points="1689.09,2204.92 1689.09,131.032 "/>
<polyline clip-path="url(#clip492)" style="stroke:#000000; stroke-linecap:round; stroke-linejoin:round; stroke-width:2; stroke-opacity:0.1; fill:none" points="2340.42,2204.92 2340.42,131.032 "/>
<polyline clip-path="url(#clip492)" style="stroke:#000000; stroke-linecap:round; stroke-linejoin:round; stroke-width:2; stroke-opacity:0.1; fill:none" points="2991.75,2204.92 2991.75,131.032 "/>
<polyline clip-path="url(#clip492)" style="stroke:#000000; stroke-linecap:round; stroke-linejoin:round; stroke-width:2; stroke-opacity:0.1; fill:none" points="225.415,2204.92 3152.76,2204.92 "/>
<polyline clip-path="url(#clip492)" style="stroke:#000000; stroke-linecap:round; stroke-linejoin:round; stroke-width:2; stroke-opacity:0.1; fill:none" points="225.415,1790.14 3152.76,1790.14 "/>
<polyline clip-path="url(#clip492)" style="stroke:#000000; stroke-linecap:round; stroke-linejoin:round; stroke-width:2; stroke-opacity:0.1; fill:none" points="225.415,1375.36 3152.76,1375.36 "/>
<polyline clip-path="url(#clip492)" style="stroke:#000000; stroke-linecap:round; stroke-linejoin:round; stroke-width:2; stroke-opacity:0.1; fill:none" points="225.415,960.587 3152.76,960.587 "/>
<polyline clip-path="url(#clip492)" style="stroke:#000000; stroke-linecap:round; stroke-linejoin:round; stroke-width:2; stroke-opacity:0.1; fill:none" points="225.415,545.81 3152.76,545.81 "/>
<polyline clip-path="url(#clip492)" style="stroke:#000000; stroke-linecap:round; stroke-linejoin:round; stroke-width:2; stroke-opacity:0.1; fill:none" points="225.415,131.032 3152.76,131.032 "/>
<polyline clip-path="url(#clip490)" style="stroke:#000000; stroke-linecap:round; stroke-linejoin:round; stroke-width:4; stroke-opacity:1; fill:none" points="225.415,2204.92 3152.76,2204.92 "/>
<polyline clip-path="url(#clip490)" style="stroke:#000000; stroke-linecap:round; stroke-linejoin:round; stroke-width:4; stroke-opacity:1; fill:none" points="386.424,2204.92 386.424,2186.02 "/>
<polyline clip-path="url(#clip490)" style="stroke:#000000; stroke-linecap:round; stroke-linejoin:round; stroke-width:4; stroke-opacity:1; fill:none" points="1037.75,2204.92 1037.75,2186.02 "/>
<polyline clip-path="url(#clip490)" style="stroke:#000000; stroke-linecap:round; stroke-linejoin:round; stroke-width:4; stroke-opacity:1; fill:none" points="1689.09,2204.92 1689.09,2186.02 "/>
<polyline clip-path="url(#clip490)" style="stroke:#000000; stroke-linecap:round; stroke-linejoin:round; stroke-width:4; stroke-opacity:1; fill:none" points="2340.42,2204.92 2340.42,2186.02 "/>
<polyline clip-path="url(#clip490)" style="stroke:#000000; stroke-linecap:round; stroke-linejoin:round; stroke-width:4; stroke-opacity:1; fill:none" points="2991.75,2204.92 2991.75,2186.02 "/>
<path clip-path="url(#clip490)" d="M343.453 2257.54 Q343.453 2250.1 345.33 2246.05 Q347.949 2240.02 354.124 2240.02 Q355.434 2240.02 356.792 2240.4 Q358.176 2240.74 359.905 2242.1 Q361.659 2243.46 362.721 2245.68 Q364.747 2249.98 364.747 2257.54 Q364.747 2264.93 362.869 2268.95 Q360.127 2274.83 354.075 2274.83 Q351.802 2274.83 349.48 2273.67 Q347.183 2272.51 345.725 2269.72 Q343.453 2265.54 343.453 2257.54 M347.652 2256.92 Q347.652 2264.55 348.196 2267.59 Q348.813 2270.88 350.493 2272.31 Q352.198 2273.72 354.075 2273.72 Q356.101 2273.72 357.78 2272.21 Q359.485 2270.68 360.004 2267.4 Q360.572 2264.16 360.547 2256.92 Q360.547 2249.88 360.053 2247.06 Q359.386 2243.78 357.608 2242.47 Q355.854 2241.14 354.075 2241.14 Q353.408 2241.14 352.692 2241.33 Q352 2241.53 350.987 2242.1 Q349.974 2242.67 349.184 2244.08 Q348.418 2245.48 348.047 2247.61 Q347.652 2250.35 347.652 2256.92 Z" fill="#000000" fill-rule="nonzero" fill-opacity="1" /><path clip-path="url(#clip490)" d="M371.837 2272.9 Q371.071 2272.09 371.071 2271.03 Q371.071 2269.96 371.837 2269.2 Q372.603 2268.41 373.764 2268.41 Q374.875 2268.41 375.616 2269.15 Q376.382 2269.87 376.382 2271.05 Q376.382 2272.21 375.567 2272.98 Q374.776 2273.72 373.764 2273.72 Q372.603 2273.72 371.837 2272.9 Z" fill="#000000" fill-rule="nonzero" fill-opacity="1" /><path clip-path="url(#clip490)" d="M382.805 2257.54 Q382.805 2250.1 384.682 2246.05 Q387.301 2240.02 393.477 2240.02 Q394.786 2240.02 396.145 2240.4 Q397.528 2240.74 399.257 2242.1 Q401.011 2243.46 402.074 2245.68 Q404.099 2249.98 404.099 2257.54 Q404.099 2264.93 402.222 2268.95 Q399.48 2274.83 393.427 2274.83 Q391.155 2274.83 388.833 2273.67 Q386.535 2272.51 385.078 2269.72 Q382.805 2265.54 382.805 2257.54 M387.005 2256.92 Q387.005 2264.55 387.548 2267.59 Q388.166 2270.88 389.845 2272.31 Q391.55 2273.72 393.427 2273.72 Q395.453 2273.72 397.133 2272.21 Q398.837 2270.68 399.356 2267.4 Q399.924 2264.16 399.9 2256.92 Q399.9 2249.88 399.406 2247.06 Q398.739 2243.78 396.96 2242.47 Q395.206 2241.14 393.427 2241.14 Q392.76 2241.14 392.044 2241.33 Q391.352 2241.53 390.34 2242.1 Q389.327 2242.67 388.536 2244.08 Q387.77 2245.48 387.4 2247.61 Q387.005 2250.35 387.005 2256.92 Z" fill="#000000" fill-rule="nonzero" fill-opacity="1" /><path clip-path="url(#clip490)" d="M408.101 2257.54 Q408.101 2250.1 409.979 2246.05 Q412.597 2240.02 418.773 2240.02 Q420.082 2240.02 421.441 2240.4 Q422.824 2240.74 424.554 2242.1 Q426.308 2243.46 427.37 2245.68 Q429.396 2249.98 429.396 2257.54 Q429.396 2264.93 427.518 2268.95 Q424.776 2274.83 418.724 2274.83 Q416.451 2274.83 414.129 2273.67 Q411.831 2272.51 410.374 2269.72 Q408.101 2265.54 408.101 2257.54 M412.301 2256.92 Q412.301 2264.55 412.844 2267.59 Q413.462 2270.88 415.142 2272.31 Q416.846 2273.72 418.724 2273.72 Q420.749 2273.72 422.429 2272.21 Q424.134 2270.68 424.652 2267.4 Q425.221 2264.16 425.196 2256.92 Q425.196 2249.88 424.702 2247.06 Q424.035 2243.78 422.256 2242.47 Q420.502 2241.14 418.724 2241.14 Q418.057 2241.14 417.34 2241.33 Q416.649 2241.53 415.636 2242.1 Q414.623 2242.67 413.832 2244.08 Q413.067 2245.48 412.696 2247.61 Q412.301 2250.35 412.301 2256.92 Z" fill="#000000" fill-rule="nonzero" fill-opacity="1" /><path clip-path="url(#clip490)" d="M995.055 2257.54 Q995.055 2250.1 996.932 2246.05 Q999.551 2240.02 1005.73 2240.02 Q1007.04 2240.02 1008.39 2240.4 Q1009.78 2240.74 1011.51 2242.1 Q1013.26 2243.46 1014.32 2245.68 Q1016.35 2249.98 1016.35 2257.54 Q1016.35 2264.93 1014.47 2268.95 Q1011.73 2274.83 1005.68 2274.83 Q1003.4 2274.83 1001.08 2273.67 Q998.785 2272.51 997.328 2269.72 Q995.055 2265.54 995.055 2257.54 M999.255 2256.92 Q999.255 2264.55 999.798 2267.59 Q1000.42 2270.88 1002.1 2272.31 Q1003.8 2273.72 1005.68 2273.72 Q1007.7 2273.72 1009.38 2272.21 Q1011.09 2270.68 1011.61 2267.4 Q1012.17 2264.16 1012.15 2256.92 Q1012.15 2249.88 1011.66 2247.06 Q1010.99 2243.78 1009.21 2242.47 Q1007.46 2241.14 1005.68 2241.14 Q1005.01 2241.14 1004.29 2241.33 Q1003.6 2241.53 1002.59 2242.1 Q1001.58 2242.67 1000.79 2244.08 Q1000.02 2245.48 999.65 2247.61 Q999.255 2250.35 999.255 2256.92 Z" fill="#000000" fill-rule="nonzero" fill-opacity="1" /><path clip-path="url(#clip490)" d="M1023.44 2272.9 Q1022.67 2272.09 1022.67 2271.03 Q1022.67 2269.96 1023.44 2269.2 Q1024.2 2268.41 1025.37 2268.41 Q1026.48 2268.41 1027.22 2269.15 Q1027.98 2269.87 1027.98 2271.05 Q1027.98 2272.21 1027.17 2272.98 Q1026.38 2273.72 1025.37 2273.72 Q1024.2 2273.72 1023.44 2272.9 Z" fill="#000000" fill-rule="nonzero" fill-opacity="1" /><path clip-path="url(#clip490)" d="M1034.95 2273.72 Q1034.95 2272.81 1035.03 2272.53 Q1035.12 2272.26 1035.52 2271.84 L1045.23 2261.02 Q1050.54 2255.04 1050.54 2249.83 Q1050.54 2246.45 1048.76 2244.03 Q1047.01 2241.61 1043.77 2241.61 Q1041.55 2241.61 1039.67 2242.96 Q1037.79 2244.32 1036.93 2246.74 Q1037.08 2246.69 1037.59 2246.69 Q1038.85 2246.69 1039.55 2247.48 Q1040.26 2248.28 1040.26 2249.34 Q1040.26 2250.7 1039.37 2251.36 Q1038.51 2252.01 1037.64 2252.01 Q1037.3 2252.01 1036.83 2251.93 Q1036.38 2251.86 1035.67 2251.17 Q1034.95 2250.45 1034.95 2249.19 Q1034.95 2245.66 1037.62 2242.84 Q1040.31 2240.02 1044.41 2240.02 Q1049.06 2240.02 1052.1 2242.79 Q1055.16 2245.53 1055.16 2249.83 Q1055.16 2251.34 1054.69 2252.72 Q1054.24 2254.08 1053.63 2255.14 Q1053.03 2256.21 1051.4 2257.91 Q1049.77 2259.61 1048.46 2260.82 Q1047.15 2262.04 1044.21 2264.6 L1038.85 2269.82 L1047.97 2269.82 Q1052.42 2269.82 1052.76 2269.42 Q1053.26 2268.71 1053.87 2264.93 L1055.16 2264.93 L1053.73 2273.72 L1034.95 2273.72 Z" fill="#000000" fill-rule="nonzero" fill-opacity="1" /><path clip-path="url(#clip490)" d="M1060.25 2265.57 Q1060.25 2264.06 1061.06 2263.49 Q1061.88 2262.9 1062.74 2262.9 Q1063.9 2262.9 1064.57 2263.64 Q1065.26 2264.36 1065.26 2265.37 Q1065.26 2266.38 1064.57 2267.12 Q1063.9 2267.84 1062.74 2267.84 Q1062.17 2267.84 1061.88 2267.74 Q1062.54 2270.06 1064.57 2271.74 Q1066.62 2273.42 1069.31 2273.42 Q1072.7 2273.42 1074.72 2270.14 Q1075.93 2268.01 1075.93 2263.2 Q1075.93 2258.95 1075.02 2256.82 Q1073.61 2253.59 1070.72 2253.59 Q1066.62 2253.59 1064.2 2257.12 Q1063.9 2257.56 1063.56 2257.59 Q1063.06 2257.59 1062.94 2257.32 Q1062.84 2257.02 1062.84 2256.25 L1062.84 2241.28 Q1062.84 2240.07 1063.34 2240.07 Q1063.53 2240.07 1063.95 2240.22 Q1067.14 2241.63 1070.67 2241.65 Q1074.3 2241.65 1077.56 2240.17 Q1077.81 2240.02 1077.96 2240.02 Q1078.45 2240.02 1078.48 2240.59 Q1078.48 2240.79 1078.06 2241.38 Q1077.66 2241.95 1076.8 2242.72 Q1075.93 2243.46 1074.82 2244.17 Q1073.71 2244.89 1072.08 2245.39 Q1070.47 2245.85 1068.7 2245.85 Q1066.57 2245.85 1064.4 2245.19 L1064.4 2255.04 Q1067.02 2252.47 1070.82 2252.47 Q1074.87 2252.47 1077.66 2255.74 Q1080.45 2259 1080.45 2263.54 Q1080.45 2268.31 1077.14 2271.57 Q1073.86 2274.83 1069.41 2274.83 Q1065.36 2274.83 1062.79 2271.94 Q1060.25 2269.05 1060.25 2265.57 Z" fill="#000000" fill-rule="nonzero" fill-opacity="1" /><path clip-path="url(#clip490)" d="M1646.11 2257.54 Q1646.11 2250.1 1647.99 2246.05 Q1650.61 2240.02 1656.79 2240.02 Q1658.1 2240.02 1659.45 2240.4 Q1660.84 2240.74 1662.57 2242.1 Q1664.32 2243.46 1665.38 2245.68 Q1667.41 2249.98 1667.41 2257.54 Q1667.41 2264.93 1665.53 2268.95 Q1662.79 2274.83 1656.74 2274.83 Q1654.46 2274.83 1652.14 2273.67 Q1649.84 2272.51 1648.39 2269.72 Q1646.11 2265.54 1646.11 2257.54 M1650.31 2256.92 Q1650.31 2264.55 1650.86 2267.59 Q1651.47 2270.88 1653.15 2272.31 Q1654.86 2273.72 1656.74 2273.72 Q1658.76 2273.72 1660.44 2272.21 Q1662.15 2270.68 1662.67 2267.4 Q1663.23 2264.16 1663.21 2256.92 Q1663.21 2249.88 1662.71 2247.06 Q1662.05 2243.78 1660.27 2242.47 Q1658.52 2241.14 1656.74 2241.14 Q1656.07 2241.14 1655.35 2241.33 Q1654.66 2241.53 1653.65 2242.1 Q1652.64 2242.67 1651.85 2244.08 Q1651.08 2245.48 1650.71 2247.61 Q1650.31 2250.35 1650.31 2256.92 Z" fill="#000000" fill-rule="nonzero" fill-opacity="1" /><path clip-path="url(#clip490)" d="M1674.5 2272.9 Q1673.73 2272.09 1673.73 2271.03 Q1673.73 2269.96 1674.5 2269.2 Q1675.26 2268.41 1676.43 2268.41 Q1677.54 2268.41 1678.28 2269.15 Q1679.04 2269.87 1679.04 2271.05 Q1679.04 2272.21 1678.23 2272.98 Q1677.44 2273.72 1676.43 2273.72 Q1675.26 2273.72 1674.5 2272.9 Z" fill="#000000" fill-rule="nonzero" fill-opacity="1" /><path clip-path="url(#clip490)" d="M1686.01 2265.57 Q1686.01 2264.06 1686.83 2263.49 Q1687.64 2262.9 1688.5 2262.9 Q1689.67 2262.9 1690.33 2263.64 Q1691.02 2264.36 1691.02 2265.37 Q1691.02 2266.38 1690.33 2267.12 Q1689.67 2267.84 1688.5 2267.84 Q1687.94 2267.84 1687.64 2267.74 Q1688.31 2270.06 1690.33 2271.74 Q1692.38 2273.42 1695.08 2273.42 Q1698.46 2273.42 1700.49 2270.14 Q1701.7 2268.01 1701.7 2263.2 Q1701.7 2258.95 1700.78 2256.82 Q1699.37 2253.59 1696.48 2253.59 Q1692.38 2253.59 1689.96 2257.12 Q1689.67 2257.56 1689.32 2257.59 Q1688.83 2257.59 1688.7 2257.32 Q1688.6 2257.02 1688.6 2256.25 L1688.6 2241.28 Q1688.6 2240.07 1689.1 2240.07 Q1689.3 2240.07 1689.72 2240.22 Q1692.9 2241.63 1696.43 2241.65 Q1700.07 2241.65 1703.33 2240.17 Q1703.57 2240.02 1703.72 2240.02 Q1704.22 2240.02 1704.24 2240.59 Q1704.24 2240.79 1703.82 2241.38 Q1703.43 2241.95 1702.56 2242.72 Q1701.7 2243.46 1700.58 2244.17 Q1699.47 2244.89 1697.84 2245.39 Q1696.24 2245.85 1694.46 2245.85 Q1692.33 2245.85 1690.16 2245.19 L1690.16 2255.04 Q1692.78 2252.47 1696.58 2252.47 Q1700.63 2252.47 1703.43 2255.74 Q1706.22 2259 1706.22 2263.54 Q1706.22 2268.31 1702.91 2271.57 Q1699.62 2274.83 1695.17 2274.83 Q1691.12 2274.83 1688.55 2271.94 Q1686.01 2269.05 1686.01 2265.57 Z" fill="#000000" fill-rule="nonzero" fill-opacity="1" /><path clip-path="url(#clip490)" d="M1710.76 2257.54 Q1710.76 2250.1 1712.64 2246.05 Q1715.26 2240.02 1721.43 2240.02 Q1722.74 2240.02 1724.1 2240.4 Q1725.49 2240.74 1727.22 2242.1 Q1728.97 2243.46 1730.03 2245.68 Q1732.06 2249.98 1732.06 2257.54 Q1732.06 2264.93 1730.18 2268.95 Q1727.44 2274.83 1721.39 2274.83 Q1719.11 2274.83 1716.79 2273.67 Q1714.49 2272.51 1713.04 2269.72 Q1710.76 2265.54 1710.76 2257.54 M1714.96 2256.92 Q1714.96 2264.55 1715.51 2267.59 Q1716.12 2270.88 1717.8 2272.31 Q1719.51 2273.72 1721.39 2273.72 Q1723.41 2273.72 1725.09 2272.21 Q1726.8 2270.68 1727.31 2267.4 Q1727.88 2264.16 1727.86 2256.92 Q1727.86 2249.88 1727.36 2247.06 Q1726.7 2243.78 1724.92 2242.47 Q1723.16 2241.14 1721.39 2241.14 Q1720.72 2241.14 1720 2241.33 Q1719.31 2241.53 1718.3 2242.1 Q1717.28 2242.67 1716.49 2244.08 Q1715.73 2245.48 1715.36 2247.61 Q1714.96 2250.35 1714.96 2256.92 Z" fill="#000000" fill-rule="nonzero" fill-opacity="1" /><path clip-path="url(#clip490)" d="M2297.72 2257.54 Q2297.72 2250.1 2299.59 2246.05 Q2302.21 2240.02 2308.39 2240.02 Q2309.7 2240.02 2311.06 2240.4 Q2312.44 2240.74 2314.17 2242.1 Q2315.92 2243.46 2316.99 2245.68 Q2319.01 2249.98 2319.01 2257.54 Q2319.01 2264.93 2317.13 2268.95 Q2314.39 2274.83 2308.34 2274.83 Q2306.07 2274.83 2303.74 2273.67 Q2301.45 2272.51 2299.99 2269.72 Q2297.72 2265.54 2297.72 2257.54 M2301.92 2256.92 Q2301.92 2264.55 2302.46 2267.59 Q2303.08 2270.88 2304.76 2272.31 Q2306.46 2273.72 2308.34 2273.72 Q2310.36 2273.72 2312.04 2272.21 Q2313.75 2270.68 2314.27 2267.4 Q2314.84 2264.16 2314.81 2256.92 Q2314.81 2249.88 2314.32 2247.06 Q2313.65 2243.78 2311.87 2242.47 Q2310.12 2241.14 2308.34 2241.14 Q2307.67 2241.14 2306.96 2241.33 Q2306.26 2241.53 2305.25 2242.1 Q2304.24 2242.67 2303.45 2244.08 Q2302.68 2245.48 2302.31 2247.61 Q2301.92 2250.35 2301.92 2256.92 Z" fill="#000000" fill-rule="nonzero" fill-opacity="1" /><path clip-path="url(#clip490)" d="M2326.1 2272.9 Q2325.33 2272.09 2325.33 2271.03 Q2325.33 2269.96 2326.1 2269.2 Q2326.87 2268.41 2328.03 2268.41 Q2329.14 2268.41 2329.88 2269.15 Q2330.65 2269.87 2330.65 2271.05 Q2330.65 2272.21 2329.83 2272.98 Q2329.04 2273.72 2328.03 2273.72 Q2326.87 2273.72 2326.1 2272.9 Z" fill="#000000" fill-rule="nonzero" fill-opacity="1" /><path clip-path="url(#clip490)" d="M2337.93 2249.93 L2339.59 2239.53 L2340.85 2239.53 Q2341 2240.15 2341.24 2240.42 Q2341.52 2240.69 2342.95 2240.91 Q2344.41 2241.14 2347.35 2241.14 L2359.62 2241.14 Q2359.62 2242.3 2359.18 2242.91 L2352.34 2252.52 Q2350.16 2255.56 2349.2 2261.17 Q2348.63 2264.93 2348.65 2269.47 L2348.65 2272.04 Q2348.65 2274.83 2346.31 2274.83 Q2343.99 2274.83 2343.99 2272.04 Q2343.99 2262.38 2350.21 2253.02 Q2350.88 2252.05 2353.32 2248.62 Q2355.79 2245.19 2355.89 2245.04 L2345.42 2245.04 Q2340.82 2245.04 2340.45 2245.34 Q2339.96 2245.78 2339.19 2249.93 L2337.93 2249.93 Z" fill="#000000" fill-rule="nonzero" fill-opacity="1" /><path clip-path="url(#clip490)" d="M2362.91 2265.57 Q2362.91 2264.06 2363.72 2263.49 Q2364.54 2262.9 2365.4 2262.9 Q2366.56 2262.9 2367.23 2263.64 Q2367.92 2264.36 2367.92 2265.37 Q2367.92 2266.38 2367.23 2267.12 Q2366.56 2267.84 2365.4 2267.84 Q2364.84 2267.84 2364.54 2267.74 Q2365.21 2270.06 2367.23 2271.74 Q2369.28 2273.42 2371.97 2273.42 Q2375.36 2273.42 2377.38 2270.14 Q2378.6 2268.01 2378.6 2263.2 Q2378.6 2258.95 2377.68 2256.82 Q2376.27 2253.59 2373.38 2253.59 Q2369.28 2253.59 2366.86 2257.12 Q2366.56 2257.56 2366.22 2257.59 Q2365.72 2257.59 2365.6 2257.32 Q2365.5 2257.02 2365.5 2256.25 L2365.5 2241.28 Q2365.5 2240.07 2366 2240.07 Q2366.19 2240.07 2366.61 2240.22 Q2369.8 2241.63 2373.33 2241.65 Q2376.96 2241.65 2380.23 2240.17 Q2380.47 2240.02 2380.62 2240.02 Q2381.12 2240.02 2381.14 2240.59 Q2381.14 2240.79 2380.72 2241.38 Q2380.32 2241.95 2379.46 2242.72 Q2378.6 2243.46 2377.48 2244.17 Q2376.37 2244.89 2374.74 2245.39 Q2373.14 2245.85 2371.36 2245.85 Q2369.23 2245.85 2367.06 2245.19 L2367.06 2255.04 Q2369.68 2252.47 2373.48 2252.47 Q2377.53 2252.47 2380.32 2255.74 Q2383.12 2259 2383.12 2263.54 Q2383.12 2268.31 2379.81 2271.57 Q2376.52 2274.83 2372.07 2274.83 Q2368.02 2274.83 2365.45 2271.94 Q2362.91 2269.05 2362.91 2265.57 Z" fill="#000000" fill-rule="nonzero" fill-opacity="1" /><path clip-path="url(#clip490)" d="M2950.04 2244.84 L2950.04 2243.26 Q2956.11 2243.26 2959.25 2240.02 Q2960.11 2240.02 2960.26 2240.22 Q2960.41 2240.42 2960.41 2241.33 L2960.41 2269.72 Q2960.41 2271.22 2961.15 2271.69 Q2961.89 2272.16 2965.13 2272.16 L2966.73 2272.16 L2966.73 2273.72 Q2964.96 2273.57 2958.53 2273.57 Q2952.11 2273.57 2950.36 2273.72 L2950.36 2272.16 L2951.96 2272.16 Q2955.15 2272.16 2955.91 2271.72 Q2956.68 2271.25 2956.68 2269.72 L2956.68 2243.51 Q2954.04 2244.84 2950.04 2244.84 Z" fill="#000000" fill-rule="nonzero" fill-opacity="1" /><path clip-path="url(#clip490)" d="M2975.9 2272.9 Q2975.13 2272.09 2975.13 2271.03 Q2975.13 2269.96 2975.9 2269.2 Q2976.67 2268.41 2977.83 2268.41 Q2978.94 2268.41 2979.68 2269.15 Q2980.45 2269.87 2980.45 2271.05 Q2980.45 2272.21 2979.63 2272.98 Q2978.84 2273.72 2977.83 2273.72 Q2976.67 2273.72 2975.9 2272.9 Z" fill="#000000" fill-rule="nonzero" fill-opacity="1" /><path clip-path="url(#clip490)" d="M2986.87 2257.54 Q2986.87 2250.1 2988.75 2246.05 Q2991.36 2240.02 2997.54 2240.02 Q2998.85 2240.02 3000.21 2240.4 Q3001.59 2240.74 3003.32 2242.1 Q3005.07 2243.46 3006.14 2245.68 Q3008.16 2249.98 3008.16 2257.54 Q3008.16 2264.93 3006.28 2268.95 Q3003.54 2274.83 2997.49 2274.83 Q2995.22 2274.83 2992.9 2273.67 Q2990.6 2272.51 2989.14 2269.72 Q2986.87 2265.54 2986.87 2257.54 M2991.07 2256.92 Q2991.07 2264.55 2991.61 2267.59 Q2992.23 2270.88 2993.91 2272.31 Q2995.61 2273.72 2997.49 2273.72 Q2999.52 2273.72 3001.2 2272.21 Q3002.9 2270.68 3003.42 2267.4 Q3003.99 2264.16 3003.96 2256.92 Q3003.96 2249.88 3003.47 2247.06 Q3002.8 2243.78 3001.02 2242.47 Q2999.27 2241.14 2997.49 2241.14 Q2996.82 2241.14 2996.11 2241.33 Q2995.42 2241.53 2994.4 2242.1 Q2993.39 2242.67 2992.6 2244.08 Q2991.83 2245.48 2991.46 2247.61 Q2991.07 2250.35 2991.07 2256.92 Z" fill="#000000" fill-rule="nonzero" fill-opacity="1" /><path clip-path="url(#clip490)" d="M3012.16 2257.54 Q3012.16 2250.1 3014.04 2246.05 Q3016.66 2240.02 3022.84 2240.02 Q3024.15 2240.02 3025.5 2240.4 Q3026.89 2240.74 3028.62 2242.1 Q3030.37 2243.46 3031.43 2245.68 Q3033.46 2249.98 3033.46 2257.54 Q3033.46 2264.93 3031.58 2268.95 Q3028.84 2274.83 3022.79 2274.83 Q3020.51 2274.83 3018.19 2273.67 Q3015.89 2272.51 3014.44 2269.72 Q3012.16 2265.54 3012.16 2257.54 M3016.36 2256.92 Q3016.36 2264.55 3016.91 2267.59 Q3017.52 2270.88 3019.2 2272.31 Q3020.91 2273.72 3022.79 2273.72 Q3024.81 2273.72 3026.49 2272.21 Q3028.2 2270.68 3028.72 2267.4 Q3029.28 2264.16 3029.26 2256.92 Q3029.26 2249.88 3028.76 2247.06 Q3028.1 2243.78 3026.32 2242.47 Q3024.57 2241.14 3022.79 2241.14 Q3022.12 2241.14 3021.4 2241.33 Q3020.71 2241.53 3019.7 2242.1 Q3018.69 2242.67 3017.9 2244.08 Q3017.13 2245.48 3016.76 2247.61 Q3016.36 2250.35 3016.36 2256.92 Z" fill="#000000" fill-rule="nonzero" fill-opacity="1" /><path clip-path="url(#clip490)" d="M1671.59 2333.96 L1671.59 2331.79 L1681.82 2331.04 L1681.82 2354.14 Q1681.82 2355.81 1681.95 2356.79 Q1682.09 2357.74 1682.63 2358.86 Q1683.21 2359.98 1684.5 2360.49 Q1685.82 2361 1687.93 2361 Q1691.7 2361 1694.01 2357.91 Q1696.35 2354.82 1696.35 2350.24 L1696.35 2337.84 Q1696.35 2335.26 1695.44 2334.61 Q1694.52 2333.96 1690.92 2333.96 L1690.92 2331.79 L1701.14 2331.04 L1701.14 2355.74 Q1701.14 2358.32 1702.03 2359 Q1702.94 2359.64 1706.58 2359.64 L1706.58 2361.78 L1696.56 2362.57 L1696.56 2356.28 Q1693.64 2362.53 1687.59 2362.57 Q1684.53 2362.57 1682.43 2361.78 Q1680.36 2361 1679.3 2360.05 Q1678.25 2359.07 1677.67 2357.2 Q1677.13 2355.33 1677.06 2354.18 Q1676.99 2353.02 1676.99 2350.78 L1676.99 2340.35 Q1676.99 2335.63 1676.31 2334.81 Q1675.63 2333.96 1671.59 2333.96 Z" fill="#000000" fill-rule="nonzero" fill-opacity="1" /><polyline clip-path="url(#clip490)" style="stroke:#000000; stroke-linecap:round; stroke-linejoin:round; stroke-width:4; stroke-opacity:1; fill:none" points="225.415,2204.92 225.415,131.032 "/>
<polyline clip-path="url(#clip490)" style="stroke:#000000; stroke-linecap:round; stroke-linejoin:round; stroke-width:4; stroke-opacity:1; fill:none" points="225.415,2204.92 244.313,2204.92 "/>
<polyline clip-path="url(#clip490)" style="stroke:#000000; stroke-linecap:round; stroke-linejoin:round; stroke-width:4; stroke-opacity:1; fill:none" points="225.415,1790.14 244.313,1790.14 "/>
<polyline clip-path="url(#clip490)" style="stroke:#000000; stroke-linecap:round; stroke-linejoin:round; stroke-width:4; stroke-opacity:1; fill:none" points="225.415,1375.36 244.313,1375.36 "/>
<polyline clip-path="url(#clip490)" style="stroke:#000000; stroke-linecap:round; stroke-linejoin:round; stroke-width:4; stroke-opacity:1; fill:none" points="225.415,960.587 244.313,960.587 "/>
<polyline clip-path="url(#clip490)" style="stroke:#000000; stroke-linecap:round; stroke-linejoin:round; stroke-width:4; stroke-opacity:1; fill:none" points="225.415,545.81 244.313,545.81 "/>
<polyline clip-path="url(#clip490)" style="stroke:#000000; stroke-linecap:round; stroke-linejoin:round; stroke-width:4; stroke-opacity:1; fill:none" points="225.415,131.032 244.313,131.032 "/>
<path clip-path="url(#clip490)" d="M116.768 2206.02 Q116.768 2198.58 118.646 2194.53 Q121.264 2188.5 127.44 2188.5 Q128.749 2188.5 130.108 2188.88 Q131.492 2189.22 133.221 2190.58 Q134.975 2191.94 136.037 2194.16 Q138.063 2198.46 138.063 2206.02 Q138.063 2213.41 136.185 2217.43 Q133.443 2223.31 127.391 2223.31 Q125.118 2223.31 122.796 2222.15 Q120.499 2220.99 119.041 2218.2 Q116.768 2214.02 116.768 2206.02 M120.968 2205.4 Q120.968 2213.03 121.511 2216.07 Q122.129 2219.36 123.809 2220.79 Q125.513 2222.2 127.391 2222.2 Q129.416 2222.2 131.096 2220.69 Q132.801 2219.16 133.32 2215.88 Q133.888 2212.64 133.863 2205.4 Q133.863 2198.36 133.369 2195.54 Q132.702 2192.26 130.923 2190.95 Q129.169 2189.62 127.391 2189.62 Q126.724 2189.62 126.007 2189.81 Q125.316 2190.01 124.303 2190.58 Q123.29 2191.15 122.5 2192.56 Q121.734 2193.96 121.363 2196.09 Q120.968 2198.83 120.968 2205.4 Z" fill="#000000" fill-rule="nonzero" fill-opacity="1" /><path clip-path="url(#clip490)" d="M145.152 2221.38 Q144.387 2220.57 144.387 2219.51 Q144.387 2218.44 145.152 2217.68 Q145.918 2216.89 147.079 2216.89 Q148.191 2216.89 148.932 2217.63 Q149.698 2218.35 149.698 2219.53 Q149.698 2220.69 148.883 2221.46 Q148.092 2222.2 147.079 2222.2 Q145.918 2222.2 145.152 2221.38 Z" fill="#000000" fill-rule="nonzero" fill-opacity="1" /><path clip-path="url(#clip490)" d="M156.121 2206.02 Q156.121 2198.58 157.998 2194.53 Q160.617 2188.5 166.793 2188.5 Q168.102 2188.5 169.461 2188.88 Q170.844 2189.22 172.573 2190.58 Q174.327 2191.94 175.389 2194.16 Q177.415 2198.46 177.415 2206.02 Q177.415 2213.41 175.538 2217.43 Q172.796 2223.31 166.743 2223.31 Q164.471 2223.31 162.148 2222.15 Q159.851 2220.99 158.393 2218.2 Q156.121 2214.02 156.121 2206.02 M160.32 2205.4 Q160.32 2213.03 160.864 2216.07 Q161.481 2219.36 163.161 2220.79 Q164.866 2222.2 166.743 2222.2 Q168.769 2222.2 170.449 2220.69 Q172.153 2219.16 172.672 2215.88 Q173.24 2212.64 173.216 2205.4 Q173.216 2198.36 172.721 2195.54 Q172.054 2192.26 170.276 2190.95 Q168.522 2189.62 166.743 2189.62 Q166.076 2189.62 165.36 2189.81 Q164.668 2190.01 163.655 2190.58 Q162.642 2191.15 161.852 2192.56 Q161.086 2193.96 160.716 2196.09 Q160.32 2198.83 160.32 2205.4 Z" fill="#000000" fill-rule="nonzero" fill-opacity="1" /><path clip-path="url(#clip490)" d="M117.312 1791.24 Q117.312 1783.81 119.189 1779.75 Q121.808 1773.73 127.984 1773.73 Q129.293 1773.73 130.652 1774.1 Q132.035 1774.44 133.764 1775.8 Q135.518 1777.16 136.58 1779.38 Q138.606 1783.68 138.606 1791.24 Q138.606 1798.63 136.729 1802.65 Q133.987 1808.53 127.934 1808.53 Q125.662 1808.53 123.339 1807.37 Q121.042 1806.21 119.585 1803.42 Q117.312 1799.25 117.312 1791.24 M121.511 1790.62 Q121.511 1798.26 122.055 1801.3 Q122.672 1804.58 124.352 1806.01 Q126.057 1807.42 127.934 1807.42 Q129.96 1807.42 131.64 1805.92 Q133.344 1804.38 133.863 1801.1 Q134.431 1797.86 134.407 1790.62 Q134.407 1783.58 133.912 1780.77 Q133.245 1777.48 131.467 1776.17 Q129.713 1774.84 127.934 1774.84 Q127.267 1774.84 126.551 1775.04 Q125.859 1775.23 124.846 1775.8 Q123.833 1776.37 123.043 1777.78 Q122.277 1779.19 121.907 1781.31 Q121.511 1784.05 121.511 1790.62 Z" fill="#000000" fill-rule="nonzero" fill-opacity="1" /><path clip-path="url(#clip490)" d="M145.696 1806.61 Q144.93 1805.79 144.93 1804.73 Q144.93 1803.67 145.696 1802.9 Q146.462 1802.11 147.623 1802.11 Q148.734 1802.11 149.476 1802.85 Q150.241 1803.57 150.241 1804.75 Q150.241 1805.92 149.426 1806.68 Q148.636 1807.42 147.623 1807.42 Q146.462 1807.42 145.696 1806.61 Z" fill="#000000" fill-rule="nonzero" fill-opacity="1" /><path clip-path="url(#clip490)" d="M157.208 1807.42 Q157.208 1806.51 157.282 1806.24 Q157.381 1805.96 157.776 1805.54 L167.484 1794.72 Q172.796 1788.75 172.796 1783.53 Q172.796 1780.15 171.017 1777.73 Q169.263 1775.31 166.027 1775.31 Q163.804 1775.31 161.926 1776.67 Q160.049 1778.03 159.184 1780.45 Q159.332 1780.4 159.851 1780.4 Q161.111 1780.4 161.803 1781.19 Q162.519 1781.98 162.519 1783.04 Q162.519 1784.4 161.63 1785.07 Q160.765 1785.71 159.9 1785.71 Q159.555 1785.71 159.085 1785.63 Q158.641 1785.56 157.924 1784.87 Q157.208 1784.15 157.208 1782.89 Q157.208 1779.36 159.876 1776.54 Q162.568 1773.73 166.669 1773.73 Q171.313 1773.73 174.352 1776.49 Q177.415 1779.24 177.415 1783.53 Q177.415 1785.04 176.946 1786.42 Q176.501 1787.78 175.883 1788.85 Q175.291 1789.91 173.66 1791.61 Q172.03 1793.32 170.72 1794.53 Q169.411 1795.74 166.471 1798.31 L161.111 1803.52 L170.226 1803.52 Q174.673 1803.52 175.019 1803.12 Q175.513 1802.41 176.131 1798.63 L177.415 1798.63 L175.982 1807.42 L157.208 1807.42 Z" fill="#000000" fill-rule="nonzero" fill-opacity="1" /><path clip-path="url(#clip490)" d="M116.2 1376.46 Q116.2 1369.03 118.078 1364.98 Q120.696 1358.95 126.872 1358.95 Q128.181 1358.95 129.54 1359.32 Q130.923 1359.67 132.653 1361.02 Q134.407 1362.38 135.469 1364.61 Q137.494 1368.9 137.494 1376.46 Q137.494 1383.85 135.617 1387.88 Q132.875 1393.76 126.823 1393.76 Q124.55 1393.76 122.228 1392.6 Q119.93 1391.43 118.473 1388.64 Q116.2 1384.47 116.2 1376.46 M120.4 1375.85 Q120.4 1383.48 120.943 1386.52 Q121.561 1389.8 123.241 1391.24 Q124.945 1392.64 126.823 1392.64 Q128.848 1392.64 130.528 1391.14 Q132.233 1389.61 132.751 1386.32 Q133.32 1383.08 133.295 1375.85 Q133.295 1368.81 132.801 1365.99 Q132.134 1362.7 130.355 1361.4 Q128.601 1360.06 126.823 1360.06 Q126.156 1360.06 125.439 1360.26 Q124.748 1360.46 123.735 1361.02 Q122.722 1361.59 121.931 1363 Q121.166 1364.41 120.795 1366.53 Q120.4 1369.28 120.4 1375.85 Z" fill="#000000" fill-rule="nonzero" fill-opacity="1" /><path clip-path="url(#clip490)" d="M144.584 1391.83 Q143.819 1391.01 143.819 1389.95 Q143.819 1388.89 144.584 1388.12 Q145.35 1387.33 146.511 1387.33 Q147.623 1387.33 148.364 1388.07 Q149.13 1388.79 149.13 1389.98 Q149.13 1391.14 148.315 1391.9 Q147.524 1392.64 146.511 1392.64 Q145.35 1392.64 144.584 1391.83 Z" fill="#000000" fill-rule="nonzero" fill-opacity="1" /><path clip-path="url(#clip490)" d="M154.984 1384.3 L154.984 1382.74 L170.523 1359 Q170.918 1358.38 171.536 1358.41 Q172.104 1358.41 172.227 1358.63 Q172.351 1358.85 172.351 1359.72 L172.351 1382.74 L177.415 1382.74 L177.415 1384.3 L172.351 1384.3 L172.351 1388.69 Q172.351 1390.15 172.944 1390.62 Q173.561 1391.09 176.18 1391.09 L177.242 1391.09 L177.242 1392.64 Q175.167 1392.5 170.375 1392.5 Q165.607 1392.5 163.532 1392.64 L163.532 1391.09 L164.594 1391.09 Q167.213 1391.09 167.83 1390.64 Q168.448 1390.17 168.448 1388.69 L168.448 1384.3 L154.984 1384.3 M156.417 1382.74 L168.744 1382.74 L168.744 1363.87 L156.417 1382.74 Z" fill="#000000" fill-rule="nonzero" fill-opacity="1" /><path clip-path="url(#clip490)" d="M116.917 961.687 Q116.917 954.251 118.794 950.199 Q121.413 944.172 127.588 944.172 Q128.898 944.172 130.256 944.542 Q131.64 944.888 133.369 946.247 Q135.123 947.606 136.185 949.829 Q138.211 954.127 138.211 961.687 Q138.211 969.073 136.333 973.099 Q133.591 978.979 127.539 978.979 Q125.266 978.979 122.944 977.818 Q120.647 976.657 119.189 973.865 Q116.917 969.69 116.917 961.687 M121.116 961.069 Q121.116 968.702 121.66 971.741 Q122.277 975.026 123.957 976.459 Q125.662 977.867 127.539 977.867 Q129.565 977.867 131.245 976.36 Q132.949 974.829 133.468 971.543 Q134.036 968.307 134.011 961.069 Q134.011 954.028 133.517 951.212 Q132.85 947.927 131.072 946.617 Q129.318 945.283 127.539 945.283 Q126.872 945.283 126.156 945.481 Q125.464 945.679 124.451 946.247 Q123.438 946.815 122.648 948.223 Q121.882 949.631 121.511 951.756 Q121.116 954.498 121.116 961.069 Z" fill="#000000" fill-rule="nonzero" fill-opacity="1" /><path clip-path="url(#clip490)" d="M145.301 977.052 Q144.535 976.237 144.535 975.175 Q144.535 974.112 145.301 973.346 Q146.067 972.556 147.228 972.556 Q148.339 972.556 149.08 973.297 Q149.846 974.013 149.846 975.199 Q149.846 976.36 149.031 977.126 Q148.24 977.867 147.228 977.867 Q146.067 977.867 145.301 977.052 Z" fill="#000000" fill-rule="nonzero" fill-opacity="1" /><path clip-path="url(#clip490)" d="M156.417 961.884 Q156.417 953.93 160.469 949.063 Q164.52 944.172 169.732 944.172 Q172.771 944.172 174.451 945.728 Q176.155 947.26 176.155 949.631 Q176.155 950.941 175.389 951.509 Q174.624 952.077 173.833 952.077 Q172.919 952.077 172.203 951.459 Q171.486 950.842 171.486 949.73 Q171.486 947.457 174.278 947.457 Q172.968 945.432 169.831 945.432 Q168.868 945.432 167.88 945.728 Q166.891 946 165.607 946.939 Q164.322 947.877 163.334 949.36 Q162.346 950.842 161.654 953.633 Q160.963 956.425 160.963 960.056 L160.963 961.267 Q163.038 956.252 167.287 956.276 Q171.536 956.276 174.475 959.513 Q177.415 962.749 177.415 967.541 Q177.415 972.457 174.352 975.718 Q171.289 978.979 166.99 978.979 Q165.063 978.979 163.309 978.164 Q161.58 977.373 159.95 975.545 Q158.344 973.717 157.381 970.209 Q156.417 966.701 156.417 961.884 M161.061 966.43 Q161.061 971.395 161.975 973.766 Q162.124 974.162 162.445 974.705 Q162.791 975.249 163.359 975.965 Q163.952 976.657 164.915 977.126 Q165.879 977.571 166.99 977.571 Q170.375 977.571 172.005 974.285 Q172.87 972.457 172.87 967.492 Q172.87 962.428 171.956 960.575 Q170.399 957.438 167.237 957.438 Q165.113 957.438 163.631 958.895 Q162.173 960.353 161.605 962.304 Q161.061 964.256 161.061 966.43 Z" fill="#000000" fill-rule="nonzero" fill-opacity="1" /><path clip-path="url(#clip490)" d="M116.917 546.909 Q116.917 539.473 118.794 535.422 Q121.413 529.394 127.588 529.394 Q128.898 529.394 130.256 529.765 Q131.64 530.111 133.369 531.469 Q135.123 532.828 136.185 535.051 Q138.211 539.35 138.211 546.909 Q138.211 554.295 136.333 558.322 Q133.591 564.201 127.539 564.201 Q125.266 564.201 122.944 563.04 Q120.647 561.879 119.189 559.088 Q116.917 554.913 116.917 546.909 M121.116 546.291 Q121.116 553.925 121.66 556.963 Q122.277 560.249 123.957 561.682 Q125.662 563.09 127.539 563.09 Q129.565 563.09 131.245 561.583 Q132.949 560.051 133.468 556.766 Q134.036 553.529 134.011 546.291 Q134.011 539.251 133.517 536.435 Q132.85 533.149 131.072 531.84 Q129.318 530.506 127.539 530.506 Q126.872 530.506 126.156 530.704 Q125.464 530.901 124.451 531.469 Q123.438 532.038 122.648 533.446 Q121.882 534.854 121.511 536.978 Q121.116 539.72 121.116 546.291 Z" fill="#000000" fill-rule="nonzero" fill-opacity="1" /><path clip-path="url(#clip490)" d="M145.301 562.274 Q144.535 561.459 144.535 560.397 Q144.535 559.335 145.301 558.569 Q146.067 557.778 147.228 557.778 Q148.339 557.778 149.08 558.52 Q149.846 559.236 149.846 560.422 Q149.846 561.583 149.031 562.349 Q148.24 563.09 147.228 563.09 Q146.067 563.09 145.301 562.274 Z" fill="#000000" fill-rule="nonzero" fill-opacity="1" /><path clip-path="url(#clip490)" d="M156.417 555.456 Q156.417 549.799 163.705 546.143 Q160.567 544.019 159.999 543.401 Q157.776 540.931 157.776 537.843 Q157.776 534.31 160.444 531.865 Q163.137 529.394 166.941 529.394 Q170.572 529.394 173.314 531.494 Q176.056 533.594 176.056 536.929 Q176.056 541.622 169.93 544.784 Q173.981 547.304 174.945 548.366 Q177.415 551.109 177.415 554.592 Q177.415 558.643 174.302 561.435 Q171.19 564.201 166.891 564.201 Q162.692 564.201 159.555 561.756 Q156.417 559.31 156.417 555.456 M158.937 555.456 Q158.937 558.594 161.284 560.693 Q163.655 562.793 166.941 562.793 Q170.128 562.793 172.499 560.965 Q174.895 559.137 174.895 556.42 Q174.895 555.358 174.525 554.443 Q174.179 553.529 173.463 552.813 Q172.771 552.072 172.326 551.751 Q171.906 551.405 171.091 550.837 L164.866 546.909 Q158.937 550.195 158.937 555.456 M159.999 535.867 Q159.999 538.287 162.544 539.967 L168.818 544.019 Q173.833 541.079 173.833 536.929 Q173.833 534.236 171.783 532.458 Q169.732 530.654 166.891 530.654 Q164.1 530.654 162.05 532.136 Q159.999 533.594 159.999 535.867 Z" fill="#000000" fill-rule="nonzero" fill-opacity="1" /><path clip-path="url(#clip490)" d="M119.288 119.434 L119.288 117.853 Q125.365 117.853 128.502 114.617 Q129.367 114.617 129.515 114.814 Q129.663 115.012 129.663 115.926 L129.663 144.31 Q129.663 145.817 130.405 146.286 Q131.146 146.756 134.382 146.756 L135.988 146.756 L135.988 148.312 Q134.209 148.164 127.786 148.164 Q121.363 148.164 119.609 148.312 L119.609 146.756 L121.215 146.756 Q124.402 146.756 125.167 146.311 Q125.933 145.842 125.933 144.31 L125.933 118.1 Q123.29 119.434 119.288 119.434 Z" fill="#000000" fill-rule="nonzero" fill-opacity="1" /><path clip-path="url(#clip490)" d="M145.152 147.497 Q144.387 146.682 144.387 145.619 Q144.387 144.557 145.152 143.791 Q145.918 143.001 147.079 143.001 Q148.191 143.001 148.932 143.742 Q149.698 144.458 149.698 145.644 Q149.698 146.805 148.883 147.571 Q148.092 148.312 147.079 148.312 Q145.918 148.312 145.152 147.497 Z" fill="#000000" fill-rule="nonzero" fill-opacity="1" /><path clip-path="url(#clip490)" d="M156.121 132.131 Q156.121 124.696 157.998 120.644 Q160.617 114.617 166.793 114.617 Q168.102 114.617 169.461 114.987 Q170.844 115.333 172.573 116.692 Q174.327 118.051 175.389 120.274 Q177.415 124.572 177.415 132.131 Q177.415 139.518 175.538 143.544 Q172.796 149.424 166.743 149.424 Q164.471 149.424 162.148 148.263 Q159.851 147.102 158.393 144.31 Q156.121 140.135 156.121 132.131 M160.32 131.514 Q160.32 139.147 160.864 142.186 Q161.481 145.471 163.161 146.904 Q164.866 148.312 166.743 148.312 Q168.769 148.312 170.449 146.805 Q172.153 145.274 172.672 141.988 Q173.24 138.752 173.216 131.514 Q173.216 124.473 172.721 121.657 Q172.054 118.372 170.276 117.062 Q168.522 115.728 166.743 115.728 Q166.076 115.728 165.36 115.926 Q164.668 116.124 163.655 116.692 Q162.642 117.26 161.852 118.668 Q161.086 120.076 160.716 122.201 Q160.32 124.943 160.32 131.514 Z" fill="#000000" fill-rule="nonzero" fill-opacity="1" /><path clip-path="url(#clip490)" d="M38.9986 1274.31 Q32.375 1274.31 27.7895 1269.69 Q23.2039 1265.07 23.2039 1258.82 Q23.2039 1253.52 27.5177 1250.06 L12.4703 1250.06 Q9.8888 1250.06 9.24343 1250.97 Q8.59805 1251.86 8.59805 1255.46 L6.42416 1255.46 L5.67688 1245.44 L47.898 1245.44 Q50.4795 1245.44 51.1589 1244.55 Q51.8042 1243.64 51.8042 1240.04 L53.9442 1240.04 L54.7254 1250.26 L50.1059 1250.26 Q54.6914 1253.86 54.7254 1259.57 Q54.7254 1265.55 50.1398 1269.93 Q45.5543 1274.31 38.9986 1274.31 M39.0666 1268.54 Q45.5203 1268.54 48.7132 1266.53 Q53.1629 1263.75 53.1629 1259.23 Q53.1629 1254.07 48.3056 1251.01 Q47.1168 1250.23 45.7241 1250.26 L31.4579 1250.26 Q30.0653 1250.26 28.9104 1251.01 Q24.7324 1253.86 24.7324 1258.52 Q24.7324 1263.37 29.1821 1266.4 Q32.5109 1268.54 39.0666 1268.54 Z" fill="#000000" fill-rule="nonzero" fill-opacity="1" /><path clip-path="url(#clip490)" d="M38.625 1236.16 Q32.0693 1236.16 27.4158 1231.95 Q22.7623 1227.74 22.7623 1221.69 Q22.7623 1215.58 26.7365 1212.42 Q30.7106 1209.23 36.4171 1209.23 Q37.4701 1209.23 37.6739 1209.5 Q37.8777 1209.77 37.8777 1210.96 L37.8777 1230.39 Q44.9768 1230.39 48.3056 1228.28 Q52.9591 1225.36 52.9591 1220.44 Q52.9591 1219.76 52.8232 1218.94 Q52.6874 1218.13 52.1099 1216.46 Q51.4985 1214.8 49.9021 1213.34 Q48.3056 1211.88 45.792 1211.03 Q44.807 1210.83 44.841 1210.15 Q44.841 1209.23 45.6562 1209.23 Q46.2676 1209.23 47.6602 1209.91 Q49.0189 1210.55 50.6493 1211.81 Q52.2798 1213.07 53.5026 1215.51 Q54.7254 1217.92 54.7254 1220.85 Q54.7254 1226.96 50.1059 1231.58 Q45.4524 1236.16 38.625 1236.16 M36.4171 1230.32 L36.4171 1213.81 Q34.9565 1213.81 33.3261 1214.09 Q31.6957 1214.32 29.4539 1215.07 Q27.1781 1215.78 25.7514 1217.48 Q24.3248 1219.18 24.3248 1221.69 Q24.3248 1222.82 24.8004 1224.04 Q25.2759 1225.23 26.4308 1226.69 Q27.5857 1228.15 30.2011 1229.17 Q32.8166 1230.19 36.4171 1230.32 Z" fill="#000000" fill-rule="nonzero" fill-opacity="1" /><path clip-path="url(#clip490)" d="M53.9442 1204.98 L51.8042 1204.98 Q51.8042 1201.28 51.3627 1200.43 Q50.8871 1199.58 48.6453 1199.58 L29.9973 1199.58 Q27.4158 1199.58 26.7705 1200.5 Q26.1251 1201.38 26.1251 1204.98 L23.9512 1204.98 L23.2039 1195.2 L30.5068 1195.2 Q23.2039 1191.94 23.2039 1184.91 Q23.2039 1179.68 25.7854 1177.61 Q27.5177 1176.08 29.4539 1175.77 Q31.39 1175.43 36.4171 1175.43 L49.6983 1175.43 Q51.1589 1175.36 51.4985 1174.24 Q51.8042 1173.12 51.8042 1170 L53.9442 1170 Q53.7404 1177.1 53.7404 1177.81 Q53.7404 1178.35 53.9442 1185.66 L51.8042 1185.66 Q51.8042 1181.95 51.3627 1181.1 Q50.8871 1180.22 48.6453 1180.22 L32.443 1180.22 Q28.9104 1180.22 26.8384 1181.31 Q24.7324 1182.4 24.7324 1185.38 Q24.7324 1188.98 27.7555 1191.87 Q30.7786 1194.76 35.8736 1194.76 L48.6453 1194.76 Q50.8871 1194.76 51.3627 1193.91 Q51.8042 1193.03 51.8042 1189.36 L53.9442 1189.36 Q53.7404 1196.46 53.7404 1197.14 Q53.7404 1197.68 53.9442 1204.98 Z" fill="#000000" fill-rule="nonzero" fill-opacity="1" /><path clip-path="url(#clip490)" d="M53.027 1166.33 L43.8559 1166.33 Q43.0747 1166.33 42.8029 1166.29 Q42.5312 1166.26 42.3274 1166.06 Q42.1236 1165.85 42.1236 1165.45 Q42.1236 1164.97 42.3274 1164.8 Q42.5312 1164.6 43.3124 1164.46 Q48.1018 1163.41 50.6493 1161.17 Q53.1629 1158.89 53.1629 1154.78 Q53.1629 1150.87 51.4306 1148.9 Q49.6983 1146.93 46.845 1146.93 Q41.75 1146.93 40.4592 1154.17 Q39.61 1158.35 39.0666 1160.08 Q38.4891 1161.81 37.2323 1163.34 Q34.7867 1166.33 31.3221 1166.33 Q27.8574 1166.33 25.3099 1163.71 Q22.7623 1161.06 22.7623 1155.22 Q22.7623 1151.32 24.7324 1148.67 Q24.121 1147.88 23.6115 1147.48 Q22.7623 1146.56 22.7623 1146.08 Q22.7623 1145.54 23.136 1145.44 Q23.4757 1145.34 24.4607 1145.34 L31.4579 1145.34 Q32.2392 1145.34 32.5109 1145.37 Q32.7826 1145.4 32.9864 1145.61 Q33.1563 1145.81 33.1563 1146.25 Q33.1563 1147.04 32.5109 1147.07 Q24.0871 1147.61 24.0871 1155.22 Q24.0871 1159.33 25.6835 1161.17 Q27.246 1163 29.3859 1163 Q30.5748 1163 31.4919 1162.46 Q32.375 1161.88 32.9185 1161.17 Q33.428 1160.42 33.9375 1159.06 Q34.4131 1157.7 34.5829 1156.89 Q34.7527 1156.04 35.0924 1154.44 Q36.1454 1148.87 38.4212 1146.53 Q41.3424 1143.6 45.0448 1143.6 Q49.1548 1143.6 51.9401 1146.39 Q54.7254 1149.18 54.7254 1154.78 Q54.7254 1159.3 51.7023 1162.46 Q52.1099 1162.86 52.4836 1163.17 Q52.8232 1163.48 52.9591 1163.61 Q53.095 1163.71 53.1969 1163.75 Q53.2648 1163.78 53.3327 1163.85 Q54.7254 1165.24 54.7254 1165.58 Q54.7254 1166.12 54.3518 1166.23 Q54.0121 1166.33 53.027 1166.33 Z" fill="#000000" fill-rule="nonzero" fill-opacity="1" /><path clip-path="url(#clip490)" d="M53.9442 1138.95 L51.8042 1138.95 Q51.8042 1135.25 51.3627 1134.4 Q50.8871 1133.55 48.6453 1133.55 L29.9294 1133.55 Q27.3479 1133.55 26.7365 1134.43 Q26.1251 1135.28 26.1251 1138.68 L23.9512 1138.68 L23.2039 1128.96 L48.7132 1128.96 Q50.7852 1128.96 51.2947 1128.22 Q51.8042 1127.47 51.8042 1124.07 L53.9442 1124.07 Q53.7404 1131.17 53.7404 1131.31 Q53.7404 1132.26 53.9442 1138.95 M11.0777 1136.03 Q9.685 1136.03 8.56409 1134.98 Q7.4092 1133.89 7.4092 1132.36 Q7.4092 1130.83 8.46218 1129.75 Q9.4812 1128.66 11.1116 1128.66 Q12.7081 1128.66 13.7611 1129.75 Q14.7801 1130.83 14.7801 1132.36 Q14.7801 1133.96 13.6592 1135.01 Q12.5382 1136.03 11.0777 1136.03 Z" fill="#000000" fill-rule="nonzero" fill-opacity="1" /><path clip-path="url(#clip490)" d="M26.1251 1120.68 L24.5966 1120.68 Q24.4607 1117.48 22.2189 1115.38 Q19.9431 1113.24 17.1578 1112.52 Q14.3725 1111.78 11.1456 1111.71 L11.1456 1109.98 L23.9512 1109.98 L23.9512 1100.02 L26.1251 1100.02 L26.1251 1109.98 L45.4524 1109.98 Q52.9591 1109.98 52.9591 1105.29 Q52.9591 1103.29 50.9211 1101.96 Q48.8491 1100.64 45.1806 1100.64 L41.3424 1100.64 L41.3424 1098.9 L45.3165 1098.9 Q49.0869 1098.9 51.9061 1100.64 Q54.7254 1102.37 54.7254 1105.8 Q54.7254 1107.06 54.3857 1108.31 Q54.08 1109.54 53.2648 1111.17 Q52.4156 1112.76 50.3776 1113.78 Q48.3056 1114.77 45.3165 1114.77 L26.1251 1114.77 L26.1251 1120.68 Z" fill="#000000" fill-rule="nonzero" fill-opacity="1" /><path clip-path="url(#clip490)" d="M62.5718 1095.64 Q61.1112 1095.64 60.33 1094.79 Q59.5827 1093.91 59.5827 1092.72 Q59.5827 1091.47 60.3639 1090.65 Q61.1792 1089.8 62.5039 1089.8 Q65.0854 1089.8 65.425 1092.52 Q66.6818 1091.19 66.6818 1089.26 Q66.6818 1087.19 65.1533 1085.52 Q63.6248 1083.82 62.1642 1083.11 Q60.7036 1082.36 58.0542 1081.31 Q55.9822 1080.32 53.9442 1079.58 L28.5368 1090 Q26.8724 1090.68 26.4987 1091.74 Q26.1251 1092.79 26.1251 1095.64 L23.9512 1095.64 Q24.155 1092.52 24.155 1088.88 Q24.155 1086.74 23.9512 1081.31 L26.1251 1081.31 Q26.1251 1085.22 27.9253 1085.22 Q28.1291 1085.22 29.1821 1084.81 L47.898 1077.06 L30.7786 1070.03 Q29.7935 1069.62 29.1142 1069.62 Q26.261 1069.62 26.1251 1072.89 L23.9512 1072.89 Q24.155 1068.3 24.155 1066.84 Q24.155 1063.99 23.9512 1061.64 L26.1251 1061.64 Q26.1251 1066.3 30.5748 1068.1 L60.262 1080.36 Q68.1764 1083.69 68.2103 1089.26 Q68.2103 1091.91 66.5799 1093.77 Q64.9495 1095.64 62.5718 1095.64 Z" fill="#000000" fill-rule="nonzero" fill-opacity="1" /><path clip-path="url(#clip490)" d="M1522.5 72.576 L1522.5 69.8525 L1524.61 69.8525 Q1529.41 69.8525 1530.49 69.0743 Q1531.62 68.2529 1531.62 65.6591 L1531.62 19.0129 Q1531.62 16.4623 1530.49 15.6842 Q1529.37 14.8628 1524.61 14.8628 L1522.5 14.8628 L1522.5 12.096 L1553.75 12.096 Q1562.7 12.096 1568.67 17.0243 Q1574.63 21.9526 1574.63 28.567 Q1574.63 35.1381 1568.54 39.8935 Q1562.48 44.6056 1554.44 44.6056 L1539.49 44.6056 L1539.49 65.6591 Q1539.49 68.2097 1540.57 69.0311 Q1541.69 69.8525 1546.49 69.8525 L1548.61 69.8525 L1548.61 72.576 Q1545.49 72.3166 1535.51 72.3166 Q1525.61 72.3166 1522.5 72.576 M1539.23 42.3144 L1551.42 42.3144 Q1555.39 42.3144 1558.29 41.1904 Q1561.19 40.0664 1562.48 38.7262 Q1563.82 37.3428 1564.56 35.1381 Q1565.34 32.8901 1565.42 31.6796 Q1565.51 30.4259 1565.51 28.567 Q1565.51 26.6216 1565.42 25.4111 Q1565.34 24.1574 1564.56 21.9526 Q1563.82 19.7046 1562.48 18.3645 Q1561.19 16.9811 1558.29 15.9435 Q1555.44 14.8628 1551.42 14.8628 L1543.55 14.8628 Q1540.52 14.8628 1539.87 15.468 Q1539.23 16.0732 1539.23 18.4077 L1539.23 42.3144 Z" fill="#000000" fill-rule="nonzero" fill-opacity="1" /><path clip-path="url(#clip490)" d="M1582.02 72.576 L1582.02 69.8525 L1584.36 69.8525 Q1589.33 69.8525 1590.45 69.0743 Q1591.62 68.2529 1591.62 65.6591 L1591.62 19.0129 Q1591.62 16.4623 1590.45 15.6842 Q1589.29 14.8628 1584.36 14.8628 L1582.02 14.8628 L1582.02 12.096 Q1585.14 12.3554 1595.6 12.3554 Q1605.97 12.3554 1609.04 12.096 L1609.04 14.8628 L1606.75 14.8628 Q1601.78 14.8628 1600.61 15.6842 Q1599.49 16.4623 1599.49 19.0129 L1599.49 65.6591 Q1599.49 68.2097 1600.61 69.0311 Q1601.78 69.8525 1606.75 69.8525 L1609.04 69.8525 L1609.04 72.576 Q1605.93 72.3166 1595.51 72.3166 Q1585.14 72.3166 1582.02 72.576 Z" fill="#000000" fill-rule="nonzero" fill-opacity="1" /><path clip-path="url(#clip490)" d="M1614.71 32.5442 L1616.39 12.658 L1670.47 12.658 L1672.16 32.5442 L1669.96 32.5442 Q1669.61 28.567 1669.26 26.2757 Q1668.96 23.9845 1668.18 21.8229 Q1667.45 19.6182 1666.5 18.5806 Q1665.59 17.4999 1663.82 16.6785 Q1662.04 15.8139 1659.75 15.5977 Q1657.46 15.3815 1654 15.3815 Q1649.94 15.3815 1648.95 15.5545 Q1647.86 15.8139 1647.61 16.592 Q1647.35 17.3269 1647.35 18.9265 L1647.35 65.5726 Q1647.35 67.3451 1647.69 68.08 Q1648.08 68.7717 1650.11 69.3337 Q1652.14 69.8525 1656.64 69.8525 L1660.19 69.8525 L1660.19 72.576 Q1656.55 72.3166 1643.37 72.3166 Q1630.27 72.3166 1626.64 72.576 L1626.64 69.8525 L1630.18 69.8525 Q1634.68 69.8525 1636.71 69.3337 Q1638.79 68.7717 1639.13 68.08 Q1639.48 67.3451 1639.48 65.5726 L1639.48 18.9265 Q1639.48 17.6728 1639.39 17.154 Q1639.31 16.6352 1638.92 16.2029 Q1638.53 15.7274 1637.62 15.5545 Q1636.75 15.3815 1632.86 15.3815 Q1629.41 15.3815 1627.07 15.5977 Q1624.78 15.8139 1623.01 16.6785 Q1621.23 17.4999 1620.28 18.5806 Q1619.38 19.6182 1618.6 21.8229 Q1617.86 23.9845 1617.56 26.2757 Q1617.26 28.567 1616.91 32.5442 L1614.71 32.5442 Z" fill="#000000" fill-rule="nonzero" fill-opacity="1" /><path clip-path="url(#clip490)" d="M1713.62 50.4418 Q1713.62 35.4839 1719.2 23.4225 Q1721.57 18.3645 1724.9 14.1279 Q1728.23 9.89123 1730.44 8.0323 Q1732.64 6.17337 1733.25 6.17337 Q1734.11 6.17337 1734.15 7.03799 Q1734.15 7.4703 1732.99 8.55107 Q1718.72 23.0766 1718.76 50.4418 Q1718.76 77.8934 1732.64 91.857 Q1734.15 93.3701 1734.15 93.8456 Q1734.15 94.7102 1733.25 94.7102 Q1732.64 94.7102 1730.52 92.9377 Q1728.4 91.1653 1725.12 87.1016 Q1721.83 83.0379 1719.46 78.0663 Q1713.62 66.0049 1713.62 50.4418 Z" fill="#000000" fill-rule="nonzero" fill-opacity="1" /><path clip-path="url(#clip490)" d="M1740.25 72.576 L1740.25 69.8525 Q1747.17 69.8525 1751.58 64.5351 Q1751.58 64.5351 1759.88 53.9867 L1751.1 42.5738 Q1747.99 38.5965 1746.6 37.9048 Q1745.26 37.1699 1740.68 37.1699 L1740.68 34.4031 Q1744.31 34.6625 1749.07 34.6625 Q1751.71 34.6625 1758.67 34.4031 L1758.67 37.1699 Q1755.55 37.3428 1755.55 39.3747 Q1755.55 40.0664 1756.33 40.9742 L1763.25 49.923 L1768.74 43.0061 Q1770.08 41.4065 1770.08 39.8935 Q1770.08 37.4293 1767.48 37.1699 L1767.48 34.4031 Q1770.94 34.6625 1776 34.6625 Q1779.81 34.6625 1783.26 34.4031 L1783.26 37.1699 Q1776.52 37.3428 1772.72 41.7524 Q1771.03 43.6113 1764.59 51.7819 L1776.43 67.0857 Q1777.86 68.9446 1779.46 69.4201 Q1781.06 69.8525 1784.86 69.8525 L1784.86 72.576 Q1780.89 72.3166 1776.35 72.3166 Q1774.75 72.3166 1766.79 72.576 L1766.79 69.8525 Q1768.39 69.766 1769.17 69.0743 Q1769.99 68.3394 1769.99 67.6044 Q1769.99 67.2586 1768.13 64.708 L1761.39 55.8456 Q1754.65 63.8001 1753.78 65.6591 Q1753.43 66.4372 1753.43 67.0857 Q1753.43 69.4634 1755.99 69.8525 L1755.99 72.576 Q1749.63 72.3166 1747.6 72.3166 Q1743.71 72.3166 1740.25 72.576 Z" fill="#000000" fill-rule="nonzero" fill-opacity="1" /><path clip-path="url(#clip490)" d="M1793.68 22.0391 L1793.68 19.2723 Q1804.32 19.2723 1809.81 13.6091 Q1811.32 13.6091 1811.58 13.9549 Q1811.84 14.3008 1811.84 15.9003 L1811.84 65.5726 Q1811.84 68.2097 1813.14 69.0311 Q1814.43 69.8525 1820.1 69.8525 L1822.91 69.8525 L1822.91 72.576 Q1819.79 72.3166 1808.55 72.3166 Q1797.31 72.3166 1794.24 72.576 L1794.24 69.8525 L1797.05 69.8525 Q1802.63 69.8525 1803.97 69.0743 Q1805.31 68.2529 1805.31 65.5726 L1805.31 19.7046 Q1800.69 22.0391 1793.68 22.0391 Z" fill="#000000" fill-rule="nonzero" fill-opacity="1" /><path clip-path="url(#clip490)" d="M1835.14 93.8456 Q1835.14 93.4133 1836.27 92.3325 Q1850.53 77.8069 1850.53 50.4418 Q1850.53 22.9902 1836.83 9.11307 Q1835.14 7.51353 1835.14 7.03799 Q1835.14 6.17337 1836.01 6.17337 Q1836.61 6.17337 1838.73 7.94584 Q1840.89 9.7183 1844.13 13.782 Q1847.42 17.8457 1849.84 22.8173 Q1855.68 34.8787 1855.68 50.4418 Q1855.68 65.3997 1850.1 77.4611 Q1847.72 82.5191 1844.39 86.7557 Q1841.06 90.9924 1838.86 92.8513 Q1836.65 94.7102 1836.01 94.7102 Q1835.14 94.7102 1835.14 93.8456 Z" fill="#000000" fill-rule="nonzero" fill-opacity="1" /><path clip-path="url(#clip492)" d="M386.424 131.032 L386.424 2204.92 L2991.75 2204.92 L2991.75 131.032 L386.424 131.032 L386.424 131.032  Z" fill="#009af9" fill-rule="evenodd" fill-opacity="1"/>
<polyline clip-path="url(#clip492)" style="stroke:#000000; stroke-linecap:round; stroke-linejoin:round; stroke-width:4; stroke-opacity:1; fill:none" points="386.424,131.032 386.424,2204.92 2991.75,2204.92 2991.75,131.032 386.424,131.032 "/>
<circle clip-path="url(#clip492)" style="fill:#009af9; stroke:none; fill-opacity:0" cx="1689.09" cy="131.032" r="2"/>
<path clip-path="url(#clip490)" d="M2715.56 303.842 L3055.18 303.842 L3055.18 200.162 L2715.56 200.162  Z" fill="#ffffff" fill-rule="evenodd" fill-opacity="1"/>
<polyline clip-path="url(#clip490)" style="stroke:#000000; stroke-linecap:round; stroke-linejoin:round; stroke-width:4; stroke-opacity:1; fill:none" points="2715.56,303.842 3055.18,303.842 3055.18,200.162 2715.56,200.162 2715.56,303.842 "/>
<path clip-path="url(#clip490)" d="M2748.08 272.738 L2943.24 272.738 L2943.24 231.266 L2748.08 231.266 L2748.08 272.738  Z" fill="#009af9" fill-rule="evenodd" fill-opacity="1"/>
<polyline clip-path="url(#clip490)" style="stroke:#000000; stroke-linecap:round; stroke-linejoin:round; stroke-width:4; stroke-opacity:1; fill:none" points="2748.08,272.738 2943.24,272.738 2943.24,231.266 2748.08,231.266 2748.08,272.738 "/>
<path clip-path="url(#clip490)" d="M2975.76 275.556 Q2975.76 274.494 2976.38 273.926 Q2977.02 273.382 2977.89 273.382 Q2978.8 273.382 2979.4 273.951 Q2980.01 274.544 2980.01 275.507 Q2980.01 277.384 2978.04 277.631 Q2979 278.545 2980.41 278.545 Q2981.92 278.545 2983.13 277.434 Q2984.36 276.322 2984.88 275.26 Q2985.42 274.198 2986.19 272.271 Q2986.91 270.764 2987.45 269.282 L2979.87 250.804 Q2979.37 249.593 2978.61 249.321 Q2977.84 249.05 2975.76 249.05 L2975.76 247.469 Q2978.04 247.617 2980.68 247.617 Q2982.24 247.617 2986.19 247.469 L2986.19 249.05 Q2983.35 249.05 2983.35 250.359 Q2983.35 250.507 2983.65 251.273 L2989.28 264.885 L2994.39 252.434 Q2994.69 251.718 2994.69 251.224 Q2994.69 249.148 2992.32 249.05 L2992.32 247.469 Q2995.65 247.617 2996.71 247.617 Q2998.79 247.617 3000.49 247.469 L3000.49 249.05 Q2997.11 249.05 2995.8 252.286 L2986.88 273.877 Q2984.46 279.632 2980.41 279.657 Q2978.48 279.657 2977.12 278.471 Q2975.76 277.286 2975.76 275.556 Z" fill="#000000" fill-rule="nonzero" fill-opacity="1" /><path clip-path="url(#clip490)" d="M3005.95 240.403 L3005.95 238.822 Q3012.03 238.822 3015.17 235.586 Q3016.03 235.586 3016.18 235.784 Q3016.33 235.982 3016.33 236.896 L3016.33 265.28 Q3016.33 266.787 3017.07 267.256 Q3017.81 267.725 3021.05 267.725 L3022.65 267.725 L3022.65 269.282 Q3020.87 269.133 3014.45 269.133 Q3008.03 269.133 3006.27 269.282 L3006.27 267.725 L3007.88 267.725 Q3011.07 267.725 3011.83 267.281 Q3012.6 266.811 3012.6 265.28 L3012.6 239.07 Q3009.95 240.403 3005.95 240.403 Z" fill="#000000" fill-rule="nonzero" fill-opacity="1" /></svg>
